<?xml version="1.0" standalone="no"?>
<!DOCTYPE svg PUBLIC "-//W3C//DTD SVG 1.1//EN" "http://www.w3.org/Graphics/SVG/1.1/DTD/svg11.dtd" >
<svg xmlns="http://www.w3.org/2000/svg" xmlns:xlink="http://www.w3.org/1999/xlink" version="1.1">
<metadata>
Created by FontForge 20170731 at Mon May 31 16:16:00 2021
 By Aleksey,,,
Copyright (c) 2019 by Livius Dietzel, Tom Hossfeld. All rights reserved. |DCNT
</metadata>
<defs>
<font id="Graphit-Regular" horiz-adv-x="1228" >
  <font-face 
    font-family="Graphit"
    font-weight="400"
    font-stretch="normal"
    units-per-em="2048"
    panose-1="2 11 5 3 1 2 3 2 2 3"
    ascent="1495"
    descent="-553"
    x-height="965"
    cap-height="1434"
    bbox="-1536 -473 6199 1976"
    underline-thickness="153"
    underline-position="-333"
    unicode-range="U+000D-FB02"
  />
<missing-glyph horiz-adv-x="1208" 
d="M174 1434h862v-1434h-862v1434zM864 164v1106h-518v-1106h518z" />
    <glyph glyph-name="fi" unicode="fi" horiz-adv-x="1107" 
d="M47 791v174h162v215q0 151 102.5 246.5t259.5 95.5t258 -93.5t101 -238.5h-189q0 72 -47 115t-125 43q-79 0 -125.5 -44.5t-46.5 -123.5v-215h566v-965h-189v791h-377v-791h-188v791h-162z" />
    <glyph glyph-name="fl" unicode="fl" horiz-adv-x="1116" 
d="M782 1495h189v-1495h-189v807h-385v-807h-186v807h-164v158h164v243q0 146 80 230t219 84q105 0 172 -43l-47 -154q-66 29 -117 29q-60 0 -90.5 -39t-30.5 -107v-243h385v530z" />
    <glyph glyph-name="f_f" unicode="ff" horiz-adv-x="1273" 
d="M965 1192v-227h280v-174h-280v-791h-189v791h-377v-791h-188v791h-164v174h164v200q0 157 102 256q101 101 265 101q170 0 272 -111q88 111 248 111q143 0 229.5 -84.5t85.5 -223.5h-182q0 60 -36 97t-97 37q-63 0 -98 -40.5t-35 -115.5zM776 965v200h-4q0 85 -49.5 134
t-134.5 49q-86 0 -137.5 -49t-51.5 -134v-200h377z" />
    <glyph glyph-name="f_f_i" unicode="ffi" horiz-adv-x="1675" 
d="M965 965h565v-965h-189v791h-376v-791h-189v791h-377v-791h-188v791h-164v174h164v200q0 157 102 256q101 101 265 101q172 0 278 -119q103 119 283 119q157 0 257.5 -93.5t100.5 -238.5h-188q0 72 -47 115t-125 43q-79 0 -125.5 -44.5t-46.5 -123.5v-215zM776 965v200
h-4q0 85 -49.5 134t-134.5 49q-86 0 -137.5 -49t-51.5 -134v-200h377z" />
    <glyph glyph-name="f_f_l" unicode="ffl" horiz-adv-x="1691" 
d="M1358 1495h188v-1495h-188v807h-387v-807h-185v807h-389v-807h-186v807h-164v158h164v243q0 146 80 230t219 84q105 0 172 -43l-47 -154q-66 29 -117 29q-60 0 -90.5 -39t-30.5 -107v-243h389v243q0 148 79 231t220 83q102 0 172 -43l-49 -154q-66 29 -116 29
q-59 0 -90 -39t-31 -107v-243h387v530z" />
    <glyph glyph-name=".notdef" horiz-adv-x="1208" 
d="M174 1434h862v-1434h-862v1434zM864 164v1106h-518v-1106h518z" />
    <glyph glyph-name=".null" horiz-adv-x="0" 
 />
    <glyph glyph-name="nonmarkingreturn" horiz-adv-x="682" 
 />
    <glyph glyph-name="CR" unicode="&#xd;" horiz-adv-x="481" 
 />
    <glyph glyph-name="space" unicode=" " horiz-adv-x="481" 
 />
    <glyph glyph-name="exclam" unicode="!" horiz-adv-x="555" 
d="M193 444l-27 992h223l-27 -992h-169zM125 121q0 62 45 104.5t109 42.5q62 0 106.5 -42.5t44.5 -104.5t-44.5 -105t-106.5 -43q-64 0 -109 43t-45 105z" />
    <glyph glyph-name="quotedbl" unicode="&#x22;" horiz-adv-x="800" 
d="M129 1522h190v-588h-190v588zM481 1522h191v-588h-191v588z" />
    <glyph glyph-name="numbersign" unicode="#" horiz-adv-x="1540" 
d="M1473 897h-314l-86 -352h260v-160h-299l-94 -385h-180l94 385h-334l-94 -385h-180l94 385h-272v160h311l86 352h-258v160h297l92 377h182l-92 -377h332l92 377h180l-92 -377h275v-160zM893 545l86 352h-332l-88 -352h334z" />
    <glyph glyph-name="dollar" unicode="$" horiz-adv-x="1073" 
d="M621 72v-201h-175v199q-141 19 -245.5 97.5t-134.5 192.5l170 74q26 -94 103 -148.5t185 -54.5q126 0 204.5 59.5t78.5 158.5q0 85 -55.5 136.5t-165.5 82.5l-133 34q-312 77 -312 330q0 122 86 209.5t219 108.5v200h175v-204q99 -20 172.5 -75t103.5 -134l-162 -80
q-24 65 -81 99t-132 34q-84 0 -140 -41t-56 -111q0 -66 43.5 -106.5t130.5 -61.5l131 -34q171 -43 268.5 -140.5t97.5 -242.5q0 -147 -108 -252q-109 -106 -268 -129z" />
    <glyph glyph-name="percent" unicode="%" horiz-adv-x="1679" 
d="M66 1108q0 146 103 249t251 103q149 0 252.5 -102.5t103.5 -249.5q0 -143 -104 -246.5t-252 -103.5q-147 0 -250.5 104t-103.5 246zM1376 1434l-884 -1434h-191l887 1434h188zM618 1108q0 83 -57 141t-141 58t-139.5 -58t-55.5 -141q0 -80 57 -138.5t138 -58.5
q84 0 141 58t57 139zM903 324q0 146 103 249t251 103q149 0 253 -103t104 -249q0 -143 -104.5 -247t-252.5 -104q-146 0 -250 104.5t-104 246.5zM1456 324q0 82 -57.5 140t-141.5 58t-139 -57.5t-55 -140.5t55 -140t139 -57t141.5 57.5t57.5 139.5z" />
    <glyph glyph-name="ampersand" unicode="&#x26;" horiz-adv-x="1382" 
d="M1159 719h197v-160h-195v-51q0 -169 -72.5 -292t-192.5 -183t-273 -60q-108 0 -205.5 33.5t-170.5 92t-116 145t-43 186.5q0 132 80 238q79 103 190 145q-79 36 -125.5 111t-46.5 172q0 108 59.5 192.5t157.5 128t215 43.5q143 0 256.5 -66t157.5 -180l-162 -92
q-31 75 -98 117.5t-154 42.5q-103 0 -172 -53.5t-69 -141.5q0 -90 65 -144t181 -54h51v-162h-51q-145 0 -240 -80q-92 -80 -92 -203q0 -132 92.5 -207t239.5 -75q158 0 251 90t93 264v43h-181l293 395h80v-235z" />
    <glyph glyph-name="quotesingle" unicode="'" horiz-adv-x="434" 
d="M129 1522h176v-588h-176v588z" />
    <glyph glyph-name="parenleft" unicode="(" horiz-adv-x="616" 
d="M575 -231l-167 -78q-126 161 -224.5 450t-95.5 557q-3 268 96 558.5t224 447.5l167 -78q-110 -155 -197 -420.5t-87 -507.5q-3 -238 86 -506t198 -423z" />
    <glyph glyph-name="parenright" unicode=")" horiz-adv-x="616" 
d="M41 1626l168 78q124 -158 223 -448t96 -558q3 -267 -95.5 -556t-223.5 -451l-168 78q110 156 199 423.5t86 505.5q0 242 -87.5 507.5t-197.5 420.5z" />
    <glyph glyph-name="asterisk" unicode="*" horiz-adv-x="915" 
d="M352 940l-256 78l39 129l258 -84l-8 274h145l-4 -274l254 84l39 -129l-254 -78l164 -219l-115 -76l-155 223l-156 -223l-115 76z" />
    <glyph glyph-name="plus" unicode="+" 
d="M117 492v165h411v416h172v-416h412v-165h-412v-414h-172v414h-411z" />
    <glyph glyph-name="comma" unicode="," horiz-adv-x="512" 
d="M244 -252h-107v588h262z" />
    <glyph glyph-name="hyphen" unicode="-" horiz-adv-x="829" 
d="M127 659h575v-167h-575v167z" />
    <glyph glyph-name="period" unicode="." horiz-adv-x="514" 
d="M104 121q0 62 45 104.5t109 42.5q62 0 107 -42.5t45 -104.5t-45 -105t-107 -43q-64 0 -109 43t-45 105z" />
    <glyph glyph-name="slash" unicode="/" horiz-adv-x="1071" 
d="M47 -113l766 1637h207l-764 -1637h-209z" />
    <glyph glyph-name="zero" unicode="0" horiz-adv-x="1337" 
d="M109 717q0 216 67.5 384.5t195 263.5t296.5 95q170 0 298 -95t195.5 -263t67.5 -385t-67.5 -385t-195.5 -263.5t-298 -95.5q-169 0 -296.5 95.5t-195 263.5t-67.5 385zM1024 719q0 157 -42 281.5t-123.5 197t-190.5 72.5t-191 -72.5t-124 -197t-42 -281.5q0 -158 42 -283
t124 -198.5t191 -73.5q110 0 191.5 73.5t123 198t41.5 283.5z" />
    <glyph glyph-name="one" unicode="1" horiz-adv-x="673" 
d="M285 0v1038h-238l281 408h155v-1446h-198z" />
    <glyph glyph-name="two" unicode="2" horiz-adv-x="1114" 
d="M43 0l602 807q105 134 105 237t-60 164.5t-158 61.5q-103 0 -163 -61.5t-58 -164.5h-192q-6 185 109.5 300.5t303.5 115.5q187 0 304.5 -110.5t117.5 -288.5q0 -82 -36 -164.5t-107 -181.5l-405 -531h634v-184h-997z" />
    <glyph glyph-name="three" unicode="3" horiz-adv-x="1185" 
d="M43 272l150 121q45 -102 139 -166.5t219 -64.5q150 0 244 87.5t94 219.5q0 129 -97 217t-255 88h-127l266 475h-502v185h815l-293 -514q168 -26 283 -148.5t115 -302.5q0 -212 -154 -354t-385 -142q-180 0 -313.5 83.5t-198.5 215.5z" />
    <glyph glyph-name="four" unicode="4" horiz-adv-x="1247" 
d="M965 1460v-1059h225v-182h-225v-219h-189v219h-756l811 1241h134zM340 395h436v660z" />
    <glyph glyph-name="five" unicode="5" horiz-adv-x="1198" 
d="M55 272l152 121q45 -103 138.5 -167t217.5 -64q156 0 252 90t96 227q0 134 -97 223t-253 89q-175 0 -379 -82l123 727h674v-185h-514l-57 -321q103 35 213 35q219 0 356 -136.5t137 -345.5q0 -225 -151.5 -367.5t-395.5 -142.5q-182 0 -315.5 82.5t-196.5 216.5z" />
    <glyph glyph-name="six" unicode="6" horiz-adv-x="1247" 
d="M96 500q0 129 48.5 241.5t158.5 278.5l266 414h242l-330 -473q73 55 197 55q137 3 255 -68.5t185 -191.5t64 -256q0 -107 -41 -204t-112.5 -168t-173 -113t-216.5 -42q-163 0 -288 70.5t-190 189.5t-65 267zM979 496q0 137 -97 237.5t-243 100.5q-150 0 -244 -99.5
t-94 -238.5q0 -141 93.5 -237.5t244.5 -96.5q148 0 244 98t96 236z" />
    <glyph glyph-name="seven" unicode="7" horiz-adv-x="1021" 
d="M180 0l545 1251h-686v185h971l-613 -1436h-217z" />
    <glyph glyph-name="eight" unicode="8" horiz-adv-x="1253" 
d="M356 852q-62 38 -99.5 107.5t-37.5 144.5q0 155 117.5 255.5t288.5 100.5q173 0 291 -100.5t118 -255.5q0 -75 -39 -144.5t-102 -107.5q124 -54 195 -159.5t71 -239.5q0 -98 -39 -186t-108 -153t-169.5 -103t-217.5 -38q-156 0 -278 65t-187.5 174t-65.5 241
q0 135 69.5 239.5t192.5 159.5zM625 915q91 0 151 53t60 134q0 80 -59.5 132t-151.5 52q-91 0 -148 -51t-59 -133q1 -81 60 -134t147 -53zM625 158q142 0 233 82q94 82 94 213q0 129 -94 211q-93 84 -233 84q-141 0 -233 -82.5t-93 -212.5q1 -129 93 -212t233 -83z" />
    <glyph glyph-name="nine" unicode="9" horiz-adv-x="1206" 
d="M1110 965q0 -112 -37 -213q-36 -106 -86 -185q-37 -62 -139 -207l-252 -360h-229l397 555q-89 -63 -221 -63q-203 0 -340 138t-137 335q0 138 68.5 251.5t189 178.5t266.5 65q228 0 374 -141t146 -354zM270 965q0 -127 91.5 -217.5t228.5 -90.5q144 0 229.5 87t85.5 221
q0 132 -86 218.5t-229 86.5q-137 0 -228.5 -90t-91.5 -215z" />
    <glyph glyph-name="colon" unicode=":" horiz-adv-x="540" 
d="M117 121q0 62 44.5 104.5t108.5 42.5q62 0 107 -42.5t45 -104.5t-45 -105t-107 -43q-63 0 -108 42.5t-45 105.5zM117 844q0 62 44.5 104.5t108.5 42.5q62 0 107 -42.5t45 -104.5t-45 -105t-107 -43q-63 0 -108 42.5t-45 105.5z" />
    <glyph glyph-name="semicolon" unicode=";" horiz-adv-x="503" 
d="M109 844q0 62 44.5 104.5t108.5 42.5q62 0 107 -42.5t45 -104.5t-45 -105t-107 -43q-63 0 -108 42.5t-45 105.5zM242 -252h-107v588h262z" />
    <glyph glyph-name="less" unicode="&#x3c;" 
d="M90 498v155l983 480v-193l-739 -365l739 -364v-193z" />
    <glyph glyph-name="equal" unicode="=" 
d="M117 885h995v-166h-995v166zM117 430h995v-166h-995v166z" />
    <glyph glyph-name="greater" unicode="&#x3e;" 
d="M1139 498l-983 -480v193l739 364l-739 365v193l983 -480v-155z" />
    <glyph glyph-name="question" unicode="?" horiz-adv-x="1093" 
d="M494 410l-117 139l201 166q123 105 176 170q53 68 53 151q0 106 -77 174t-204 68q-120 0 -201.5 -66.5t-93.5 -167.5l-172 41q22 161 149.5 268t315.5 107q205 0 341 -122.5t136 -297.5q0 -98 -34 -170t-99 -137q-52 -55 -184 -164zM340 121q0 65 45 106t109 41
q63 0 106 -41t43 -106q0 -63 -43.5 -105.5t-105.5 -42.5q-64 0 -109 43t-45 105z" />
    <glyph glyph-name="at" unicode="@" horiz-adv-x="2058" 
d="M80 520q0 6 4 88q15 202 102.5 381t224.5 306.5t321 200t386 69.5q186 2 350 -62t279 -174.5t180 -261t62 -315.5q0 -8 -4 -78q-10 -132 -74.5 -248t-171.5 -186.5t-230 -67.5q-101 0 -163 55t-74 148q-44 -89 -138 -146t-212 -57q-153 0 -259 105t-106 268q0 1 4 63
q27 201 154.5 315.5t300.5 114.5q108 0 182.5 -50t106.5 -126l20 160h137l-59 -490q-4 -50 -4 -53q0 -77 34 -119.5t101 -42.5q113 0 196.5 108.5t96.5 250.5q2 14 2 67q0 142 -52 265.5t-145.5 213.5t-229.5 141.5t-296 51.5q-167 3 -320.5 -59.5t-267.5 -171t-187.5 -259
t-86.5 -317.5q-4 -78 -4 -84q0 -206 91 -368.5t257 -254t379 -91.5q129 0 255 37.5t230 105.5l51 -139q-118 -73 -261 -113.5t-288 -40.5q-183 -2 -347 64.5t-280.5 181.5t-183 275.5t-63.5 338.5zM1257 649q0 110 -66 177t-163 67q-112 0 -199.5 -80.5t-105.5 -208.5
q-4 -46 -4 -49q0 -105 67 -171.5t170 -66.5q75 0 142.5 37.5t113 115t45.5 179.5z" />
    <glyph glyph-name="A" unicode="A" horiz-adv-x="1409" 
d="M23 0l624 1448h115l624 -1448h-215l-124 295h-685l-126 -295h-213zM436 475h537l-268 627z" />
    <glyph glyph-name="B" unicode="B" horiz-adv-x="1318" 
d="M186 0v1434h516q184 0 301 -105t117 -276q0 -94 -42 -172t-103 -119q115 -36 187.5 -132t72.5 -222q0 -184 -123 -296t-317 -112h-609zM381 815h321q97 0 157.5 61t60.5 160t-67 159t-187 60h-285v-440zM381 178h391q124 0 193 60.5t69 169.5q0 105 -69.5 167t-192.5 62
h-391v-459z" />
    <glyph glyph-name="C" unicode="C" horiz-adv-x="1558" 
d="M94 717q-2 148 52.5 284.5t151.5 238.5t239 162t305 58q224 0 395.5 -100.5t263.5 -276.5l-180 -92q-64 132 -188 206.5t-291 74.5q-122 2 -226.5 -43.5t-174 -123t-108 -179t-36.5 -209.5q-2 -108 36.5 -209.5t108 -179t174 -123t226.5 -43.5q167 0 291 74t188 206
l180 -92q-92 -176 -263.5 -276.5t-395.5 -100.5q-163 -3 -305 57t-239 163t-151.5 239.5t-52.5 284.5z" />
    <glyph glyph-name="D" unicode="D" horiz-adv-x="1540" 
d="M186 0v1434h519q163 2 303 -53t235.5 -152t148.5 -229.5t52 -282.5q1 -150 -52 -282.5t-148.5 -229.5t-235.5 -152t-303 -53h-519zM385 184h301q172 0 299 70.5t191.5 190t64.5 272.5q0 114 -37.5 211t-107.5 168.5t-175.5 112t-234.5 40.5h-301v-1065z" />
    <glyph glyph-name="E" unicode="E" horiz-adv-x="1220" 
d="M184 1434h932v-185h-733v-432h676v-182h-676v-451h733v-184h-932v1434z" />
    <glyph glyph-name="F" unicode="F" horiz-adv-x="1167" 
d="M184 1434h914v-185h-715v-442h674v-182h-674v-625h-199v1434z" />
    <glyph glyph-name="G" unicode="G" horiz-adv-x="1662" 
d="M1589 717q2 -118 -32 -230.5t-100.5 -205.5t-157 -163.5t-208 -108.5t-247.5 -36q-163 -3 -305.5 57t-239.5 163t-152 239.5t-53 284.5q-2 148 53 284.5t152 238.5t239.5 162t305.5 58q165 0 307.5 -59t243.5 -166l-148 -133q-70 80 -173.5 124t-229.5 44
q-123 0 -227.5 -45t-173.5 -121.5t-107.5 -176.5t-38.5 -210t38.5 -210t107.5 -176.5t173.5 -121.5t227.5 -45q188 0 325 101.5t189 269.5l-230 266h457q4 -66 4 -84z" />
    <glyph glyph-name="H" unicode="H" horiz-adv-x="1583" 
d="M186 1434h199v-615h813v615h199v-1434h-199v635h-813v-635h-199v1434z" />
    <glyph glyph-name="I" unicode="I" horiz-adv-x="569" 
d="M186 1434h199v-1434h-199v1434z" />
    <glyph glyph-name="J" unicode="J" horiz-adv-x="1249" 
d="M47 506h199q0 -156 85.5 -249t231.5 -93q151 0 234.5 93.5t83.5 254.5v922h198v-928q0 -244 -139 -388.5t-377 -144.5q-237 0 -376.5 145.5t-139.5 387.5z" />
    <glyph glyph-name="K" unicode="K" horiz-adv-x="1318" 
d="M184 0v1434h203v-807l649 807h238l-539 -666l582 -768h-242l-442 586h-246v-586h-203z" />
    <glyph glyph-name="L" unicode="L" horiz-adv-x="1134" 
d="M186 0v1434h199v-1250h711v-184h-910z" />
    <glyph glyph-name="M" unicode="M" horiz-adv-x="1820" 
d="M184 0v1454h117l608 -711l609 711h116v-1454h-198v1071l-527 -602l-526 602v-1071h-199z" />
    <glyph glyph-name="N" unicode="N" horiz-adv-x="1597" 
d="M1296 -14l-911 1075l-2 -1061h-199v1448h117l909 -1075l2 1061h199v-1448h-115z" />
    <glyph glyph-name="O" unicode="O" horiz-adv-x="1685" 
d="M94 717q-2 148 53 284.5t152 238.5t239.5 162t305.5 58q163 2 305 -58t238.5 -162t151 -238.5t52.5 -284.5q2 -148 -52.5 -284.5t-151 -239.5t-238.5 -163t-305 -57q-163 -3 -305.5 57t-239.5 163t-152 239.5t-53 284.5zM1389 717q0 110 -38 210t-106.5 176.5
t-172.5 121.5t-228 45q-123 0 -227.5 -45t-173.5 -121.5t-107.5 -176.5t-38.5 -210q0 -111 38.5 -211t107.5 -176t173.5 -121t227.5 -45q124 0 228 45t172.5 121t106.5 176t38 211z" />
    <glyph glyph-name="P" unicode="P" horiz-adv-x="1284" 
d="M184 1434h537q225 0 364.5 -124t139.5 -335t-140 -337t-364 -126h-338v-512h-199v1434zM1020 973q0 135 -88 207.5t-248 72.5h-301v-561h301q159 0 247.5 73t88.5 208z" />
    <glyph glyph-name="Q" unicode="Q" horiz-adv-x="1687" 
d="M1397 197l116 -224h-669q-165 -3 -307.5 56.5t-239.5 162t-151 239t-52 286.5q-2 149 52 285.5t151 238.5t239.5 161.5t307.5 57.5q163 2 305 -57.5t238.5 -161t151 -238.5t52.5 -286q0 -150 -50.5 -285.5t-143.5 -234.5zM844 164q165 0 291 77t190 201.5t64 274.5
t-64 274.5t-190 201.5t-291 77q-101 0 -188.5 -29t-152.5 -80.5t-112 -120.5t-70.5 -151.5t-23.5 -171.5t23.5 -171.5t70.5 -151.5t112 -120.5t152.5 -80.5t188.5 -29z" />
    <glyph glyph-name="R" unicode="R" horiz-adv-x="1353" 
d="M1266 0h-230l-379 623h-276v-623h-197v1434h574q132 0 236.5 -48t165.5 -141t61 -217q0 -157 -94 -261t-255 -134zM381 1253v-450h375q121 0 190.5 60.5t69.5 164.5t-69.5 164.5t-190.5 60.5h-375z" />
    <glyph glyph-name="S" unicode="S" horiz-adv-x="1177" 
d="M66 311l172 82q31 -112 119.5 -176.5t213.5 -64.5q145 0 237.5 71t92.5 191q0 102 -65 163t-193 95l-154 43q-342 94 -342 372q0 164 121.5 268.5t298.5 104.5q144 0 259 -68.5t159 -183.5l-172 -86q-30 77 -95 118.5t-151 41.5q-96 0 -159.5 -51t-63.5 -135
q0 -79 49.5 -125.5t151.5 -73.5l149 -41q404 -115 404 -436q0 -130 -71 -233t-191 -158.5t-265 -55.5q-177 0 -323 93q-141 89 -182 245z" />
    <glyph glyph-name="T" unicode="T" horiz-adv-x="1198" 
d="M500 1253h-463v181h1122v-181h-461v-1253h-198v1253z" />
    <glyph glyph-name="U" unicode="U" horiz-adv-x="1501" 
d="M166 535v899h199v-887q0 -172 104.5 -277.5t282.5 -105.5q177 0 281 105.5t104 277.5v887h198v-899q0 -118 -39.5 -220t-113 -178t-184.5 -120t-246 -44q-180 0 -314.5 75.5t-203 202t-68.5 284.5z" />
    <glyph glyph-name="V" unicode="V" horiz-adv-x="1482" 
d="M684 -14l-664 1448h224l497 -1096l498 1096h223l-663 -1448h-115z" />
    <glyph glyph-name="W" unicode="W" horiz-adv-x="2224" 
d="M1055 1448h114l412 -1081l404 1067h215l-558 -1448h-116l-414 1089l-414 -1089h-116l-557 1448h215l403 -1067z" />
    <glyph glyph-name="X" unicode="X" horiz-adv-x="1380" 
d="M541 754l-492 680h240l401 -545l402 545h239l-493 -680l534 -754h-244l-438 610l-438 -610h-246z" />
    <glyph glyph-name="Y" unicode="Y" horiz-adv-x="1353" 
d="M578 467l-545 967h231l414 -744l409 744h234l-545 -967v-467h-198v467z" />
    <glyph glyph-name="Z" unicode="Z" horiz-adv-x="1155" 
d="M772 1249h-688v185h1020l-739 -1248l731 -2v-184h-1061z" />
    <glyph glyph-name="bracketleft" unicode="[" horiz-adv-x="616" 
d="M559 1626v-151h-205v-1635h205v-151h-385v1937h385z" />
    <glyph glyph-name="backslash" unicode="\" horiz-adv-x="1071" 
d="M815 -113l-764 1637h209l764 -1637h-209z" />
    <glyph glyph-name="bracketright" unicode="]" horiz-adv-x="616" 
d="M442 1626v-1937h-385v151h205v1635h-205v151h385z" />
    <glyph glyph-name="asciicircum" unicode="^" 
d="M612 1524l553 -709v-6h-202l-351 451l-346 -451h-203v6z" />
    <glyph glyph-name="underscore" unicode="_" horiz-adv-x="874" 
d="M-8 -104h891v-154h-891v154z" />
    <glyph glyph-name="grave" unicode="`" 
d="M829 1141h-145l-233 311h254z" />
    <glyph glyph-name="a" unicode="a" horiz-adv-x="1234" 
d="M80 485q0 214 131.5 360t337.5 146q110 0 201.5 -43t152.5 -127v144h189v-965h-189v143q-126 -170 -354 -170q-206 0 -337.5 147t-131.5 365zM893 483q0 145 -84.5 239.5t-224.5 94.5q-144 0 -228 -96q-82 -94 -82 -238q0 -145 85 -239t225 -94q144 0 226.5 92t82.5 241z
" />
    <glyph glyph-name="b" unicode="b" horiz-adv-x="1239" 
d="M334 143v-143h-189v1495h189v-666q59 78 152.5 120t201.5 42q137 0 245 -67.5t166 -182.5t58 -256q0 -220 -130.5 -366t-338.5 -146q-231 0 -354 170zM961 483q0 145 -84.5 239.5t-223.5 94.5q-140 0 -224.5 -94.5t-84.5 -239.5q0 -149 82.5 -241t226.5 -92
q139 0 223.5 94t84.5 239z" />
    <glyph glyph-name="c" unicode="c" horiz-adv-x="1097" 
d="M80 483q0 141 63 256.5t181.5 183.5t269.5 68q150 0 266.5 -66t183.5 -184l-170 -86q-39 76 -112 119t-168 43q-146 0 -234 -94.5t-88 -239.5t87.5 -239t234.5 -94q95 0 168 42t112 117l170 -84q-67 -119 -183.5 -185.5t-266.5 -66.5q-228 0 -371 145.5t-143 364.5z" />
    <glyph glyph-name="d" unicode="d" horiz-adv-x="1236" 
d="M82 485q0 216 130.5 361t336.5 145q111 0 204.5 -42t149.5 -120v666h189v-1495h-189v143q-123 -170 -354 -170q-137 0 -244 67.5t-165 184t-58 260.5zM895 483q0 146 -84 240t-227 94q-139 0 -223.5 -94.5t-84.5 -239.5t84.5 -239t223.5 -94q144 0 227.5 92t83.5 241z
" />
    <glyph glyph-name="e" unicode="e" horiz-adv-x="1124" 
d="M1042 414h-766q19 -123 97 -196t198 -73q94 0 168 42t117 120l164 -74q-60 -124 -177.5 -192t-271.5 -68q-218 0 -353.5 145t-135.5 365t135.5 364t353.5 144q217 0 347.5 -143t130.5 -363q0 -27 -7 -71zM281 567h571q-19 119 -91.5 186.5t-189.5 67.5q-115 0 -192 -69.5
t-98 -184.5z" />
    <glyph glyph-name="f" unicode="f" horiz-adv-x="706" 
d="M401 1192v-227h283v-174h-283v-791h-188v791h-172v174h172v217q0 154 90 247t232 93q146 0 232.5 -84t84.5 -224h-184q0 60 -36 97t-97 37q-63 0 -98.5 -40.5t-35.5 -115.5z" />
    <glyph glyph-name="g" unicode="g" horiz-adv-x="1208" 
d="M131 -74h193q1 -95 71.5 -144.5t184.5 -49.5q136 0 216.5 74t80.5 204v154q-120 -164 -340 -164q-201 0 -328 142t-127 356q0 137 57 249.5t162 178t236 65.5q215 0 340 -162v136h188v-932q0 -219 -130.5 -344t-354.5 -125q-194 0 -322 94q-127 95 -127 268zM866 498
q0 139 -80.5 229t-214.5 90q-133 0 -215 -90t-82 -229q0 -140 80 -232q83 -92 217 -92t214.5 91t80.5 233z" />
    <glyph glyph-name="h" unicode="h" horiz-adv-x="1150" 
d="M145 1495h183v-653q98 149 307 149q179 0 284 -119t105 -305v-567h-188v549q0 119 -67.5 191.5t-182.5 72.5q-116 0 -184 -72.5t-68 -191.5v-549h-189v1495z" />
    <glyph glyph-name="i" unicode="i" horiz-adv-x="479" 
d="M98 1268q0 61 40.5 99t101.5 38t101 -38t40 -99q0 -59 -41.5 -97t-99.5 -38q-61 0 -101.5 38t-40.5 97zM145 965h189v-965h-189v965z" />
    <glyph glyph-name="j" unicode="j" horiz-adv-x="479" 
d="M100 1272q0 59 39.5 96t100.5 37q58 0 98.5 -37t40.5 -96t-40.5 -97t-98.5 -38t-99 38t-41 97zM145 -410v1375h189v-1375h-189z" />
    <glyph glyph-name="k" unicode="k" horiz-adv-x="1056" 
d="M145 0v1495h189v-1057l416 527h227l-328 -406l389 -559h-221l-293 424h-190v-424h-189z" />
    <glyph glyph-name="l" unicode="l" horiz-adv-x="479" 
d="M145 0v1495h189v-1495h-189z" />
    <glyph glyph-name="m" unicode="m" horiz-adv-x="1765" 
d="M145 0v965h172v-131q92 151 301 151q105 0 185.5 -46.5t124.5 -133.5q88 180 332 180q169 0 273.5 -116t104.5 -298v-571h-188v543q0 120 -62 192t-171 72q-105 0 -168.5 -72.5t-63.5 -191.5v-543h-188v543q0 120 -62 192t-170 72t-169.5 -72t-61.5 -192v-543h-189z" />
    <glyph glyph-name="n" unicode="n" horiz-adv-x="1153" 
d="M145 965h181v-123q98 149 309 149q181 0 285 -119q106 -118 106 -307v-565h-188v549q0 119 -68 191.5t-184 72.5t-184 -72.5t-68 -191.5v-549h-189v965z" />
    <glyph glyph-name="o" unicode="o" horiz-adv-x="1187" 
d="M80 485q0 140 64.5 255t183 183t266.5 68t266.5 -68t183 -183t64.5 -255q0 -219 -144.5 -365.5t-369.5 -146.5t-369.5 146.5t-144.5 365.5zM918 485q0 141 -91 238q-88 94 -233 94q-146 0 -234 -94t-88 -238q0 -147 88 -241t234 -94q147 0 235.5 93t88.5 242z" />
    <glyph glyph-name="p" unicode="p" horiz-adv-x="1236" 
d="M145 -410v1375h189v-144q123 170 354 170q136 0 243.5 -68.5t165.5 -184.5t58 -257q0 -220 -129 -364t-338 -144q-111 0 -202.5 41t-151.5 119v-543h-189zM961 479q0 148 -84.5 242t-223.5 94q-144 0 -227.5 -93t-83.5 -243q0 -146 84 -239t227 -93q139 0 223.5 93.5
t84.5 238.5z" />
    <glyph glyph-name="q" unicode="q" horiz-adv-x="1236" 
d="M903 -410v543q-60 -77 -152 -118.5t-202 -41.5q-208 0 -338.5 145t-130.5 363q0 216 131 363t338 147q110 0 201.5 -43t152.5 -127v144h189v-1375h-189zM893 479q0 149 -83 242.5t-226 93.5q-141 0 -225.5 -94t-84.5 -242q0 -145 85 -238.5t225 -93.5t224.5 93.5
t84.5 238.5z" />
    <glyph glyph-name="r" unicode="r" horiz-adv-x="843" 
d="M145 0v965h189v-107q58 121 213 121q129 0 199 -84t65 -227h-186q2 68 -35.5 107.5t-104.5 39.5q-71 0 -111 -51.5t-40 -140.5v-623h-189z" />
    <glyph glyph-name="s" unicode="s" horiz-adv-x="888" 
d="M61 203l162 76q26 -67 84.5 -103.5t138.5 -36.5q77 0 128 34t51 93q0 100 -146 144l-117 32q-253 76 -253 277q0 120 99 195t234 75q114 0 199 -46t123 -132l-162 -74q-41 86 -160 86q-60 0 -98.5 -26t-38.5 -74q0 -42 31.5 -68t93.5 -45l107 -30q134 -36 208 -114
t74 -192q0 -135 -109 -218t-264 -83q-143 0 -248 62.5t-137 167.5z" />
    <glyph glyph-name="t" unicode="t" horiz-adv-x="753" 
d="M416 1294v-329h321v-172h-321v-793h-189v793h-196l303 501h82z" />
    <glyph glyph-name="u" unicode="u" horiz-adv-x="1130" 
d="M819 406v559h189v-574q0 -187 -124 -302.5t-319 -115.5t-318.5 115t-123.5 303v574h188v-559q0 -119 69 -191t185 -72t185 72t69 191z" />
    <glyph glyph-name="v" unicode="v" horiz-adv-x="1099" 
d="M23 965h213l315 -648l313 648h213l-487 -971h-84z" />
    <glyph glyph-name="w" unicode="w" horiz-adv-x="1652" 
d="M457 -12l-418 977h213l250 -607l291 621h65l291 -621l252 607h215l-420 -977h-66l-303 637l-305 -637h-65z" />
    <glyph glyph-name="x" unicode="x" horiz-adv-x="1050" 
d="M14 0l365 496l-342 469h239l250 -349l250 349h238l-340 -469l362 -496h-239l-271 375l-272 -375h-240z" />
    <glyph glyph-name="y" unicode="y" horiz-adv-x="1097" 
d="M862 965h207l-567 -1375h-195l158 392l-438 983h206l328 -748z" />
    <glyph glyph-name="z" unicode="z" horiz-adv-x="966" 
d="M43 0l530 791h-491v174h823l-530 -791h536v-174h-868z" />
    <glyph glyph-name="braceleft" unicode="{" horiz-adv-x="649" 
d="M201 895v412q0 181 63 260.5t209 79.5q75 0 125 -15v-151q-52 10 -88 10q-76 0 -102.5 -47.5t-26.5 -173.5v-416q0 -78 -38.5 -130.5t-100.5 -66.5q62 -14 100.5 -66t38.5 -130v-416q0 -126 26.5 -173.5t102.5 -47.5q36 0 88 10v-151q-49 -15 -125 -15
q-147 0 -209.5 76.5t-62.5 255.5v420q0 69 -37.5 109t-100.5 40v176q63 0 100.5 40.5t37.5 109.5z" />
    <glyph glyph-name="bar" unicode="|" horiz-adv-x="546" 
d="M373 1434v-1844h-199v1844h199z" />
    <glyph glyph-name="braceright" unicode="}" horiz-adv-x="649" 
d="M586 745v-176q-65 0 -101 -39.5t-36 -109.5v-420q0 -179 -63 -255.5t-210 -76.5q-76 0 -125 15v151q52 -10 88 -10q76 0 102.5 47.5t26.5 173.5v416q0 77 39 129.5t101 66.5q-62 14 -101 66.5t-39 130.5v416q0 126 -26.5 173.5t-102.5 47.5q-36 0 -88 -10v151
q50 15 125 15q146 0 209.5 -79.5t63.5 -260.5v-412q0 -70 36 -110t101 -40z" />
    <glyph glyph-name="asciitilde" unicode="~" 
d="M600 496q-81 26 -125 35.5t-92 9.5q-127 0 -258 -82v170q113 76 254 76q102 0 254 -50q81 -25 125 -35t90 -10q130 0 258 84v-172q-119 -76 -254 -76q-100 0 -252 50z" />
    <glyph glyph-name="exclamdown" unicode="&#xa1;" horiz-adv-x="538" 
d="M422 938q0 -65 -45 -106t-109 -41q-63 0 -106 41t-43 106q0 62 43.5 104.5t105.5 42.5q64 0 109 -42.5t45 -104.5zM354 612l27 -989h-223l26 989h170z" />
    <glyph glyph-name="cent" unicode="&#xa2;" 
d="M950 395l160 -78q-56 -103 -153 -167.5t-224 -81.5v-197h-172v199q-193 30 -310.5 173t-117.5 337q0 192 117 333.5t309 171.5v205h176v-200q126 -17 222.5 -82t152.5 -166l-160 -78q-43 79 -120 123.5t-175 44.5q-152 0 -247 -101.5t-95 -250.5q0 -150 95 -251.5
t247 -101.5q98 0 175 44.5t120 123.5z" />
    <glyph glyph-name="sterling" unicode="&#xa3;" horiz-adv-x="1226" 
d="M446 618v-452h658v-166h-981v166h123v452h-123v168h123v179q0 220 123.5 357.5t335.5 137.5q162 0 271 -76t161 -215l-174 -79q-38 91 -98 136.5t-154 45.5q-128 0 -196.5 -82.5t-68.5 -224.5v-179h535v-168h-535z" />
    <glyph glyph-name="currency" unicode="&#xa4;" 
d="M952 399l148 -149l-139 -139l-150 149q-83 -57 -201 -57q-110 0 -198 55l-148 -147l-139 141l145 143q-61 94 -61 203q0 114 63 203l-147 145l139 141l150 -149q86 57 196 57t199 -59l152 151l139 -141l-148 -147q62 -86 62 -201q0 -116 -62 -199zM836 598q0 93 -65 158
t-161 65q-97 0 -160 -64t-63 -159t63 -159t160 -64q96 0 161 65t65 158z" />
    <glyph glyph-name="yen" unicode="&#xa5;" horiz-adv-x="1251" 
d="M1231 1434l-250 -476h149v-167h-239l-78 -148h317v-166h-403v-477h-199v477h-405v166h317l-78 148h-239v167h149l-252 476h234l375 -744l370 744h232z" />
    <glyph glyph-name="brokenbar" unicode="&#xa6;" horiz-adv-x="546" 
d="M373 1434v-777h-199v777h199zM373 399v-782h-199v782h199z" />
    <glyph glyph-name="section" unicode="&#xa7;" horiz-adv-x="1116" 
d="M360 950q-91 37 -145.5 104.5t-54.5 155.5q0 132 119 217.5t288 85.5q161 0 281 -71t156 -193l-152 -61q-24 78 -102.5 126t-174.5 48q-102 0 -167.5 -43.5t-65.5 -116.5q0 -65 52.5 -110.5t144.5 -69.5l135 -33q160 -30 255 -136.5t95 -248.5q0 -113 -70.5 -206.5
t-191.5 -135.5q87 -36 140.5 -106t53.5 -156q0 -136 -118 -219.5t-289 -83.5q-160 0 -280 71t-156 193l151 62q23 -78 103 -125.5t176 -47.5q101 0 166 43.5t65 116.5q0 128 -196 178l-127 31q-165 31 -262 136t-97 249q0 117 72 210t196 136zM557 365q127 0 204 67.5
t77 171.5q0 102 -77.5 170t-203.5 68t-203.5 -68t-77.5 -170q0 -104 77 -171.5t204 -67.5z" />
    <glyph glyph-name="dieresis" unicode="&#xa8;" 
d="M260 1348q0 56 37 91.5t92 35.5t92 -35.5t37 -91.5q0 -55 -37 -90t-92 -35t-92 35t-37 90zM711 1348q0 56 38 91.5t93 35.5t91 -35.5t36 -91.5q0 -55 -36 -90t-91 -35t-93 35t-38 90z" />
    <glyph glyph-name="copyright" unicode="&#xa9;" horiz-adv-x="1859" 
d="M90 762q-3 169 63 325.5t178.5 270t270.5 180.5t330 64q171 3 328 -64t269.5 -180.5t178 -270t61.5 -325.5q4 -170 -61.5 -327.5t-178 -271.5t-269.5 -181t-328 -64q-172 -3 -330 64t-270.5 181t-178.5 271t-63 328zM1622 762q3 191 -87.5 352.5t-250.5 255t-352 90.5
q-192 3 -353 -90.5t-252.5 -255t-88.5 -352.5q-2 -143 51.5 -273.5t146 -225.5t222.5 -150.5t274 -53.5q144 -2 273.5 53.5t221 150.5t144.5 225.5t51 273.5zM510 760q0 183 116.5 305.5t305.5 122.5q127 0 223.5 -57.5t151.5 -161.5l-133 -64q-36 64 -98 100.5t-142 36.5
q-127 0 -202 -80t-75 -202t75 -202.5t202 -80.5q80 0 142 36.5t98 100.5l133 -63q-55 -104 -151.5 -161.5t-223.5 -57.5q-189 0 -305.5 122.5t-116.5 305.5z" />
    <glyph glyph-name="ordfeminine" unicode="&#xaa;" horiz-adv-x="727" 
d="M90 981q0 90 66 135t180 45h151v23q0 133 -137 133q-95 0 -125 -88l-98 41q25 67 85 104t140 37q114 0 180 -59.5t66 -167.5v-369h-102v100q-66 -112 -209 -112q-87 0 -142 47.5t-55 130.5zM489 1085h-147q-62 0 -99.5 -25t-37.5 -73t32.5 -73t88.5 -25q72 0 117.5 56.5
t45.5 139.5z" />
    <glyph glyph-name="guillemotleft" unicode="&#xab;" horiz-adv-x="1181" 
d="M631 137h-215l-342 438l342 437h215l-340 -437zM1102 137h-215l-344 438l344 437h215l-340 -437z" />
    <glyph glyph-name="logicalnot" unicode="&#xac;" 
d="M82 690v166h1018v-565h-191v399h-827z" />
    <glyph glyph-name="uni00AD" unicode="&#xad;" horiz-adv-x="817" 
d="M121 662h575v-170h-575v170z" />
    <glyph glyph-name="registered" unicode="&#xae;" horiz-adv-x="1054" 
d="M90 1126q0 186 126 310.5t312 124.5q183 0 311 -126t128 -309t-128 -308.5t-311 -125.5q-186 0 -312 124t-126 310zM872 1126q0 152 -96 248t-248 96q-154 0 -250 -95t-96 -249q0 -150 97 -247t249 -97q151 0 248 97q96 96 96 247zM352 920v413h219q57 0 95.5 -34.5
t38.5 -88.5q0 -44 -26 -76t-65 -40l105 -174h-101l-96 167h-84v-167h-86zM438 1161h119q25 0 40 13t15 36t-15 36.5t-40 13.5h-119v-99z" />
    <glyph glyph-name="overscore" unicode="&#xaf;" 
d="M285 1419h659v-178h-659v178z" />
    <glyph glyph-name="degree" unicode="&#xb0;" horiz-adv-x="851" 
d="M80 1128q0 142 98 242t248 100q145 0 246.5 -101.5t101.5 -240.5t-101.5 -240.5t-246.5 -101.5q-150 0 -248 100t-98 242zM641 1128q0 89 -62 152t-153 63q-93 0 -154 -62t-61 -153t61 -153t154 -62q91 0 153 63t62 152z" />
    <glyph glyph-name="plusminus" unicode="&#xb1;" 
d="M117 778v166h411v414h172v-414h412v-166h-412v-370h-172v370h-411zM117 90v166h995v-166h-995z" />
    <glyph glyph-name="uni00B2" unicode="&#xb2;" horiz-adv-x="630" 
d="M27 803l333 446q54 69 54 133q0 56 -29.5 87.5t-83.5 31.5t-84.5 -32.5t-30.5 -86.5h-114q-1 103 62.5 167.5t166.5 64.5q105 0 170.5 -62t65.5 -161q0 -85 -78 -195l-217 -285h340v-108h-555z" />
    <glyph glyph-name="uni00B3" unicode="&#xb3;" horiz-adv-x="671" 
d="M35 950l92 68q25 -54 74.5 -88.5t115.5 -34.5q81 0 132 46t51 118q0 69 -53.5 116.5t-137.5 47.5h-76l150 262h-274v108h452l-162 -284q96 -14 157.5 -81.5t61.5 -168.5q0 -121 -83.5 -199t-212.5 -78q-102 0 -176 46t-111 122z" />
    <glyph glyph-name="acute" unicode="&#xb4;" 
d="M422 1141l125 311h254l-234 -311h-145z" />
    <glyph glyph-name="uni00B5" unicode="&#xb5;" horiz-adv-x="1220" 
d="M862 965h189v-965h-183v123q-99 -150 -309 -150q-115 0 -203 52v-435h-188v1375h188v-549q0 -119 68 -191.5t184 -72.5t185 72.5t69 191.5v549z" />
    <glyph glyph-name="paragraph" unicode="&#xb6;" horiz-adv-x="1273" 
d="M682 -121h-199v688h-39q-170 0 -274 117.5t-104 306.5q0 193 105 318t273 125h238v-1555zM844 1434h346v-185h-148v-1370h-198v1555z" />
    <glyph glyph-name="middot" unicode="&#xb7;" horiz-adv-x="530" 
d="M113 657q0 63 45 105.5t108 42.5q62 0 107 -43t45 -105t-45 -104.5t-107 -42.5q-64 0 -108.5 42.5t-44.5 104.5z" />
    <glyph glyph-name="cedilla" unicode="&#xb8;" horiz-adv-x="1216" 
d="M412 -348l43 84q42 -25 75 -25q36 0 57 16t21 46q0 59 -86 80l-73 14l102 176l104 -43l-49 -76q60 -14 97.5 -56t37.5 -99q0 -70 -53 -112t-133 -42q-76 0 -143 37z" />
    <glyph glyph-name="uni00B9" unicode="&#xb9;" horiz-adv-x="403" 
d="M170 801v575h-145l178 228h90v-803h-123z" />
    <glyph glyph-name="ordmasculine" unicode="&#xba;" horiz-adv-x="792" 
d="M82 1104q0 124 88.5 215.5t224.5 91.5t225 -91.5t89 -215.5q0 -121 -89.5 -212t-224.5 -91q-136 0 -224.5 89.5t-88.5 213.5zM598 1106q0 82 -58.5 140.5t-144.5 58.5q-85 0 -142.5 -58t-57.5 -141t57.5 -142t142.5 -59t144 59t59 142z" />
    <glyph glyph-name="guillemotright" unicode="&#xbb;" horiz-adv-x="1181" 
d="M80 137l340 438l-340 437h215l342 -437l-342 -438h-215zM551 137l340 438l-340 437h215l342 -437l-342 -438h-215z" />
    <glyph glyph-name="onequarter" unicode="&#xbc;" horiz-adv-x="1363" 
d="M250 639v575h-146l179 228h90v-803h-123zM100 0l992 1434h139l-991 -1434h-140zM1169 805v-580h101v-108h-101v-123h-112v123h-420l457 688h75zM829 223h228v338z" />
    <glyph glyph-name="onehalf" unicode="&#xbd;" horiz-adv-x="1435" 
d="M250 639v575h-146l179 228h90v-803h-123zM100 0l992 1434h139l-991 -1434h-140zM801 2l334 447q53 68 53 133q0 56 -29.5 87t-83.5 31t-84 -32t-30 -86h-115q-1 103 62.5 167t166.5 64q105 0 170.5 -62t65.5 -161q0 -85 -78 -195l-217 -284h340v-109h-555z" />
    <glyph glyph-name="threequarters" unicode="&#xbe;" horiz-adv-x="1542" 
d="M61 788l93 68q25 -54 74.5 -88.5t115.5 -34.5q81 0 131.5 46t50.5 118q0 69 -53 116.5t-137 47.5h-76l150 262h-275v109h453l-162 -285q96 -14 157.5 -81.5t61.5 -168.5q0 -121 -84 -198.5t-213 -77.5q-102 0 -176 45.5t-111 121.5zM272 0l992 1434h139l-991 -1434h-140z
M1341 805v-580h101v-108h-101v-123h-112v123h-420l457 688h75zM1001 223h228v338z" />
    <glyph glyph-name="questiondown" unicode="&#xbf;" horiz-adv-x="1085" 
d="M750 936q0 -65 -45 -106.5t-109 -41.5q-63 0 -107.5 41.5t-44.5 106.5q0 62 45 104.5t107 42.5q64 0 109 -42.5t45 -104.5zM594 647l119 -139l-203 -166q-126 -107 -176 -172q-53 -65 -53 -150q0 -105 77.5 -173t204.5 -68q120 0 200.5 66t94.5 167l170 -41
q-22 -161 -149.5 -267.5t-315.5 -106.5q-202 0 -338.5 122t-136.5 297q0 95 35 170q35 74 96 138q46 46 187 163z" />
    <glyph glyph-name="Agrave" unicode="&#xc0;" horiz-adv-x="1409" 
d="M23 0l624 1448h115l624 -1448h-215l-124 295h-685l-126 -295h-213zM436 475h537l-268 627zM784 1577h-149l-232 299h267z" />
    <glyph glyph-name="Aacute" unicode="&#xc1;" horiz-adv-x="1409" 
d="M23 0l624 1448h115l624 -1448h-215l-124 295h-685l-126 -295h-213zM436 475h537l-268 627zM635 1577l115 299h266l-234 -299h-147z" />
    <glyph glyph-name="Acircumflex" unicode="&#xc2;" horiz-adv-x="1409" 
d="M23 0l624 1448h115l624 -1448h-215l-124 295h-685l-126 -295h-213zM436 475h537l-268 627zM346 1573l359 303l358 -303h-236l-122 110l-123 -110h-236z" />
    <glyph glyph-name="Atilde" unicode="&#xc3;" horiz-adv-x="1409" 
d="M23 0l624 1448h115l624 -1448h-215l-124 295h-685l-126 -295h-213zM436 475h537l-268 627zM686 1636q-70 41 -96 41q-79 0 -70 -98h-149q-8 112 43.5 178t152.5 66q57 0 162 -62q71 -41 98 -41q71 0 68 103h147q8 -115 -42.5 -180.5t-153.5 -65.5q-33 0 -66.5 13
t-93.5 46z" />
    <glyph glyph-name="Adieresis" unicode="&#xc4;" horiz-adv-x="1409" 
d="M23 0l624 1448h115l624 -1448h-215l-124 295h-685l-126 -295h-213zM436 475h537l-268 627zM367 1714q0 56 37.5 92.5t93.5 36.5q55 0 92 -36.5t37 -92.5q0 -55 -37 -91t-92 -36t-93 36t-38 91zM780 1714q0 56 38.5 92.5t94.5 36.5q55 0 92 -36.5t37 -92.5q0 -55 -37 -91
t-92 -36t-94 36t-39 91z" />
    <glyph glyph-name="Aring" unicode="&#xc5;" horiz-adv-x="1409" 
d="M772 1421l614 -1421h-215l-124 295h-685l-126 -295h-213l614 1423q-74 20 -119 78t-45 131q0 92 67 154.5t165 62.5t162.5 -62t64.5 -155q0 -75 -44 -133t-116 -78zM702 1540q42 0 69.5 25.5t27.5 66.5q0 38 -28 64t-69 26t-68.5 -26t-27.5 -64q0 -41 27 -66.5t69 -25.5z
M436 475h537l-268 627z" />
    <glyph glyph-name="AE" unicode="&#xc6;" horiz-adv-x="2066" 
d="M-49 0l1042 1434h969v-185h-696v-444h637v-160h-637v-461h696v-184h-895v311h-661l-224 -311h-231zM524 473h543v752z" />
    <glyph glyph-name="Ccedilla" unicode="&#xc7;" horiz-adv-x="1558" 
d="M1321 442l180 -92q-88 -167 -247 -266t-367 -109l-31 -51q60 -14 97.5 -56t37.5 -99q0 -70 -53 -112t-133 -42q-76 0 -146 37l46 84q36 -25 75 -25q34 0 55 16t21 46q0 59 -84 80l-76 14l66 110q-196 15 -350.5 121t-237 269t-80.5 350q-2 148 52.5 284.5t151.5 238.5
t239 162t305 58q224 0 395.5 -100.5t263.5 -276.5l-180 -92q-64 132 -188 206.5t-291 74.5q-122 2 -226.5 -43.5t-174 -123t-108 -179t-36.5 -209.5q-2 -108 36.5 -209.5t108 -179t174 -123t226.5 -43.5q167 0 291 74t188 206z" />
    <glyph glyph-name="Egrave" unicode="&#xc8;" horiz-adv-x="1220" 
d="M184 1434h932v-185h-733v-432h676v-182h-676v-451h733v-184h-932v1434zM727 1577h-149l-232 299h266z" />
    <glyph glyph-name="Eacute" unicode="&#xc9;" horiz-adv-x="1220" 
d="M184 1434h932v-185h-733v-432h676v-182h-676v-451h733v-184h-932v1434zM580 1577l114 299h267l-234 -299h-147z" />
    <glyph glyph-name="Ecircumflex" unicode="&#xca;" horiz-adv-x="1220" 
d="M184 1434h932v-185h-733v-432h676v-182h-676v-451h733v-184h-932v1434zM289 1573l358 303l359 -303h-236l-123 110l-123 -110h-235z" />
    <glyph glyph-name="Edieresis" unicode="&#xcb;" horiz-adv-x="1220" 
d="M184 1434h932v-185h-733v-432h676v-182h-676v-451h733v-184h-932v1434zM309 1714q0 56 37.5 92.5t93.5 36.5q55 0 92 -36.5t37 -92.5q0 -55 -37 -91t-92 -36t-93 36t-38 91zM723 1714q0 56 38.5 92.5t94.5 36.5q55 0 92 -36.5t37 -92.5q0 -55 -37 -91t-92 -36t-94 36
t-39 91z" />
    <glyph glyph-name="Igrave" unicode="&#xcc;" horiz-adv-x="569" 
d="M186 1434h199v-1434h-199v1434zM365 1577h-150l-231 299h266z" />
    <glyph glyph-name="Iacute" unicode="&#xcd;" horiz-adv-x="569" 
d="M186 1434h199v-1434h-199v1434zM217 1577l115 299h266l-233 -299h-148z" />
    <glyph glyph-name="Icircumflex" unicode="&#xce;" horiz-adv-x="569" 
d="M186 1434h199v-1434h-199v1434zM-74 1573l359 303l358 -303h-235l-123 110l-123 -110h-236z" />
    <glyph glyph-name="Idieresis" unicode="&#xcf;" horiz-adv-x="569" 
d="M186 1434h199v-1434h-199v1434zM-53 1714q0 56 37.5 92.5t93.5 36.5q55 0 92 -36.5t37 -92.5q0 -55 -37 -91t-92 -36t-93 36t-38 91zM360 1714q0 56 39 92.5t95 36.5q55 0 92 -36.5t37 -92.5q0 -55 -37 -91t-92 -36t-94.5 36t-39.5 91z" />
    <glyph glyph-name="Eth" unicode="&#xd0;" horiz-adv-x="1540" 
d="M1444 717q1 -150 -52 -282.5t-148.5 -229.5t-235.5 -152t-303 -53h-519v635h-147v153h147v646h519q163 2 303 -53t235.5 -152t148.5 -229.5t52 -282.5zM1241 717q0 114 -37.5 211t-107.5 168.5t-175.5 112t-234.5 40.5h-301v-461h297v-153h-297v-451h301q172 0 299 70.5
t191.5 190t64.5 272.5z" />
    <glyph glyph-name="Ntilde" unicode="&#xd1;" horiz-adv-x="1597" 
d="M1296 -14l-911 1075l-2 -1061h-199v1448h117l909 -1075l2 1061h199v-1448h-115zM780 1622q-70 41 -96 41q-79 0 -70 -98h-149q-8 112 44 177.5t153 65.5q58 0 161 -61q71 -41 99 -41q70 0 67 102h148q8 -114 -43 -179.5t-154 -65.5q-33 0 -66.5 13t-93.5 46z" />
    <glyph glyph-name="Ograve" unicode="&#xd2;" horiz-adv-x="1685" 
d="M94 717q-2 148 53 284.5t152 238.5t239.5 162t305.5 58q163 2 305 -58t238.5 -162t151 -238.5t52.5 -284.5q2 -148 -52.5 -284.5t-151 -239.5t-238.5 -163t-305 -57q-163 -3 -305.5 57t-239.5 163t-152 239.5t-53 284.5zM1389 717q0 110 -38 210t-106.5 176.5
t-172.5 121.5t-228 45q-123 0 -227.5 -45t-173.5 -121.5t-107.5 -176.5t-38.5 -210q0 -111 38.5 -211t107.5 -176t173.5 -121t227.5 -45q124 0 228 45t172.5 121t106.5 176t38 211zM922 1583h-150l-231 299h266z" />
    <glyph glyph-name="Oacute" unicode="&#xd3;" horiz-adv-x="1685" 
d="M94 717q-2 148 53 284.5t152 238.5t239.5 162t305.5 58q163 2 305 -58t238.5 -162t151 -238.5t52.5 -284.5q2 -148 -52.5 -284.5t-151 -239.5t-238.5 -163t-305 -57q-163 -3 -305.5 57t-239.5 163t-152 239.5t-53 284.5zM1389 717q0 110 -38 210t-106.5 176.5
t-172.5 121.5t-228 45q-123 0 -227.5 -45t-173.5 -121.5t-107.5 -176.5t-38.5 -210q0 -111 38.5 -211t107.5 -176t173.5 -121t227.5 -45q124 0 228 45t172.5 121t106.5 176t38 211zM774 1583l115 299h266l-233 -299h-148z" />
    <glyph glyph-name="Ocircumflex" unicode="&#xd4;" horiz-adv-x="1685" 
d="M94 717q-2 148 53 284.5t152 238.5t239.5 162t305.5 58q163 2 305 -58t238.5 -162t151 -238.5t52.5 -284.5q2 -148 -52.5 -284.5t-151 -239.5t-238.5 -163t-305 -57q-163 -3 -305.5 57t-239.5 163t-152 239.5t-53 284.5zM1389 717q0 110 -38 210t-106.5 176.5
t-172.5 121.5t-228 45q-123 0 -227.5 -45t-173.5 -121.5t-107.5 -176.5t-38.5 -210q0 -111 38.5 -211t107.5 -176t173.5 -121t227.5 -45q124 0 228 45t172.5 121t106.5 176t38 211zM485 1579l359 303l358 -303h-235l-123 111l-123 -111h-236z" />
    <glyph glyph-name="Otilde" unicode="&#xd5;" horiz-adv-x="1685" 
d="M94 717q-2 148 53 284.5t152 238.5t239.5 162t305.5 58q163 2 305 -58t238.5 -162t151 -238.5t52.5 -284.5q2 -148 -52.5 -284.5t-151 -239.5t-238.5 -163t-305 -57q-163 -3 -305.5 57t-239.5 163t-152 239.5t-53 284.5zM1389 717q0 110 -38 210t-106.5 176.5
t-172.5 121.5t-228 45q-123 0 -227.5 -45t-173.5 -121.5t-107.5 -176.5t-38.5 -210q0 -111 38.5 -211t107.5 -176t173.5 -121t227.5 -45q124 0 228 45t172.5 121t106.5 176t38 211zM825 1642q-70 41 -96 41q-79 0 -70 -98h-149q-8 112 44 178t153 66q56 0 161 -62
q71 -41 99 -41q70 0 67 103h148q8 -114 -43 -180t-154 -66q-33 0 -66.5 13t-93.5 46z" />
    <glyph glyph-name="Odieresis" unicode="&#xd6;" horiz-adv-x="1685" 
d="M94 717q-2 148 53 284.5t152 238.5t239.5 162t305.5 58q163 2 305 -58t238.5 -162t151 -238.5t52.5 -284.5q2 -148 -52.5 -284.5t-151 -239.5t-238.5 -163t-305 -57q-163 -3 -305.5 57t-239.5 163t-152 239.5t-53 284.5zM1389 717q0 110 -38 210t-106.5 176.5
t-172.5 121.5t-228 45q-123 0 -227.5 -45t-173.5 -121.5t-107.5 -176.5t-38.5 -210q0 -111 38.5 -211t107.5 -176t173.5 -121t227.5 -45q124 0 228 45t172.5 121t106.5 176t38 211zM506 1720q0 56 37.5 92.5t93.5 36.5q55 0 92 -36.5t37 -92.5q0 -55 -37 -91t-92 -36t-93 36
t-38 91zM920 1720q0 56 38.5 92.5t94.5 36.5q55 0 92 -36.5t37 -92.5q0 -55 -37 -91t-92 -36t-94 36t-39 91z" />
    <glyph glyph-name="multiply" unicode="&#xd7;" 
d="M1038 279l-118 -121l-306 299l-299 -305l-118 118l299 303l-306 299l117 121l305 -299l301 307l117 -120l-297 -303z" />
    <glyph glyph-name="Oslash" unicode="&#xd8;" horiz-adv-x="1685" 
d="M1591 717q2 -148 -52.5 -284.5t-151 -239.5t-238.5 -163t-305 -57q-221 0 -395 103l-80 -105h-193l150 195q-111 105 -171.5 248.5t-60.5 302.5q-2 148 53 284.5t152 238.5t239.5 162t305.5 58q222 0 391 -100l76 98h194l-145 -190q110 -103 170.5 -246.5t60.5 -304.5z
M446 326l670 878q-123 66 -272 66q-123 0 -227.5 -45t-173.5 -121.5t-107.5 -176.5t-38.5 -210q0 -114 38 -215.5t111 -175.5zM1389 717q0 234 -150 393l-672 -879q122 -67 277 -67q124 0 228 45t172.5 121t106.5 176t38 211z" />
    <glyph glyph-name="Ugrave" unicode="&#xd9;" horiz-adv-x="1501" 
d="M166 535v899h199v-887q0 -172 104.5 -277.5t282.5 -105.5q177 0 281 105.5t104 277.5v887h198v-899q0 -118 -39.5 -220t-113 -178t-184.5 -120t-246 -44q-180 0 -314.5 75.5t-203 202t-68.5 284.5zM831 1544h-149l-231 299h266z" />
    <glyph glyph-name="Uacute" unicode="&#xda;" horiz-adv-x="1501" 
d="M166 535v899h199v-887q0 -172 104.5 -277.5t282.5 -105.5q177 0 281 105.5t104 277.5v887h198v-899q0 -118 -39.5 -220t-113 -178t-184.5 -120t-246 -44q-180 0 -314.5 75.5t-203 202t-68.5 284.5zM682 1544l115 299h266l-234 -299h-147z" />
    <glyph glyph-name="Ucircumflex" unicode="&#xdb;" horiz-adv-x="1501" 
d="M166 535v899h199v-887q0 -172 104.5 -277.5t282.5 -105.5q177 0 281 105.5t104 277.5v887h198v-899q0 -118 -39.5 -220t-113 -178t-184.5 -120t-246 -44q-180 0 -314.5 75.5t-203 202t-68.5 284.5zM393 1540l359 303l358 -303h-236l-122 111l-123 -111h-236z" />
    <glyph glyph-name="Udieresis" unicode="&#xdc;" horiz-adv-x="1501" 
d="M166 535v899h199v-887q0 -172 104.5 -277.5t282.5 -105.5q177 0 281 105.5t104 277.5v887h198v-899q0 -118 -39.5 -220t-113 -178t-184.5 -120t-246 -44q-180 0 -314.5 75.5t-203 202t-68.5 284.5zM414 1681q0 56 37.5 92.5t93.5 36.5q55 0 92 -36.5t37 -92.5
q0 -55 -37 -91t-92 -36t-93 36t-38 91zM827 1681q0 56 39 92.5t95 36.5q55 0 92 -36.5t37 -92.5q0 -55 -37 -91t-92 -36t-94.5 36t-39.5 91z" />
    <glyph glyph-name="Yacute" unicode="&#xdd;" horiz-adv-x="1353" 
d="M578 467l-545 967h231l414 -744l409 744h234l-545 -967v-467h-198v467zM608 1538l115 299h266l-233 -299h-148z" />
    <glyph glyph-name="Thorn" unicode="&#xde;" horiz-adv-x="1310" 
d="M1225 721q0 -210 -138 -334.5t-362 -124.5h-340v-262h-199v1434h199v-254h340q225 0 362.5 -123.5t137.5 -335.5zM1020 721q0 134 -86.5 205t-237.5 71h-311v-555h311q149 0 236.5 72.5t87.5 206.5z" />
    <glyph glyph-name="germandbls" unicode="&#xdf;" horiz-adv-x="1212" 
d="M1163 31q0 -134 -64.5 -241t-176 -166.5t-248.5 -59.5q-172 0 -312 88l76 158q48 -31 111.5 -51.5t114.5 -20.5q138 0 222.5 79.5t84.5 213.5q0 132 -84.5 209t-222.5 77h-148l268 471h-450v-788h-189v1221q0 138 87 219.5t231 81.5q70 0 125 -19v-155q-71 12 -113 12
q-68 0 -104.5 -41t-36.5 -111v-243h741l-280 -486q167 -35 267.5 -157t100.5 -291z" />
    <glyph glyph-name="agrave" unicode="&#xe0;" horiz-adv-x="1234" 
d="M80 485q0 214 131.5 360t337.5 146q110 0 201.5 -43t152.5 -127v144h189v-965h-189v143q-126 -170 -354 -170q-206 0 -337.5 147t-131.5 365zM893 483q0 145 -84.5 239.5t-224.5 94.5q-144 0 -228 -96q-82 -94 -82 -238q0 -145 85 -239t225 -94q144 0 226.5 92t82.5 241z
M696 1143h-145l-223 299h254z" />
    <glyph glyph-name="aacute" unicode="&#xe1;" horiz-adv-x="1234" 
d="M80 485q0 214 131.5 360t337.5 146q110 0 201.5 -43t152.5 -127v144h189v-965h-189v143q-126 -170 -354 -170q-206 0 -337.5 147t-131.5 365zM893 483q0 145 -84.5 239.5t-224.5 94.5q-144 0 -228 -96q-82 -94 -82 -238q0 -145 85 -239t225 -94q144 0 226.5 92t82.5 241z
M539 1133l114 297h256l-225 -297h-145z" />
    <glyph glyph-name="acircumflex" unicode="&#xe2;" horiz-adv-x="1234" 
d="M80 485q0 214 131.5 360t337.5 146q110 0 201.5 -43t152.5 -127v144h189v-965h-189v143q-126 -170 -354 -170q-206 0 -337.5 147t-131.5 365zM893 483q0 145 -84.5 239.5t-224.5 94.5q-144 0 -228 -96q-82 -94 -82 -238q0 -145 85 -239t225 -94q144 0 226.5 92t82.5 241z
M270 1124l348 303l349 -303h-234l-115 109l-114 -109h-234z" />
    <glyph glyph-name="atilde" unicode="&#xe3;" horiz-adv-x="1234" 
d="M80 485q0 214 131.5 360t337.5 146q110 0 201.5 -43t152.5 -127v144h189v-965h-189v143q-126 -170 -354 -170q-206 0 -337.5 147t-131.5 365zM893 483q0 145 -84.5 239.5t-224.5 94.5q-144 0 -228 -96q-82 -94 -82 -238q0 -145 85 -239t225 -94q144 0 226.5 92t82.5 241z
M606 1171q-70 41 -106 41q-71 0 -68 -90h-141q-2 10 -2 45q0 90 47.5 138.5t142.5 48.5q34 0 64 -11.5t90 -42.5q70 -40 104 -40q73 0 70 90h141q2 -10 2 -41q0 -191 -192 -191q-22 0 -47.5 7.5t-40 14t-64.5 31.5z" />
    <glyph glyph-name="adieresis" unicode="&#xe4;" horiz-adv-x="1234" 
d="M80 485q0 214 131.5 360t337.5 146q110 0 201.5 -43t152.5 -127v144h189v-965h-189v143q-126 -170 -354 -170q-206 0 -337.5 147t-131.5 365zM893 483q0 145 -84.5 239.5t-224.5 94.5q-144 0 -228 -96q-82 -94 -82 -238q0 -145 85 -239t225 -94q144 0 226.5 92t82.5 241z
M295 1260q0 54 37 88t92 34t90 -33.5t35 -88.5q0 -53 -36.5 -88t-88.5 -35q-55 0 -92 35t-37 88zM686 1260q0 55 37.5 88.5t93.5 33.5q55 0 90 -33.5t35 -88.5q0 -53 -36.5 -88t-88.5 -35q-56 0 -93.5 34.5t-37.5 88.5z" />
    <glyph glyph-name="aring" unicode="&#xe5;" horiz-adv-x="1234" 
d="M80 485q0 214 131.5 360t337.5 146q110 0 201.5 -43t152.5 -127v144h189v-965h-189v143q-126 -170 -354 -170q-206 0 -337.5 147t-131.5 365zM893 483q0 145 -84.5 239.5t-224.5 94.5q-144 0 -228 -96q-82 -94 -82 -238q0 -145 85 -239t225 -94q144 0 226.5 92t82.5 241z
M412 1309q0 84 60 139t149 55q88 0 146 -55t58 -139q0 -85 -58 -142t-146 -57t-148.5 57.5t-60.5 141.5zM707 1309q0 35 -24.5 58.5t-61.5 23.5q-38 0 -64.5 -23.5t-26.5 -58.5q0 -36 26 -60t65 -24q37 0 61.5 23.5t24.5 60.5z" />
    <glyph glyph-name="ae" unicode="&#xe6;" horiz-adv-x="1759" 
d="M76 276q0 139 113.5 215t302.5 76h260v29q0 221 -220 221q-179 0 -233 -149l-162 73q41 117 146.5 183.5t248.5 66.5q124 0 212.5 -53t129.5 -150q50 96 147.5 149.5t215.5 53.5q202 0 324 -139.5t122 -359.5q0 -49 -6 -70h-727q14 -126 88 -201.5t193 -75.5
q183 0 260 160l158 -74q-52 -123 -159.5 -190.5t-258.5 -67.5q-126 0 -229 65.5t-154 172.5q-48 -107 -156.5 -172.5t-247.5 -65.5q-165 0 -266.5 79.5t-101.5 223.5zM952 575h543q-14 118 -82 183t-184 65q-114 0 -186 -65.5t-91 -182.5zM752 418h-260q-220 0 -220 -139
q0 -68 50 -104t137 -36q133 0 213 78t80 201z" />
    <glyph glyph-name="ccedilla" unicode="&#xe7;" horiz-adv-x="1097" 
d="M874 309l170 -84q-62 -109 -168 -176t-239 -74l-31 -49q58 -12 94.5 -53t36.5 -96q0 -67 -51.5 -107.5t-128.5 -40.5q-76 0 -141 35l43 80q36 -25 73 -25q33 0 53.5 16.5t20.5 45.5q0 30 -22 50t-60 26l-71 14l63 106q-197 24 -316.5 165.5t-119.5 340.5q0 141 63 256.5
t181.5 183.5t269.5 68q150 0 266.5 -66t183.5 -184l-170 -86q-39 76 -112 119t-168 43q-146 0 -234 -94.5t-88 -239.5t87.5 -239t234.5 -94q95 0 168 42t112 117z" />
    <glyph glyph-name="egrave" unicode="&#xe8;" horiz-adv-x="1124" 
d="M1042 414h-766q19 -123 97 -196t198 -73q94 0 168 42t117 120l164 -74q-60 -124 -177.5 -192t-271.5 -68q-218 0 -353.5 145t-135.5 365t135.5 364t353.5 144q217 0 347.5 -143t130.5 -363q0 -27 -7 -71zM281 567h571q-19 119 -91.5 186.5t-189.5 67.5q-115 0 -192 -69.5
t-98 -184.5zM649 1143h-145l-223 299h254z" />
    <glyph glyph-name="eacute" unicode="&#xe9;" horiz-adv-x="1124" 
d="M1042 414h-766q19 -123 97 -196t198 -73q94 0 168 42t117 120l164 -74q-60 -124 -177.5 -192t-271.5 -68q-218 0 -353.5 145t-135.5 365t135.5 364t353.5 144q217 0 347.5 -143t130.5 -363q0 -27 -7 -71zM281 567h571q-19 119 -91.5 186.5t-189.5 67.5q-115 0 -192 -69.5
t-98 -184.5zM489 1133l115 297h256l-225 -297h-146z" />
    <glyph glyph-name="ecircumflex" unicode="&#xea;" horiz-adv-x="1124" 
d="M1042 414h-766q19 -123 97 -196t198 -73q94 0 168 42t117 120l164 -74q-60 -124 -177.5 -192t-271.5 -68q-218 0 -353.5 145t-135.5 365t135.5 364t353.5 144q217 0 347.5 -143t130.5 -363q0 -27 -7 -71zM281 567h571q-19 119 -91.5 186.5t-189.5 67.5q-115 0 -192 -69.5
t-98 -184.5zM223 1124l348 303l349 -303h-234l-115 109l-114 -109h-234z" />
    <glyph glyph-name="edieresis" unicode="&#xeb;" horiz-adv-x="1124" 
d="M1042 414h-766q19 -123 97 -196t198 -73q94 0 168 42t117 120l164 -74q-60 -124 -177.5 -192t-271.5 -68q-218 0 -353.5 145t-135.5 365t135.5 364t353.5 144q217 0 347.5 -143t130.5 -363q0 -27 -7 -71zM281 567h571q-19 119 -91.5 186.5t-189.5 67.5q-115 0 -192 -69.5
t-98 -184.5zM248 1260q0 54 37 88t92 34t90 -33.5t35 -88.5q0 -53 -36.5 -88t-88.5 -35q-55 0 -92 35t-37 88zM639 1260q0 55 37.5 88.5t93.5 33.5q55 0 90 -33.5t35 -88.5q0 -53 -36.5 -88t-88.5 -35q-56 0 -93.5 34.5t-37.5 88.5z" />
    <glyph glyph-name="igrave" unicode="&#xec;" horiz-adv-x="479" 
d="M145 965h189v-965h-189v965zM317 1143h-145l-223 299h254z" />
    <glyph glyph-name="iacute" unicode="&#xed;" horiz-adv-x="479" 
d="M145 965h189v-965h-189v965zM160 1133l114 297h256l-225 -297h-145z" />
    <glyph glyph-name="icircumflex" unicode="&#xee;" horiz-adv-x="479" 
d="M145 965h189v-965h-189v965zM-109 1124l349 303l348 -303h-234l-114 109l-115 -109h-234z" />
    <glyph glyph-name="idieresis" unicode="&#xef;" horiz-adv-x="479" 
d="M145 965h189v-965h-189v965zM-84 1260q0 54 37 88t92 34t90 -33.5t35 -88.5q0 -53 -36.5 -88t-88.5 -35q-55 0 -92 35t-37 88zM307 1260q0 55 37.5 88.5t93.5 33.5q55 0 90 -33.5t35 -88.5q0 -53 -36.5 -88t-88.5 -35q-56 0 -93.5 34.5t-37.5 88.5z" />
    <glyph glyph-name="eth" unicode="&#xf0;" horiz-adv-x="1230" 
d="M1135 518q0 -242 -145.5 -393.5t-381.5 -151.5q-148 0 -269.5 66.5t-190 181.5t-68.5 254q0 201 143 339t361 138q208 0 327 -143q-67 220 -200 373l-162 -111l-78 100l150 103q-68 68 -177 139l140 98q101 -69 176 -141l158 109l79 -99l-149 -102q140 -162 213.5 -356
t73.5 -404zM942 475q0 140 -91.5 235t-244.5 95q-145 0 -240.5 -97t-95.5 -233t95.5 -233t240.5 -97q153 0 244.5 95.5t91.5 234.5z" />
    <glyph glyph-name="ntilde" unicode="&#xf1;" horiz-adv-x="1153" 
d="M145 965h181v-123q98 149 309 149q181 0 285 -119q106 -118 106 -307v-565h-188v549q0 119 -68 191.5t-184 72.5t-184 -72.5t-68 -191.5v-549h-189v965zM569 1171q-70 41 -106 41q-71 0 -68 -90h-141q-2 10 -2 45q0 90 47.5 138.5t142.5 48.5q34 0 64 -11.5t90 -42.5
q70 -40 104 -40q73 0 70 90h141q2 -10 2 -41q0 -191 -192 -191q-22 0 -47.5 7.5t-40 14t-64.5 31.5z" />
    <glyph glyph-name="ograve" unicode="&#xf2;" horiz-adv-x="1187" 
d="M80 485q0 140 64.5 255t183 183t266.5 68t266.5 -68t183 -183t64.5 -255q0 -219 -144.5 -365.5t-369.5 -146.5t-369.5 146.5t-144.5 365.5zM918 485q0 141 -91 238q-88 94 -233 94q-146 0 -234 -94t-88 -238q0 -147 88 -241t234 -94q147 0 235.5 93t88.5 242zM672 1143
h-146l-223 299h254z" />
    <glyph glyph-name="oacute" unicode="&#xf3;" horiz-adv-x="1187" 
d="M80 485q0 140 64.5 255t183 183t266.5 68t266.5 -68t183 -183t64.5 -255q0 -219 -144.5 -365.5t-369.5 -146.5t-369.5 146.5t-144.5 365.5zM918 485q0 141 -91 238q-88 94 -233 94q-146 0 -234 -94t-88 -238q0 -147 88 -241t234 -94q147 0 235.5 93t88.5 242zM514 1133
l115 297h256l-226 -297h-145z" />
    <glyph glyph-name="ocircumflex" unicode="&#xf4;" horiz-adv-x="1187" 
d="M80 485q0 140 64.5 255t183 183t266.5 68t266.5 -68t183 -183t64.5 -255q0 -219 -144.5 -365.5t-369.5 -146.5t-369.5 146.5t-144.5 365.5zM918 485q0 141 -91 238q-88 94 -233 94q-146 0 -234 -94t-88 -238q0 -147 88 -241t234 -94q147 0 235.5 93t88.5 242zM246 1124
l348 303l348 -303h-233l-115 109l-115 -109h-233z" />
    <glyph glyph-name="otilde" unicode="&#xf5;" horiz-adv-x="1187" 
d="M80 485q0 140 64.5 255t183 183t266.5 68t266.5 -68t183 -183t64.5 -255q0 -219 -144.5 -365.5t-369.5 -146.5t-369.5 146.5t-144.5 365.5zM918 485q0 141 -91 238q-88 94 -233 94q-146 0 -234 -94t-88 -238q0 -147 88 -241t234 -94q147 0 235.5 93t88.5 242zM582 1171
q-70 41 -107 41t-53 -22t-14 -68h-142q-2 10 -2 45q0 90 48 138.5t143 48.5q23 0 48.5 -7.5t43.5 -16t61 -30.5q70 -40 105 -40q72 0 69 90h142q2 -10 2 -41q0 -92 -48 -141.5t-145 -49.5q-7 0 -14 0.5t-12.5 1.5t-13.5 3t-12.5 3.5t-13.5 5t-14 5.5t-16 7t-16 7.5
t-18.5 9.5t-20.5 10z" />
    <glyph glyph-name="odieresis" unicode="&#xf6;" horiz-adv-x="1187" 
d="M80 485q0 140 64.5 255t183 183t266.5 68t266.5 -68t183 -183t64.5 -255q0 -219 -144.5 -365.5t-369.5 -146.5t-369.5 146.5t-144.5 365.5zM918 485q0 141 -91 238q-88 94 -233 94q-146 0 -234 -94t-88 -238q0 -147 88 -241t234 -94q147 0 235.5 93t88.5 242zM270 1260
q0 54 37 88t92 34t90 -33.5t35 -88.5q0 -53 -36.5 -88t-88.5 -35q-55 0 -92 35t-37 88zM662 1260q0 55 37.5 88.5t93.5 33.5q55 0 90 -33.5t35 -88.5q0 -53 -36.5 -88t-88.5 -35q-56 0 -93.5 34.5t-37.5 88.5z" />
    <glyph glyph-name="divide" unicode="&#xf7;" 
d="M473 973q0 61 42 101t103 40t103.5 -40t42.5 -101t-42.5 -101.5t-103.5 -40.5t-103 40.5t-42 101.5zM117 494v165h995v-165h-995zM473 178q0 61 42 101t103 40t103.5 -40t42.5 -101q0 -60 -42.5 -99.5t-103.5 -39.5t-103 39t-42 100z" />
    <glyph glyph-name="oslash" unicode="&#xf8;" horiz-adv-x="1187" 
d="M1108 483q0 -221 -146 -365.5t-368 -144.5q-135 0 -256 62l-57 -82h-127l100 139q-82 70 -128 171.5t-46 219.5q0 219 147 363.5t367 144.5q140 0 256 -61l59 84h125l-100 -140q174 -142 174 -391zM356 238l394 553q-65 36 -156 36q-144 0 -238 -98.5t-94 -245.5
q0 -145 94 -245zM926 483q0 145 -95 246l-393 -553q67 -37 156 -37q145 0 238.5 98.5t93.5 245.5z" />
    <glyph glyph-name="ugrave" unicode="&#xf9;" horiz-adv-x="1130" 
d="M819 406v559h189v-574q0 -187 -124 -302.5t-319 -115.5t-318.5 115t-123.5 303v574h188v-559q0 -119 69 -191t185 -72t185 72t69 191zM643 1143h-145l-224 299h254z" />
    <glyph glyph-name="uacute" unicode="&#xfa;" horiz-adv-x="1130" 
d="M819 406v559h189v-574q0 -187 -124 -302.5t-319 -115.5t-318.5 115t-123.5 303v574h188v-559q0 -119 69 -191t185 -72t185 72t69 191zM485 1133l115 297h256l-225 -297h-146z" />
    <glyph glyph-name="ucircumflex" unicode="&#xfb;" horiz-adv-x="1130" 
d="M819 406v559h189v-574q0 -187 -124 -302.5t-319 -115.5t-318.5 115t-123.5 303v574h188v-559q0 -119 69 -191t185 -72t185 72t69 191zM217 1124l348 303l348 -303h-233l-115 109l-114 -109h-234z" />
    <glyph glyph-name="udieresis" unicode="&#xfc;" horiz-adv-x="1130" 
d="M819 406v559h189v-574q0 -187 -124 -302.5t-319 -115.5t-318.5 115t-123.5 303v574h188v-559q0 -119 69 -191t185 -72t185 72t69 191zM242 1260q0 54 37 88t92 34t90 -33.5t35 -88.5q0 -53 -36.5 -88t-88.5 -35q-55 0 -92 35t-37 88zM633 1260q0 55 37.5 88.5t93.5 33.5
q55 0 90 -33.5t35 -88.5q0 -53 -36.5 -88t-88.5 -35q-56 0 -93.5 34.5t-37.5 88.5z" />
    <glyph glyph-name="yacute" unicode="&#xfd;" horiz-adv-x="1097" 
d="M862 965h207l-567 -1375h-195l158 392l-438 983h206l328 -748zM459 1133l114 297h256l-225 -297h-145z" />
    <glyph glyph-name="thorn" unicode="&#xfe;" horiz-adv-x="1239" 
d="M145 -410v1905h189v-676q61 84 153 128t199 44q204 0 337.5 -145t133.5 -365q0 -221 -133.5 -364.5t-337.5 -143.5q-104 0 -198 43.5t-154 118.5v-545h-189zM961 481q0 148 -86.5 241t-223.5 93q-132 0 -221 -92q-86 -92 -86 -242q0 -148 87.5 -241t219.5 -93
q137 0 223 95q87 96 87 239z" />
    <glyph glyph-name="ydieresis" unicode="&#xff;" horiz-adv-x="1097" 
d="M862 965h207l-567 -1375h-195l158 392l-438 983h206l328 -748zM215 1260q0 54 37 88t92 34t90 -33.5t35 -88.5q0 -53 -36.5 -88t-88.5 -35q-55 0 -92 35t-37 88zM606 1260q0 55 37.5 88.5t93.5 33.5q55 0 90 -33.5t35 -88.5q0 -53 -36.5 -88t-88.5 -35q-56 0 -93.5 34.5
t-37.5 88.5z" />
    <glyph glyph-name="Amacron" unicode="&#x100;" horiz-adv-x="1409" 
d="M23 0l624 1448h115l624 -1448h-215l-124 295h-685l-126 -295h-213zM436 475h537l-268 627zM403 1772h603v-170h-603v170z" />
    <glyph glyph-name="amacron" unicode="&#x101;" horiz-adv-x="1234" 
d="M80 485q0 214 131.5 360t337.5 146q110 0 201.5 -43t152.5 -127v144h189v-965h-189v143q-126 -170 -354 -170q-206 0 -337.5 147t-131.5 365zM893 483q0 145 -84.5 239.5t-224.5 94.5q-144 0 -228 -96q-82 -94 -82 -238q0 -145 85 -239t225 -94q144 0 226.5 92t82.5 241z
M326 1323h587v-162h-587v162z" />
    <glyph glyph-name="Abreve" unicode="&#x102;" horiz-adv-x="1409" 
d="M23 0l624 1448h115l624 -1448h-215l-124 295h-685l-126 -295h-213zM436 475h537l-268 627zM385 1858h180q0 -62 40.5 -102t103.5 -40t102 40t39 102h180q0 -129 -94 -211q-92 -80 -229 -80q-140 0 -232 80q-90 81 -90 211z" />
    <glyph glyph-name="abreve" unicode="&#x103;" horiz-adv-x="1234" 
d="M80 485q0 214 131.5 360t337.5 146q110 0 201.5 -43t152.5 -127v144h189v-965h-189v143q-126 -170 -354 -170q-206 0 -337.5 147t-131.5 365zM893 483q0 145 -84.5 239.5t-224.5 94.5q-144 0 -228 -96q-82 -94 -82 -238q0 -145 85 -239t225 -94q144 0 226.5 92t82.5 241z
M616 1112q-140 0 -228.5 83.5t-88.5 217.5h184q0 -67 36.5 -108t98.5 -41q61 0 98.5 41.5t37.5 107.5h182q0 -134 -90 -217.5t-230 -83.5z" />
    <glyph glyph-name="Aogonek" unicode="&#x104;" horiz-adv-x="1409" 
d="M1386 -236l31 -112q-71 -47 -157 -47q-83 0 -139 50.5t-56 129.5q0 60 33.5 110.5t103.5 104.5h-31l-124 295h-685l-126 -295h-213l624 1448h115l624 -1448h-2l-79 -55q-51 -37 -74 -64.5t-23 -62.5t26.5 -58.5t63.5 -23.5q46 0 88 28zM436 475h537l-268 627z" />
    <glyph glyph-name="aogonek" unicode="&#x105;" horiz-adv-x="1234" 
d="M1092 -227l28 -109q-68 -45 -151 -45q-81 0 -134 48.5t-53 125.5q0 58 33.5 107t99.5 100h-12v143q-126 -170 -354 -170q-206 0 -337.5 147t-131.5 365q0 214 131.5 360t337.5 146q110 0 201.5 -43t152.5 -127v144h189v-965h-2l-78 -55q-90 -57 -90 -121q0 -32 24.5 -55
t59.5 -23q46 0 86 27zM893 483q0 145 -84.5 239.5t-224.5 94.5q-144 0 -228 -96q-82 -94 -82 -238q0 -145 85 -239t225 -94q144 0 226.5 92t82.5 241z" />
    <glyph glyph-name="Cacute" unicode="&#x106;" horiz-adv-x="1558" 
d="M94 717q-2 148 52.5 284.5t151.5 238.5t239 162t305 58q224 0 395.5 -100.5t263.5 -276.5l-180 -92q-64 132 -188 206.5t-291 74.5q-122 2 -226.5 -43.5t-174 -123t-108 -179t-36.5 -209.5q-2 -108 36.5 -209.5t108 -179t174 -123t226.5 -43.5q167 0 291 74t188 206
l180 -92q-92 -176 -263.5 -276.5t-395.5 -100.5q-163 -3 -305 57t-239 163t-151.5 239.5t-52.5 284.5zM774 1581l115 299h266l-233 -299h-148z" />
    <glyph glyph-name="cacute" unicode="&#x107;" horiz-adv-x="1097" 
d="M80 483q0 141 63 256.5t181.5 183.5t269.5 68q150 0 266.5 -66t183.5 -184l-170 -86q-39 76 -112 119t-168 43q-146 0 -234 -94.5t-88 -239.5t87.5 -239t234.5 -94q95 0 168 42t112 117l170 -84q-67 -119 -183.5 -185.5t-266.5 -66.5q-228 0 -371 145.5t-143 364.5z
M506 1133l115 297h256l-226 -297h-145z" />
    <glyph glyph-name="Ccircumflex" unicode="&#x108;" horiz-adv-x="1558" 
d="M94 717q-2 148 52.5 284.5t151.5 238.5t239 162t305 58q224 0 395.5 -100.5t263.5 -276.5l-180 -92q-64 132 -188 206.5t-291 74.5q-122 2 -226.5 -43.5t-174 -123t-108 -179t-36.5 -209.5q-2 -108 36.5 -209.5t108 -179t174 -123t226.5 -43.5q167 0 291 74t188 206
l180 -92q-92 -176 -263.5 -276.5t-395.5 -100.5q-163 -3 -305 57t-239 163t-151.5 239.5t-52.5 284.5zM483 1577l359 303l358 -303h-235l-123 111l-123 -111h-236z" />
    <glyph glyph-name="ccircumflex" unicode="&#x109;" horiz-adv-x="1097" 
d="M80 483q0 141 63 256.5t181.5 183.5t269.5 68q150 0 266.5 -66t183.5 -184l-170 -86q-39 76 -112 119t-168 43q-146 0 -234 -94.5t-88 -239.5t87.5 -239t234.5 -94q95 0 168 42t112 117l170 -84q-67 -119 -183.5 -185.5t-266.5 -66.5q-228 0 -371 145.5t-143 364.5z
M238 1124l348 303l348 -303h-234l-114 109l-115 -109h-233z" />
    <glyph glyph-name="Cdotaccent" unicode="&#x10a;" horiz-adv-x="1558" 
d="M94 717q-2 148 52.5 284.5t151.5 238.5t239 162t305 58q224 0 395.5 -100.5t263.5 -276.5l-180 -92q-64 132 -188 206.5t-291 74.5q-122 2 -226.5 -43.5t-174 -123t-108 -179t-36.5 -209.5q-2 -108 36.5 -209.5t108 -179t174 -123t226.5 -43.5q167 0 291 74t188 206
l180 -92q-92 -176 -263.5 -276.5t-395.5 -100.5q-163 -3 -305 57t-239 163t-151.5 239.5t-52.5 284.5zM711 1722q0 55 38.5 91t94.5 36t93.5 -36t37.5 -91t-37.5 -91t-93.5 -36t-94.5 36t-38.5 91z" />
    <glyph glyph-name="cdotaccent" unicode="&#x10b;" horiz-adv-x="1097" 
d="M80 483q0 141 63 256.5t181.5 183.5t269.5 68q150 0 266.5 -66t183.5 -184l-170 -86q-39 76 -112 119t-168 43q-146 0 -234 -94.5t-88 -239.5t87.5 -239t234.5 -94q95 0 168 42t112 117l170 -84q-67 -119 -183.5 -185.5t-266.5 -66.5q-228 0 -371 145.5t-143 364.5z
M455 1262q0 55 38.5 89.5t94.5 34.5q55 0 91 -34.5t36 -89.5q0 -54 -37.5 -90.5t-89.5 -36.5q-56 0 -94.5 36t-38.5 91z" />
    <glyph glyph-name="Ccaron" unicode="&#x10c;" horiz-adv-x="1558" 
d="M94 717q-2 148 52.5 284.5t151.5 238.5t239 162t305 58q224 0 395.5 -100.5t263.5 -276.5l-180 -92q-64 132 -188 206.5t-291 74.5q-122 2 -226.5 -43.5t-174 -123t-108 -179t-36.5 -209.5q-2 -108 36.5 -209.5t108 -179t174 -123t226.5 -43.5q167 0 291 74t188 206
l180 -92q-92 -176 -263.5 -276.5t-395.5 -100.5q-163 -3 -305 57t-239 163t-151.5 239.5t-52.5 284.5zM842 1556l-365 299h234l131 -110l131 110h233z" />
    <glyph glyph-name="ccaron" unicode="&#x10d;" horiz-adv-x="1097" 
d="M80 483q0 141 63 256.5t181.5 183.5t269.5 68q150 0 266.5 -66t183.5 -184l-170 -86q-39 76 -112 119t-168 43q-146 0 -234 -94.5t-88 -239.5t87.5 -239t234.5 -94q95 0 168 42t112 117l170 -84q-67 -119 -183.5 -185.5t-266.5 -66.5q-228 0 -371 145.5t-143 364.5z
M586 1100l-340 301h231l109 -109l108 109h232z" />
    <glyph glyph-name="Dcaron" unicode="&#x10e;" horiz-adv-x="1540" 
d="M186 0v1434h519q163 2 303 -53t235.5 -152t148.5 -229.5t52 -282.5q1 -150 -52 -282.5t-148.5 -229.5t-235.5 -152t-303 -53h-519zM385 184h301q172 0 299 70.5t191.5 190t64.5 272.5q0 114 -37.5 211t-107.5 168.5t-175.5 112t-234.5 40.5h-301v-1065zM688 1552
l-364 299h233l131 -110l131 110h234z" />
    <glyph glyph-name="dcaron" unicode="&#x10f;" horiz-adv-x="1236" 
d="M82 485q0 216 130.5 361t336.5 145q111 0 204.5 -42t149.5 -120v666h189v-1495h-189v143q-123 -170 -354 -170q-137 0 -244 67.5t-165 184t-58 260.5zM1329 1020h-106v475h262zM895 483q0 146 -84 240t-227 94q-139 0 -223.5 -94.5t-84.5 -239.5t84.5 -239t223.5 -94
q144 0 227.5 92t83.5 241z" />
    <glyph glyph-name="Dcroat" unicode="&#x110;" horiz-adv-x="1540" 
d="M1444 717q1 -150 -52 -282.5t-148.5 -229.5t-235.5 -152t-303 -53h-519v635h-147v153h147v646h519q163 2 303 -53t235.5 -152t148.5 -229.5t52 -282.5zM1241 717q0 114 -37.5 211t-107.5 168.5t-175.5 112t-234.5 40.5h-301v-461h297v-153h-297v-451h301q172 0 299 70.5
t191.5 190t64.5 272.5z" />
    <glyph glyph-name="dslash" unicode="&#x111;" horiz-adv-x="1236" 
d="M1255 1260v-154h-163v-1106h-189v143q-123 -170 -354 -170q-137 0 -244 67.5t-165 184t-58 260.5q0 216 130.5 361t336.5 145q111 0 204.5 -42t149.5 -120v277h-291v154h291v235h189v-235h163zM895 483q0 146 -84 240t-227 94q-139 0 -223.5 -94.5t-84.5 -239.5
t84.5 -239t223.5 -94q144 0 227.5 92t83.5 241z" />
    <glyph glyph-name="Emacron" unicode="&#x112;" horiz-adv-x="1220" 
d="M184 1434h932v-185h-733v-432h676v-182h-676v-451h733v-184h-932v1434zM346 1772h602v-170h-602v170z" />
    <glyph glyph-name="emacron" unicode="&#x113;" horiz-adv-x="1124" 
d="M1042 414h-766q19 -123 97 -196t198 -73q94 0 168 42t117 120l164 -74q-60 -124 -177.5 -192t-271.5 -68q-218 0 -353.5 145t-135.5 365t135.5 364t353.5 144q217 0 347.5 -143t130.5 -363q0 -27 -7 -71zM281 567h571q-19 119 -91.5 186.5t-189.5 67.5q-115 0 -192 -69.5
t-98 -184.5zM279 1323h587v-162h-587v162z" />
    <glyph glyph-name="Ebreve" unicode="&#x114;" horiz-adv-x="1220" 
d="M184 1434h932v-185h-733v-432h676v-182h-676v-451h733v-184h-932v1434zM328 1858h180q0 -62 40 -102t103 -40t102.5 40t39.5 102h180q0 -129 -94 -211q-92 -80 -230 -80q-139 0 -231 80q-90 81 -90 211z" />
    <glyph glyph-name="ebreve" unicode="&#x115;" horiz-adv-x="1124" 
d="M1042 414h-766q19 -123 97 -196t198 -73q94 0 168 42t117 120l164 -74q-60 -124 -177.5 -192t-271.5 -68q-218 0 -353.5 145t-135.5 365t135.5 364t353.5 144q217 0 347.5 -143t130.5 -363q0 -27 -7 -71zM281 567h571q-19 119 -91.5 186.5t-189.5 67.5q-115 0 -192 -69.5
t-98 -184.5zM569 1112q-140 0 -228.5 83.5t-88.5 217.5h184q0 -67 36.5 -108t98.5 -41q61 0 98.5 41.5t37.5 107.5h182q0 -134 -90 -217.5t-230 -83.5z" />
    <glyph glyph-name="Edotaccent" unicode="&#x116;" horiz-adv-x="1220" 
d="M184 1434h932v-185h-733v-432h676v-182h-676v-451h733v-184h-932v1434zM514 1718q0 55 38.5 91t94.5 36t93.5 -36t37.5 -91t-37.5 -91t-93.5 -36t-94.5 36t-38.5 91z" />
    <glyph glyph-name="edotaccent" unicode="&#x117;" horiz-adv-x="1124" 
d="M1042 414h-766q19 -123 97 -196t198 -73q94 0 168 42t117 120l164 -74q-60 -124 -177.5 -192t-271.5 -68q-218 0 -353.5 145t-135.5 365t135.5 364t353.5 144q217 0 347.5 -143t130.5 -363q0 -27 -7 -71zM281 567h571q-19 119 -91.5 186.5t-189.5 67.5q-115 0 -192 -69.5
t-98 -184.5zM440 1262q0 55 38.5 89.5t94.5 34.5q55 0 91 -34.5t36 -89.5q0 -54 -37.5 -90.5t-89.5 -36.5q-56 0 -94.5 36t-38.5 91z" />
    <glyph glyph-name="Eogonek" unicode="&#x118;" horiz-adv-x="1220" 
d="M1159 -221l31 -113q-71 -47 -158 -47q-83 0 -138.5 50.5t-55.5 129.5q0 107 118 201h-772v1434h932v-185h-733v-432h676v-182h-676v-451h733v-145l41 -25l-80 -55q-50 -37 -73 -64.5t-23 -62.5t26.5 -58.5t63.5 -23.5q45 0 88 29z" />
    <glyph glyph-name="eogonek" unicode="&#x119;" horiz-adv-x="1124" 
d="M598 -209q0 106 92 195q-44 -13 -119 -13q-218 0 -353.5 144.5t-135.5 365.5q0 220 135.5 364t353.5 144q217 0 347.5 -142.5t130.5 -363.5q0 -20 -7 -71h-763q19 -124 95 -196.5t197 -72.5q94 0 167 42t114 120l164 -74q-38 -77 -156 -204q-123 -123 -123 -203
q0 -36 25 -58t61 -22q43 0 84 27l29 -109q-77 -45 -152 -45q-79 0 -132.5 49t-53.5 123zM283 567h567q-18 118 -90.5 186t-188.5 68t-192.5 -69.5t-95.5 -184.5z" />
    <glyph glyph-name="Ecaron" unicode="&#x11a;" horiz-adv-x="1220" 
d="M184 1434h932v-185h-733v-432h676v-182h-676v-451h733v-184h-932v1434zM647 1552l-364 299h233l131 -110l131 110h234z" />
    <glyph glyph-name="ecaron" unicode="&#x11b;" horiz-adv-x="1124" 
d="M1042 414h-766q19 -123 97 -196t198 -73q94 0 168 42t117 120l164 -74q-60 -124 -177.5 -192t-271.5 -68q-218 0 -353.5 145t-135.5 365t135.5 364t353.5 144q217 0 347.5 -143t130.5 -363q0 -27 -7 -71zM281 567h571q-19 119 -91.5 186.5t-189.5 67.5q-115 0 -192 -69.5
t-98 -184.5zM571 1100l-340 301h232l108 -109l109 109h231z" />
    <glyph glyph-name="Gcircumflex" unicode="&#x11c;" horiz-adv-x="1662" 
d="M1589 717q2 -118 -32 -230.5t-100.5 -205.5t-157 -163.5t-208 -108.5t-247.5 -36q-163 -3 -305.5 57t-239.5 163t-152 239.5t-53 284.5q-2 148 53 284.5t152 238.5t239.5 162t305.5 58q165 0 307.5 -59t243.5 -166l-148 -133q-70 80 -173.5 124t-229.5 44
q-123 0 -227.5 -45t-173.5 -121.5t-107.5 -176.5t-38.5 -210t38.5 -210t107.5 -176.5t173.5 -121.5t227.5 -45q188 0 325 101.5t189 269.5l-230 266h457q4 -66 4 -84zM483 1583l359 303l358 -303h-235l-123 111l-123 -111h-236z" />
    <glyph glyph-name="gcircumflex" unicode="&#x11d;" horiz-adv-x="1208" 
d="M131 -74h193q1 -95 71.5 -144.5t184.5 -49.5q136 0 216.5 74t80.5 204v154q-120 -164 -340 -164q-201 0 -328 142t-127 356q0 137 57 249.5t162 178t236 65.5q215 0 340 -162v136h188v-932q0 -219 -130.5 -344t-354.5 -125q-194 0 -322 94q-127 95 -127 268zM866 498
q0 139 -80.5 229t-214.5 90q-133 0 -215 -90t-82 -229q0 -140 80 -232q83 -92 217 -92t214.5 91t80.5 233zM252 1124l348 303l348 -303h-233l-115 109l-115 -109h-233z" />
    <glyph glyph-name="Gbreve" unicode="&#x11e;" horiz-adv-x="1662" 
d="M1589 717q2 -118 -32 -230.5t-100.5 -205.5t-157 -163.5t-208 -108.5t-247.5 -36q-163 -3 -305.5 57t-239.5 163t-152 239.5t-53 284.5q-2 148 53 284.5t152 238.5t239.5 162t305.5 58q165 0 307.5 -59t243.5 -166l-148 -133q-70 80 -173.5 124t-229.5 44
q-123 0 -227.5 -45t-173.5 -121.5t-107.5 -176.5t-38.5 -210t38.5 -210t107.5 -176.5t173.5 -121.5t227.5 -45q188 0 325 101.5t189 269.5l-230 266h457q4 -66 4 -84zM522 1868h180q0 -62 40.5 -102t103.5 -40t102 40t39 102h180q0 -129 -94 -211q-92 -80 -229 -80
q-140 0 -232 80q-90 81 -90 211z" />
    <glyph glyph-name="gbreve" unicode="&#x11f;" horiz-adv-x="1208" 
d="M131 -74h193q1 -95 71.5 -144.5t184.5 -49.5q136 0 216.5 74t80.5 204v154q-120 -164 -340 -164q-201 0 -328 142t-127 356q0 137 57 249.5t162 178t236 65.5q215 0 340 -162v136h188v-932q0 -219 -130.5 -344t-354.5 -125q-194 0 -322 94q-127 95 -127 268zM866 498
q0 139 -80.5 229t-214.5 90q-133 0 -215 -90t-82 -229q0 -140 80 -232q83 -92 217 -92t214.5 91t80.5 233zM598 1112q-140 0 -228.5 83.5t-88.5 217.5h184q0 -67 36.5 -108t98.5 -41q61 0 98 41.5t37 107.5h183q0 -134 -90 -217.5t-230 -83.5z" />
    <glyph glyph-name="Gdotaccent" unicode="&#x120;" horiz-adv-x="1662" 
d="M1589 717q2 -118 -32 -230.5t-100.5 -205.5t-157 -163.5t-208 -108.5t-247.5 -36q-163 -3 -305.5 57t-239.5 163t-152 239.5t-53 284.5q-2 148 53 284.5t152 238.5t239.5 162t305.5 58q165 0 307.5 -59t243.5 -166l-148 -133q-70 80 -173.5 124t-229.5 44
q-123 0 -227.5 -45t-173.5 -121.5t-107.5 -176.5t-38.5 -210t38.5 -210t107.5 -176.5t173.5 -121.5t227.5 -45q188 0 325 101.5t189 269.5l-230 266h457q4 -66 4 -84zM709 1729q0 55 38.5 90.5t94.5 35.5t93.5 -35.5t37.5 -90.5t-37.5 -91t-93.5 -36t-94.5 36t-38.5 91z" />
    <glyph glyph-name="gdotaccent" unicode="&#x121;" horiz-adv-x="1208" 
d="M131 -74h193q1 -95 71.5 -144.5t184.5 -49.5q136 0 216.5 74t80.5 204v154q-120 -164 -340 -164q-201 0 -328 142t-127 356q0 137 57 249.5t162 178t236 65.5q215 0 340 -162v136h188v-932q0 -219 -130.5 -344t-354.5 -125q-194 0 -322 94q-127 95 -127 268zM866 498
q0 139 -80.5 229t-214.5 90q-133 0 -215 -90t-82 -229q0 -140 80 -232q83 -92 217 -92t214.5 91t80.5 233zM469 1262q0 55 38.5 89.5t94.5 34.5q55 0 91 -34.5t36 -89.5q0 -54 -37.5 -90.5t-89.5 -36.5q-56 0 -94.5 36t-38.5 91z" />
    <glyph glyph-name="uni0122" unicode="&#x122;" horiz-adv-x="1662" 
d="M1589 717q2 -118 -32 -230.5t-100.5 -205.5t-157 -163.5t-208 -108.5t-247.5 -36q-163 -3 -305.5 57t-239.5 163t-152 239.5t-53 284.5q-2 148 53 284.5t152 238.5t239.5 162t305.5 58q165 0 307.5 -59t243.5 -166l-148 -133q-70 80 -173.5 124t-229.5 44
q-123 0 -227.5 -45t-173.5 -121.5t-107.5 -176.5t-38.5 -210t38.5 -210t107.5 -176.5t173.5 -121.5t227.5 -45q188 0 325 101.5t189 269.5l-230 266h457q4 -66 4 -84zM623 -473l106 313h246l-227 -313h-125z" />
    <glyph glyph-name="uni0123" unicode="&#x123;" horiz-adv-x="1208" 
d="M131 -74h193q1 -95 71.5 -144.5t184.5 -49.5q136 0 216.5 74t80.5 204v154q-120 -164 -340 -164q-201 0 -328 142t-127 356q0 137 57 249.5t162 178t236 65.5q215 0 340 -162v136h188v-932q0 -219 -130.5 -344t-354.5 -125q-194 0 -322 94q-127 95 -127 268zM866 498
q0 139 -80.5 229t-214.5 90q-133 0 -215 -90t-82 -229q0 -140 80 -232q83 -92 217 -92t214.5 91t80.5 233zM723 1495v-324h-248l141 324h107z" />
    <glyph glyph-name="Hcircumflex" unicode="&#x124;" horiz-adv-x="1583" 
d="M186 1434h199v-615h813v615h199v-1434h-199v635h-813v-635h-199v1434zM434 1561l359 303l358 -303h-236l-122 110l-123 -110h-236z" />
    <glyph glyph-name="hcircumflex" unicode="&#x125;" horiz-adv-x="1150" 
d="M145 1495h183v-653q98 149 307 149q179 0 284 -119t105 -305v-567h-188v549q0 119 -67.5 191.5t-182.5 72.5q-116 0 -184 -72.5t-68 -191.5v-549h-189v1495zM250 1575l348 303l348 -303h-233l-115 108l-115 -108h-233z" />
    <glyph glyph-name="Hbar" unicode="&#x126;" horiz-adv-x="1583" 
d="M1518 1188v-127h-121v-1061h-199v635h-813v-635h-199v1061h-116v127h116v246h199v-246h813v246h199v-246h121zM1198 819v242h-813v-242h813z" />
    <glyph glyph-name="hbar" unicode="&#x127;" horiz-adv-x="1150" 
d="M1024 567v-567h-188v549q0 119 -67.5 191.5t-182.5 72.5q-116 0 -184 -72.5t-68 -191.5v-549h-189v1112h-151v154h151v229h183v-229h309v-154h-309v-270q98 149 307 149q179 0 284 -119t105 -305z" />
    <glyph glyph-name="Itilde" unicode="&#x128;" horiz-adv-x="569" 
d="M186 1434h199v-1434h-199v1434zM266 1636q-70 41 -96 41q-79 0 -70 -98h-149q-8 112 43.5 178t152.5 66q57 0 162 -62q71 -41 99 -41q70 0 67 103h148q8 -114 -43 -180t-154 -66q-33 0 -66.5 13t-93.5 46z" />
    <glyph glyph-name="itilde" unicode="&#x129;" horiz-adv-x="479" 
d="M145 965h189v-965h-189v965zM227 1171q-70 41 -106 41q-71 0 -68 -90h-141q-2 10 -2 45q0 90 47.5 138.5t142.5 48.5q34 0 64 -11.5t90 -42.5q70 -40 104 -40q73 0 70 90h141q2 -10 2 -41q0 -191 -192 -191q-22 0 -47.5 7.5t-40 14t-64.5 31.5z" />
    <glyph glyph-name="Imacron" unicode="&#x12a;" horiz-adv-x="569" 
d="M186 1434h199v-1434h-199v1434zM-16 1772h602v-170h-602v170z" />
    <glyph glyph-name="imacron" unicode="&#x12b;" horiz-adv-x="479" 
d="M145 965h189v-965h-189v965zM-53 1323h588v-162h-588v162z" />
    <glyph glyph-name="Ibreve" unicode="&#x12c;" horiz-adv-x="569" 
d="M186 1434h199v-1434h-199v1434zM-35 1858h180q0 -62 40.5 -102t103.5 -40t102 40t39 102h180q0 -129 -94 -211q-92 -80 -229 -80q-140 0 -232 80q-90 81 -90 211z" />
    <glyph glyph-name="ibreve" unicode="&#x12d;" horiz-adv-x="479" 
d="M145 965h189v-965h-189v965zM238 1112q-140 0 -229 83.5t-89 217.5h184q0 -67 37 -108t99 -41q61 0 98 41.5t37 107.5h182q0 -134 -89.5 -217.5t-229.5 -83.5z" />
    <glyph glyph-name="Iogonek" unicode="&#x12e;" horiz-adv-x="569" 
d="M385 -236l31 -112q-71 -47 -158 -47q-83 0 -139 50.5t-56 129.5q0 60 34 110.5t104 104.5h-15v1434h199v-1434h-2l-80 -55q-50 -37 -73 -64.5t-23 -62.5t26.5 -58.5t63.5 -23.5q46 0 88 28z" />
    <glyph glyph-name="iogonek" unicode="&#x12f;" horiz-adv-x="481" 
d="M100 1270q0 61 40.5 99t101.5 38t101 -38t40 -99q0 -59 -41.5 -97t-99.5 -38t-100 38t-42 97zM29 -207q0 55 31 102t94 99l-7 16v955h189v-965l-78 -55q-90 -57 -90 -121q0 -32 24.5 -55t59.5 -23q44 0 84 27l31 -109q-74 -45 -154 -45q-79 0 -131.5 48.5t-52.5 125.5z
" />
    <glyph glyph-name="Idot" unicode="&#x130;" horiz-adv-x="569" 
d="M186 1434h199v-1434h-199v1434zM152 1718q0 55 38.5 91t94.5 36t93.5 -36t37.5 -91t-37.5 -91t-93.5 -36t-94.5 36t-38.5 91z" />
    <glyph glyph-name="dotlessi" unicode="&#x131;" horiz-adv-x="479" 
d="M145 965h189v-965h-189v965z" />
    <glyph glyph-name="IJ" unicode="&#x132;" horiz-adv-x="1818" 
d="M186 1434h199v-1434h-199v1434zM616 506h199q0 -156 86 -249t232 -93q151 0 234 93t83 255v922h199v-928q0 -244 -139 -388.5t-377 -144.5q-237 0 -377 145.5t-140 387.5z" />
    <glyph glyph-name="ij" unicode="&#x133;" horiz-adv-x="958" 
d="M98 1268q0 61 40.5 99t101.5 38t101 -38t40 -99q0 -59 -41.5 -97t-99.5 -38q-61 0 -101.5 38t-40.5 97zM145 965h189v-965h-189v965zM580 1272q0 59 39 96t100 37q58 0 98.5 -37t40.5 -96t-40.5 -97t-98.5 -38t-98.5 38t-40.5 97zM625 -410v1375h188v-1375h-188z" />
    <glyph glyph-name="Jcircumflex" unicode="&#x134;" horiz-adv-x="1249" 
d="M47 506h199q0 -156 85.5 -249t231.5 -93q151 0 234.5 93.5t83.5 254.5v922h198v-928q0 -244 -139 -388.5t-377 -144.5q-237 0 -376.5 145.5t-139.5 387.5zM623 1573l358 303l358 -303h-235l-123 110l-123 -110h-235z" />
    <glyph glyph-name="jcircumflex" unicode="&#x135;" horiz-adv-x="479" 
d="M145 -410v1375h189v-1375h-189zM-109 1124l349 303l348 -303h-234l-114 109l-115 -109h-234z" />
    <glyph glyph-name="uni0136" unicode="&#x136;" horiz-adv-x="1318" 
d="M184 0v1434h203v-807l649 807h238l-539 -666l582 -768h-242l-442 586h-246v-586h-203zM483 -473l107 313h246l-228 -313h-125z" />
    <glyph glyph-name="uni0137" unicode="&#x137;" horiz-adv-x="1056" 
d="M145 0v1495h189v-1057l416 527h227l-328 -406l389 -559h-221l-293 424h-190v-424h-189zM315 -473l107 313h246l-228 -313h-125z" />
    <glyph glyph-name="kgreenlandic" unicode="&#x138;" horiz-adv-x="1044" 
d="M139 0v965h189v-527l415 527h226l-330 -406l391 -559h-221l-291 424h-190v-424h-189z" />
    <glyph glyph-name="Lacute" unicode="&#x139;" horiz-adv-x="1134" 
d="M186 0v1434h199v-1250h711v-184h-910zM213 1577l115 299h266l-234 -299h-147z" />
    <glyph glyph-name="lacute" unicode="&#x13a;" horiz-adv-x="479" 
d="M145 0v1495h189v-1495h-189zM168 1614l115 299h266l-234 -299h-147z" />
    <glyph glyph-name="uni013B" unicode="&#x13b;" horiz-adv-x="1134" 
d="M186 0v1434h199v-1250h711v-184h-910zM395 -473l107 313h246l-228 -313h-125z" />
    <glyph glyph-name="uni013C" unicode="&#x13c;" horiz-adv-x="479" 
d="M145 0v1495h189v-1495h-189zM6 -473l107 313h245l-227 -313h-125z" />
    <glyph glyph-name="Lcaron" unicode="&#x13d;" horiz-adv-x="1134" 
d="M186 0v1434h199v-1250h711v-184h-910zM745 983h-100v451h244z" />
    <glyph glyph-name="lcaron" unicode="&#x13e;" horiz-adv-x="479" 
d="M145 0v1495h189v-1495h-189zM571 1036h-106v459h262z" />
    <glyph glyph-name="Ldot" unicode="&#x13f;" horiz-adv-x="1134" 
d="M186 0v1434h199v-1250h711v-184h-910zM705 766q0 56 39.5 92.5t95.5 36.5t94.5 -36.5t38.5 -92.5q0 -55 -38.5 -92t-94.5 -37t-95.5 37t-39.5 92z" />
    <glyph glyph-name="ldot" unicode="&#x140;" horiz-adv-x="616" 
d="M145 0v1495h189v-1495h-189zM414 745q0 56 39.5 92.5t95.5 36.5t94.5 -36.5t38.5 -92.5q0 -55 -38.5 -92t-94.5 -37t-95.5 37t-39.5 92z" />
    <glyph glyph-name="Lslash" unicode="&#x141;" horiz-adv-x="1187" 
d="M74 387v156l166 116v775h198v-637l256 182v-158l-256 -182v-455h713v-184h-911v504z" />
    <glyph glyph-name="lslash" unicode="&#x142;" horiz-adv-x="649" 
d="M57 477v154l183 129v735h188v-606l184 131v-156l-184 -129v-735h-188v606z" />
    <glyph glyph-name="Nacute" unicode="&#x143;" horiz-adv-x="1597" 
d="M1296 -14l-911 1075l-2 -1061h-199v1448h117l909 -1075l2 1061h199v-1448h-115zM729 1563l115 299h266l-233 -299h-148z" />
    <glyph glyph-name="nacute" unicode="&#x144;" horiz-adv-x="1153" 
d="M145 965h181v-123q98 149 309 149q181 0 285 -119q106 -118 106 -307v-565h-188v549q0 119 -68 191.5t-184 72.5t-184 -72.5t-68 -191.5v-549h-189v965zM502 1133l114 297h256l-225 -297h-145z" />
    <glyph glyph-name="uni0145" unicode="&#x145;" horiz-adv-x="1597" 
d="M1296 -14l-911 1075l-2 -1061h-199v1448h117l909 -1075l2 1061h199v-1448h-115zM578 -473l106 313h246l-228 -313h-124z" />
    <glyph glyph-name="uni0146" unicode="&#x146;" horiz-adv-x="1153" 
d="M145 965h181v-123q98 149 309 149q181 0 285 -119q106 -118 106 -307v-565h-188v549q0 119 -68 191.5t-184 72.5t-184 -72.5t-68 -191.5v-549h-189v965zM362 -473l107 313h246l-228 -313h-125z" />
    <glyph glyph-name="Ncaron" unicode="&#x147;" horiz-adv-x="1597" 
d="M1296 -14l-911 1075l-2 -1061h-199v1448h117l909 -1075l2 1061h199v-1448h-115zM799 1538l-365 299h234l131 -111l131 111h233z" />
    <glyph glyph-name="ncaron" unicode="&#x148;" horiz-adv-x="1153" 
d="M145 965h181v-123q98 149 309 149q181 0 285 -119q106 -118 106 -307v-565h-188v549q0 119 -68 191.5t-184 72.5t-184 -72.5t-68 -191.5v-549h-189v965zM582 1100l-340 301h231l109 -109l108 109h232z" />
    <glyph glyph-name="Eng" unicode="&#x14a;" horiz-adv-x="1597" 
d="M901 -369l70 154q54 -23 96 -23q67 0 106 51.5t39 131.5v137l-827 979l-2 -1061h-199v1448h117l909 -1075l2 1061h199v-1493q0 -161 -91.5 -259t-248.5 -98q-87 0 -170 47z" />
    <glyph glyph-name="eng" unicode="&#x14b;" horiz-adv-x="1155" 
d="M516 -367l62 131q42 -22 90 -22q80 0 124 52.5t44 142.5v612q0 122 -66.5 193t-183.5 71q-116 0 -184 -72.5t-68 -191.5v-549h-189v965h183v-123q98 149 307 149q181 0 285 -119t104 -307v-633q0 -154 -90 -247t-242 -93q-92 0 -176 41z" />
    <glyph glyph-name="Omacron" unicode="&#x14c;" horiz-adv-x="1685" 
d="M94 717q-2 148 53 284.5t152 238.5t239.5 162t305.5 58q163 2 305 -58t238.5 -162t151 -238.5t52.5 -284.5q2 -148 -52.5 -284.5t-151 -239.5t-238.5 -163t-305 -57q-163 -3 -305.5 57t-239.5 163t-152 239.5t-53 284.5zM1389 717q0 110 -38 210t-106.5 176.5
t-172.5 121.5t-228 45q-123 0 -227.5 -45t-173.5 -121.5t-107.5 -176.5t-38.5 -210q0 -111 38.5 -211t107.5 -176t173.5 -121t227.5 -45q124 0 228 45t172.5 121t106.5 176t38 211zM543 1778h602v-170h-602v170z" />
    <glyph glyph-name="omacron" unicode="&#x14d;" horiz-adv-x="1187" 
d="M80 485q0 140 64.5 255t183 183t266.5 68t266.5 -68t183 -183t64.5 -255q0 -219 -144.5 -365.5t-369.5 -146.5t-369.5 146.5t-144.5 365.5zM918 485q0 141 -91 238q-88 94 -233 94q-146 0 -234 -94t-88 -238q0 -147 88 -241t234 -94q147 0 235.5 93t88.5 242zM301 1323
h588v-162h-588v162z" />
    <glyph glyph-name="Obreve" unicode="&#x14e;" horiz-adv-x="1685" 
d="M94 717q-2 148 53 284.5t152 238.5t239.5 162t305.5 58q163 2 305 -58t238.5 -162t151 -238.5t52.5 -284.5q2 -148 -52.5 -284.5t-151 -239.5t-238.5 -163t-305 -57q-163 -3 -305.5 57t-239.5 163t-152 239.5t-53 284.5zM1389 717q0 110 -38 210t-106.5 176.5
t-172.5 121.5t-228 45q-123 0 -227.5 -45t-173.5 -121.5t-107.5 -176.5t-38.5 -210q0 -111 38.5 -211t107.5 -176t173.5 -121t227.5 -45q124 0 228 45t172.5 121t106.5 176t38 211zM524 1864h181q0 -62 40 -102t103 -40t102 40t39 102h180q0 -129 -94 -211q-92 -80 -229 -80
q-140 0 -232 80q-90 81 -90 211z" />
    <glyph glyph-name="obreve" unicode="&#x14f;" horiz-adv-x="1187" 
d="M80 485q0 140 64.5 255t183 183t266.5 68t266.5 -68t183 -183t64.5 -255q0 -219 -144.5 -365.5t-369.5 -146.5t-369.5 146.5t-144.5 365.5zM918 485q0 141 -91 238q-88 94 -233 94q-146 0 -234 -94t-88 -238q0 -147 88 -241t234 -94q147 0 235.5 93t88.5 242zM592 1112
q-140 0 -229 83.5t-89 217.5h185q0 -67 36.5 -108t98.5 -41q61 0 98 41.5t37 107.5h182q0 -134 -89.5 -217.5t-229.5 -83.5z" />
    <glyph glyph-name="Ohungarumlaut" unicode="&#x150;" horiz-adv-x="1685" 
d="M94 717q-2 148 53 284.5t152 238.5t239.5 162t305.5 58q163 2 305 -58t238.5 -162t151 -238.5t52.5 -284.5q2 -148 -52.5 -284.5t-151 -239.5t-238.5 -163t-305 -57q-163 -3 -305.5 57t-239.5 163t-152 239.5t-53 284.5zM1389 717q0 110 -38 210t-106.5 176.5
t-172.5 121.5t-228 45q-123 0 -227.5 -45t-173.5 -121.5t-107.5 -176.5t-38.5 -210q0 -111 38.5 -211t107.5 -176t173.5 -121t227.5 -45q124 0 228 45t172.5 121t106.5 176t38 211zM588 1583l117 320h237l-217 -320h-137zM969 1583l116 320h238l-217 -320h-137z" />
    <glyph glyph-name="ohungarumlaut" unicode="&#x151;" horiz-adv-x="1187" 
d="M80 485q0 140 64.5 255t183 183t266.5 68t266.5 -68t183 -183t64.5 -255q0 -219 -144.5 -365.5t-369.5 -146.5t-369.5 146.5t-144.5 365.5zM918 485q0 141 -91 238q-88 94 -233 94q-146 0 -234 -94t-88 -238q0 -147 88 -241t234 -94q147 0 235.5 93t88.5 242zM365 1137
l114 311h236l-215 -311h-135zM700 1137l113 311h238l-217 -311h-134z" />
    <glyph glyph-name="OE" unicode="&#x152;" horiz-adv-x="2316" 
d="M94 717q-2 148 53 284.5t152 238.5t239.5 162t305.5 58q247 0 436 -131v105h930v-185h-731v-444h673v-158h-673v-463h731v-184h-930v102q-188 -129 -436 -129q-163 -3 -305.5 56.5t-239.5 162t-152 239.5t-53 286zM1280 375v682q-70 101 -183 158t-253 57
q-165 0 -291.5 -78t-190 -203t-63.5 -274t63.5 -274t190 -203t291.5 -78q140 0 253 56.5t183 156.5z" />
    <glyph glyph-name="oe" unicode="&#x153;" horiz-adv-x="1923" 
d="M1841 414h-774q19 -123 99 -195t206 -72q194 0 279 168l164 -79q-56 -125 -171 -194t-274 -69q-132 0 -235 56.5t-166 158.5q-61 -101 -164 -158t-232 -57q-216 0 -353.5 146.5t-137.5 365.5q0 140 61.5 255t174.5 183t255 68q129 0 232 -56t164 -157q63 101 165.5 157
t235.5 56q217 0 347 -143t130 -363q0 -22 -6 -71zM1071 575h580q-19 114 -91.5 179t-189.5 65t-195.5 -66t-103.5 -178zM877 485q0 145 -83.5 238.5t-220.5 93.5q-135 0 -218 -94t-83 -238q0 -149 82.5 -242t218.5 -93q138 0 221 93t83 242z" />
    <glyph glyph-name="Racute" unicode="&#x154;" horiz-adv-x="1353" 
d="M1266 0h-230l-379 623h-276v-623h-197v1434h574q132 0 236.5 -48t165.5 -141t61 -217q0 -157 -94 -261t-255 -134zM381 1253v-450h375q121 0 190.5 60.5t69.5 164.5t-69.5 164.5t-190.5 60.5h-375zM569 1577l115 299h266l-233 -299h-148z" />
    <glyph glyph-name="racute" unicode="&#x155;" horiz-adv-x="843" 
d="M145 0v965h189v-107q58 121 213 121q129 0 199 -84t65 -227h-186q2 68 -35.5 107.5t-104.5 39.5q-71 0 -111 -51.5t-40 -140.5v-623h-189zM369 1133l114 297h256l-225 -297h-145z" />
    <glyph glyph-name="uni0156" unicode="&#x156;" horiz-adv-x="1353" 
d="M1266 0h-230l-379 623h-276v-623h-197v1434h574q132 0 236.5 -48t165.5 -141t61 -217q0 -157 -94 -261t-255 -134zM381 1253v-450h375q121 0 190.5 60.5t69.5 164.5t-69.5 164.5t-190.5 60.5h-375zM471 -473l107 313h245l-227 -313h-125z" />
    <glyph glyph-name="uni0157" unicode="&#x157;" horiz-adv-x="843" 
d="M145 0v965h189v-107q58 121 213 121q129 0 199 -84t65 -227h-186q2 68 -35.5 107.5t-104.5 39.5q-71 0 -111 -51.5t-40 -140.5v-623h-189zM25 -473l106 313h246l-227 -313h-125z" />
    <glyph glyph-name="Rcaron" unicode="&#x158;" horiz-adv-x="1353" 
d="M1266 0h-230l-379 623h-276v-623h-197v1434h574q132 0 236.5 -48t165.5 -141t61 -217q0 -157 -94 -261t-255 -134zM381 1253v-450h375q121 0 190.5 60.5t69.5 164.5t-69.5 164.5t-190.5 60.5h-375zM639 1552l-365 299h234l131 -110l131 110h234z" />
    <glyph glyph-name="rcaron" unicode="&#x159;" horiz-adv-x="843" 
d="M145 0v965h189v-107q58 121 213 121q129 0 199 -84t65 -227h-186q2 68 -35.5 107.5t-104.5 39.5q-71 0 -111 -51.5t-40 -140.5v-623h-189zM449 1100l-340 301h231l109 -109l108 109h231z" />
    <glyph glyph-name="Sacute" unicode="&#x15a;" horiz-adv-x="1177" 
d="M66 311l172 82q31 -112 119.5 -176.5t213.5 -64.5q145 0 237.5 71t92.5 191q0 102 -65 163t-193 95l-154 43q-342 94 -342 372q0 164 121.5 268.5t298.5 104.5q144 0 259 -68.5t159 -183.5l-172 -86q-30 77 -95 118.5t-151 41.5q-96 0 -159.5 -51t-63.5 -135
q0 -79 49.5 -125.5t151.5 -73.5l149 -41q404 -115 404 -436q0 -130 -71 -233t-191 -158.5t-265 -55.5q-177 0 -323 93q-141 89 -182 245zM535 1581l114 299h266l-233 -299h-147z" />
    <glyph glyph-name="sacute" unicode="&#x15b;" horiz-adv-x="888" 
d="M61 203l162 76q26 -67 84.5 -103.5t138.5 -36.5q77 0 128 34t51 93q0 100 -146 144l-117 32q-253 76 -253 277q0 120 99 195t234 75q114 0 199 -46t123 -132l-162 -74q-41 86 -160 86q-60 0 -98.5 -26t-38.5 -74q0 -42 31.5 -68t93.5 -45l107 -30q134 -36 208 -114
t74 -192q0 -135 -109 -218t-264 -83q-143 0 -248 62.5t-137 167.5zM365 1133l114 297h256l-225 -297h-145z" />
    <glyph glyph-name="Scircumflex" unicode="&#x15c;" horiz-adv-x="1177" 
d="M66 311l172 82q31 -112 119.5 -176.5t213.5 -64.5q145 0 237.5 71t92.5 191q0 102 -65 163t-193 95l-154 43q-342 94 -342 372q0 164 121.5 268.5t298.5 104.5q144 0 259 -68.5t159 -183.5l-172 -86q-30 77 -95 118.5t-151 41.5q-96 0 -159.5 -51t-63.5 -135
q0 -79 49.5 -125.5t151.5 -73.5l149 -41q404 -115 404 -436q0 -130 -71 -233t-191 -158.5t-265 -55.5q-177 0 -323 93q-141 89 -182 245zM244 1577l358 303l359 -303h-236l-123 111l-123 -111h-235z" />
    <glyph glyph-name="scircumflex" unicode="&#x15d;" horiz-adv-x="888" 
d="M61 203l162 76q26 -67 84.5 -103.5t138.5 -36.5q77 0 128 34t51 93q0 100 -146 144l-117 32q-253 76 -253 277q0 120 99 195t234 75q114 0 199 -46t123 -132l-162 -74q-41 86 -160 86q-60 0 -98.5 -26t-38.5 -74q0 -42 31.5 -68t93.5 -45l107 -30q134 -36 208 -114
t74 -192q0 -135 -109 -218t-264 -83q-143 0 -248 62.5t-137 167.5zM98 1124l348 303l349 -303h-234l-115 109l-114 -109h-234z" />
    <glyph glyph-name="Scedilla" unicode="&#x15e;" horiz-adv-x="1177" 
d="M649 -23l-33 -53q61 -14 98.5 -56t37.5 -99q0 -70 -53.5 -112t-133.5 -42q-75 0 -145 37l45 84q36 -25 76 -25q33 0 54 16t21 46q0 59 -84 80l-75 14l63 108q-167 12 -292.5 103.5t-161.5 232.5l172 82q31 -112 119.5 -176.5t213.5 -64.5q145 0 237.5 71t92.5 191
q0 102 -65 163t-193 95l-154 43q-342 94 -342 372q0 164 121.5 268.5t298.5 104.5q144 0 259 -68.5t159 -183.5l-172 -86q-30 77 -95 118.5t-151 41.5q-96 0 -159.5 -51t-63.5 -135q0 -79 49.5 -125.5t151.5 -73.5l149 -41q404 -115 404 -436q0 -178 -126.5 -299.5
t-322.5 -143.5z" />
    <glyph glyph-name="scedilla" unicode="&#x15f;" horiz-adv-x="888" 
d="M494 -25l-31 -49q57 -12 93 -52.5t36 -94.5q0 -67 -50 -107.5t-126 -40.5q-73 0 -140 37l41 78q36 -22 74 -22q33 0 53.5 15.5t20.5 43.5q0 55 -82 76l-72 14l62 104q-120 18 -203 76.5t-109 149.5l162 76q26 -67 84.5 -103.5t138.5 -36.5q77 0 128 34t51 93
q0 100 -146 144l-117 32q-253 76 -253 277q0 120 99 195t234 75q114 0 199 -46t123 -132l-162 -74q-41 86 -160 86q-60 0 -98.5 -26t-38.5 -74q0 -42 31.5 -68t93.5 -45l107 -30q134 -36 208 -114t74 -192q0 -125 -91 -206t-234 -93z" />
    <glyph glyph-name="Scaron" unicode="&#x160;" horiz-adv-x="1177" 
d="M66 311l172 82q31 -112 119.5 -176.5t213.5 -64.5q145 0 237.5 71t92.5 191q0 102 -65 163t-193 95l-154 43q-342 94 -342 372q0 164 121.5 268.5t298.5 104.5q144 0 259 -68.5t159 -183.5l-172 -86q-30 77 -95 118.5t-151 41.5q-96 0 -159.5 -51t-63.5 -135
q0 -79 49.5 -125.5t151.5 -73.5l149 -41q404 -115 404 -436q0 -130 -71 -233t-191 -158.5t-265 -55.5q-177 0 -323 93q-141 89 -182 245zM602 1556l-364 299h233l131 -110l131 110h234z" />
    <glyph glyph-name="scaron" unicode="&#x161;" horiz-adv-x="888" 
d="M61 203l162 76q26 -67 84.5 -103.5t138.5 -36.5q77 0 128 34t51 93q0 100 -146 144l-117 32q-253 76 -253 277q0 120 99 195t234 75q114 0 199 -46t123 -132l-162 -74q-41 86 -160 86q-60 0 -98.5 -26t-38.5 -74q0 -42 31.5 -68t93.5 -45l107 -30q134 -36 208 -114
t74 -192q0 -135 -109 -218t-264 -83q-143 0 -248 62.5t-137 167.5zM446 1100l-340 301h232l108 -109l109 109h231z" />
    <glyph glyph-name="uni0162" unicode="&#x162;" horiz-adv-x="1198" 
d="M698 0h-43l-47 -76q60 -14 97.5 -56t37.5 -99q0 -70 -53 -112t-133 -42q-75 0 -145 37l45 84q36 -25 75 -25q34 0 55 16t21 46q0 59 -84 80l-75 14l79 133h-28v1253h-463v181h1122v-181h-461v-1253z" />
    <glyph glyph-name="uni0163" unicode="&#x163;" horiz-adv-x="753" 
d="M416 0h-39l-47 -74q58 -12 94.5 -53t36.5 -96q0 -67 -51.5 -107.5t-128.5 -40.5t-142 35l43 80q36 -25 74 -25q33 0 53.5 16.5t20.5 45.5q0 30 -22 50t-60 26l-72 14l76 129h-25v793h-196l303 501h82v-329h321v-172h-321v-793z" />
    <glyph glyph-name="Tcaron" unicode="&#x164;" horiz-adv-x="1198" 
d="M500 1253h-463v181h1122v-181h-461v-1253h-198v1253zM598 1552l-365 299h234l131 -110l131 110h234z" />
    <glyph glyph-name="tcaron" unicode="&#x165;" horiz-adv-x="753" 
d="M729 1040h-106v394h262zM416 1294v-329h321v-172h-321v-793h-189v793h-196l303 501h82z" />
    <glyph glyph-name="Tbar" unicode="&#x166;" horiz-adv-x="1198" 
d="M1159 1253h-461v-499h234v-160h-234v-594h-198v594h-236v160h236v499h-463v181h1122v-181z" />
    <glyph glyph-name="tbar" unicode="&#x167;" horiz-adv-x="753" 
d="M737 793h-321v-207h235v-154h-235v-432h-189v432h-137v154h137v207h-196l303 501h82v-329h321v-172z" />
    <glyph glyph-name="Utilde" unicode="&#x168;" horiz-adv-x="1501" 
d="M166 535v899h199v-887q0 -172 104.5 -277.5t282.5 -105.5q177 0 281 105.5t104 277.5v887h198v-899q0 -118 -39.5 -220t-113 -178t-184.5 -120t-246 -44q-180 0 -314.5 75.5t-203 202t-68.5 284.5zM733 1604q-70 41 -96 41q-79 0 -70 -99h-149q-8 112 43.5 178t152.5 66
q59 0 162 -61q71 -41 98 -41q71 0 68 102h148q8 -114 -43 -180t-154 -66q-33 0 -66 13t-94 47z" />
    <glyph glyph-name="utilde" unicode="&#x169;" horiz-adv-x="1130" 
d="M819 406v559h189v-574q0 -187 -124 -302.5t-319 -115.5t-318.5 115t-123.5 303v574h188v-559q0 -119 69 -191t185 -72t185 72t69 191zM553 1171q-70 41 -107 41t-53 -22t-14 -68h-141q-2 10 -2 45q0 90 47.5 138.5t142.5 48.5q34 0 64 -11.5t90 -42.5q70 -40 104 -40
q73 0 70 90h141q2 -10 2 -41q0 -191 -192 -191q-22 0 -47.5 7.5t-40 14t-64.5 31.5z" />
    <glyph glyph-name="Umacron" unicode="&#x16a;" horiz-adv-x="1501" 
d="M166 535v899h199v-887q0 -172 104.5 -277.5t282.5 -105.5q177 0 281 105.5t104 277.5v887h198v-899q0 -118 -39.5 -220t-113 -178t-184.5 -120t-246 -44q-180 0 -314.5 75.5t-203 202t-68.5 284.5zM451 1739h602v-170h-602v170z" />
    <glyph glyph-name="umacron" unicode="&#x16b;" horiz-adv-x="1130" 
d="M819 406v559h189v-574q0 -187 -124 -302.5t-319 -115.5t-318.5 115t-123.5 303v574h188v-559q0 -119 69 -191t185 -72t185 72t69 191zM272 1323h588v-162h-588v162z" />
    <glyph glyph-name="Ubreve" unicode="&#x16c;" horiz-adv-x="1501" 
d="M166 535v899h199v-887q0 -172 104.5 -277.5t282.5 -105.5q177 0 281 105.5t104 277.5v887h198v-899q0 -118 -39.5 -220t-113 -178t-184.5 -120t-246 -44q-180 0 -314.5 75.5t-203 202t-68.5 284.5zM432 1825h180q0 -62 40.5 -102t103.5 -40t102 40t39 102h180
q0 -129 -94 -211q-92 -80 -229 -80q-140 0 -232 80q-90 81 -90 211z" />
    <glyph glyph-name="ubreve" unicode="&#x16d;" horiz-adv-x="1130" 
d="M819 406v559h189v-574q0 -187 -124 -302.5t-319 -115.5t-318.5 115t-123.5 303v574h188v-559q0 -119 69 -191t185 -72t185 72t69 191zM563 1112q-140 0 -228.5 83.5t-88.5 217.5h184q0 -67 36.5 -108t98.5 -41q61 0 98 41.5t37 107.5h183q0 -134 -90 -217.5t-230 -83.5z
" />
    <glyph glyph-name="Uring" unicode="&#x16e;" horiz-adv-x="1501" 
d="M166 535v899h199v-887q0 -172 104.5 -277.5t282.5 -105.5q177 0 281 105.5t104 277.5v887h198v-899q0 -118 -39.5 -220t-113 -178t-184.5 -120t-246 -44q-180 0 -314.5 75.5t-203 202t-68.5 284.5zM522 1667q0 92 67 154.5t165 62.5t162.5 -62t64.5 -155
q0 -94 -64.5 -156.5t-162.5 -62.5t-165 63.5t-67 155.5zM848 1667q0 38 -27.5 64t-68.5 26t-69 -26t-28 -64q0 -41 27.5 -66.5t69.5 -25.5t69 25.5t27 66.5z" />
    <glyph glyph-name="uring" unicode="&#x16f;" horiz-adv-x="1130" 
d="M819 406v559h189v-574q0 -187 -124 -302.5t-319 -115.5t-318.5 115t-123.5 303v574h188v-559q0 -119 69 -191t185 -72t185 72t69 191zM358 1309q0 84 60 139t149 55q88 0 146.5 -55t58.5 -139q0 -85 -58.5 -142t-146.5 -57t-148.5 57.5t-60.5 141.5zM653 1309
q0 35 -24.5 58.5t-61.5 23.5q-38 0 -64 -23.5t-26 -58.5q0 -37 25.5 -60.5t64.5 -23.5q37 0 61.5 23.5t24.5 60.5z" />
    <glyph glyph-name="Uhungarumlaut" unicode="&#x170;" horiz-adv-x="1501" 
d="M166 535v899h199v-887q0 -172 104.5 -277.5t282.5 -105.5q177 0 281 105.5t104 277.5v887h198v-899q0 -118 -39.5 -220t-113 -178t-184.5 -120t-246 -44q-180 0 -314.5 75.5t-203 202t-68.5 284.5zM496 1544l116 320h238l-217 -320h-137zM877 1544l116 320h238l-217 -320
h-137z" />
    <glyph glyph-name="uhungarumlaut" unicode="&#x171;" horiz-adv-x="1130" 
d="M819 406v559h189v-574q0 -187 -124 -302.5t-319 -115.5t-318.5 115t-123.5 303v574h188v-559q0 -119 69 -191t185 -72t185 72t69 191zM338 1137l115 311h235l-215 -311h-135zM674 1137l112 311h238l-217 -311h-133z" />
    <glyph glyph-name="Uogonek" unicode="&#x172;" horiz-adv-x="1501" 
d="M578 -215q0 96 108 190q-161 14 -279.5 92t-178.5 198.5t-60 269.5v899h197v-887q0 -171 102 -279q103 -106 285 -106q180 0 280 106q105 108 105 279v887h198v-899q0 -202 -108 -349q-107 -145 -307 -192q-68 -19 -117 -60t-49 -92q0 -31 19 -51t50 -20q45 0 92 24
l35 -143q-89 -47 -184 -47q-82 0 -135 50.5t-53 129.5z" />
    <glyph glyph-name="uogonek" unicode="&#x173;" horiz-adv-x="1144" 
d="M131 965h188v-559q0 -119 69 -191t185 -72t185 72t69 191v559h189v-574q0 -156 -87 -261.5t-239 -147.5l-31 -9q-60 -17 -94.5 -55.5t-34.5 -89.5q0 -37 24.5 -60.5t61.5 -23.5q49 0 86 29l31 -111q-74 -45 -153 -45q-81 0 -135 49t-54 127q0 114 105 187
q-158 19 -261.5 131t-103.5 280v574z" />
    <glyph glyph-name="Wcircumflex" unicode="&#x174;" horiz-adv-x="2224" 
d="M1055 1448h114l412 -1081l404 1067h215l-558 -1448h-116l-414 1089l-414 -1089h-116l-557 1448h215l403 -1067zM754 1573l358 303l358 -303h-235l-123 110l-123 -110h-235z" />
    <glyph glyph-name="wcircumflex" unicode="&#x175;" horiz-adv-x="1652" 
d="M457 -12l-418 977h213l250 -607l291 621h65l291 -621l252 607h215l-420 -977h-66l-303 637l-305 -637h-65zM477 1124l348 303l349 -303h-234l-115 109l-114 -109h-234z" />
    <glyph glyph-name="Ycircumflex" unicode="&#x176;" horiz-adv-x="1353" 
d="M578 467l-545 967h231l414 -744l409 744h234l-545 -967v-467h-198v467zM319 1534l359 303l358 -303h-235l-123 111l-123 -111h-236z" />
    <glyph glyph-name="ycircumflex" unicode="&#x177;" horiz-adv-x="1097" 
d="M862 965h207l-567 -1375h-195l158 392l-438 983h206l328 -748zM190 1124l349 303l348 -303h-234l-114 109l-115 -109h-234z" />
    <glyph glyph-name="Ydieresis" unicode="&#x178;" horiz-adv-x="1353" 
d="M578 467l-545 967h231l414 -744l409 744h234l-545 -967v-467h-198v467zM340 1675q0 56 37.5 92.5t93.5 36.5q55 0 92 -36.5t37 -92.5q0 -55 -37 -91t-92 -36t-93 36t-38 91zM754 1675q0 56 38.5 92.5t94.5 36.5q55 0 92 -36.5t37 -92.5q0 -55 -37 -91t-92 -36t-94 36
t-39 91z" />
    <glyph glyph-name="Zacute" unicode="&#x179;" horiz-adv-x="1155" 
d="M772 1249h-688v185h1020l-739 -1248l731 -2v-184h-1061zM510 1577l115 299h266l-234 -299h-147z" />
    <glyph glyph-name="zacute" unicode="&#x17a;" horiz-adv-x="966" 
d="M43 0l530 791h-491v174h823l-530 -791h536v-174h-868zM391 1133l115 297h256l-225 -297h-146z" />
    <glyph glyph-name="Zdotaccent" unicode="&#x17b;" horiz-adv-x="1155" 
d="M772 1249h-688v185h1020l-739 -1248l731 -2v-184h-1061zM444 1718q0 55 39 91t95 36t93.5 -36t37.5 -91t-37.5 -91t-93.5 -36t-95 36t-39 91z" />
    <glyph glyph-name="zdotaccent" unicode="&#x17c;" horiz-adv-x="966" 
d="M43 0l530 791h-491v174h823l-530 -791h536v-174h-868zM340 1262q0 55 38.5 89.5t94.5 34.5q55 0 91 -34.5t36 -89.5q0 -54 -37.5 -90.5t-89.5 -36.5q-56 0 -94.5 36t-38.5 91z" />
    <glyph glyph-name="Zcaron" unicode="&#x17d;" horiz-adv-x="1155" 
d="M772 1249h-688v185h1020l-739 -1248l731 -2v-184h-1061zM578 1552l-365 299h233l132 -110l131 110h233z" />
    <glyph glyph-name="zcaron" unicode="&#x17e;" horiz-adv-x="966" 
d="M43 0l530 791h-491v174h823l-530 -791h536v-174h-868zM471 1100l-340 301h231l109 -109l109 109h231z" />
    <glyph glyph-name="uni018F" unicode="&#x18f;" horiz-adv-x="1634" 
d="M1538 717q2 -155 -51 -293t-148.5 -238.5t-234 -158t-299.5 -54.5q-215 0 -379.5 98t-251 266.5t-86.5 379.5q0 37 6 86h1229q-25 210 -167 342.5t-359 132.5q-159 0 -285 -78t-182 -209l-185 78q79 186 249 288.5t411 102.5q161 2 299.5 -55t234 -157t148.5 -238
t51 -293zM1323 633h-1022q26 -209 161 -343t343 -134q212 0 352.5 134.5t165.5 342.5z" />
    <glyph glyph-name="florin" unicode="&#x192;" horiz-adv-x="1249" 
d="M672 1233l-54 -404h338v-165h-358l-135 -1041h-182l137 1041h-275v165h295l54 404q41 317 323 317q136 0 221 -86t82 -213h-180q0 57 -33.5 90t-95.5 33q-60 0 -94.5 -36.5t-42.5 -104.5z" />
    <glyph glyph-name="uni01E2" unicode="&#x1e2;" horiz-adv-x="2066" 
d="M-49 0l1042 1434h969v-185h-696v-444h637v-160h-637v-461h696v-184h-895v311h-661l-224 -311h-231zM524 473h543v752zM1147 1784h602v-170h-602v170z" />
    <glyph glyph-name="Gcaron" unicode="&#x1e6;" horiz-adv-x="1662" 
d="M1589 717q2 -118 -32 -230.5t-100.5 -205.5t-157 -163.5t-208 -108.5t-247.5 -36q-163 -3 -305.5 57t-239.5 163t-152 239.5t-53 284.5q-2 148 53 284.5t152 238.5t239.5 162t305.5 58q165 0 307.5 -59t243.5 -166l-148 -133q-70 80 -173.5 124t-229.5 44
q-123 0 -227.5 -45t-173.5 -121.5t-107.5 -176.5t-38.5 -210t38.5 -210t107.5 -176.5t173.5 -121.5t227.5 -45q188 0 325 101.5t189 269.5l-230 266h457q4 -66 4 -84zM842 1563l-365 299h234l131 -111l131 111h233z" />
    <glyph glyph-name="gcaron" unicode="&#x1e7;" horiz-adv-x="1208" 
d="M131 -74h193q1 -95 71.5 -144.5t184.5 -49.5q136 0 216.5 74t80.5 204v154q-120 -164 -340 -164q-201 0 -328 142t-127 356q0 137 57 249.5t162 178t236 65.5q215 0 340 -162v136h188v-932q0 -219 -130.5 -344t-354.5 -125q-194 0 -322 94q-127 95 -127 268zM866 498
q0 139 -80.5 229t-214.5 90q-133 0 -215 -90t-82 -229q0 -140 80 -232q83 -92 217 -92t214.5 91t80.5 233zM600 1100l-340 301h232l108 -109l109 109h231z" />
    <glyph glyph-name="Aringacute" unicode="&#x1fa;" horiz-adv-x="1409" 
d="M776 1415l610 -1415h-215l-124 295h-685l-126 -295h-213l610 1415q-69 24 -110.5 78t-41.5 125q0 78 49.5 135t128.5 70l66 153h197l-138 -161q63 -23 101.5 -76.5t38.5 -120.5q0 -71 -40 -125.5t-108 -77.5zM705 1520q43 0 71.5 27.5t28.5 70.5q0 41 -29 68.5t-71 27.5
q-44 0 -74.5 -27.5t-30.5 -68.5q0 -42 30 -70t75 -28zM436 475h537l-268 627z" />
    <glyph glyph-name="aringacute" unicode="&#x1fb;" horiz-adv-x="1234" 
d="M418 1309q0 67 45.5 118.5t114.5 65.5l65 156h172l-131 -162q60 -17 96.5 -66t36.5 -112q0 -82 -55.5 -136.5t-140.5 -54.5t-144 55t-59 136zM526 1309q0 -38 27 -63t68 -25q39 0 65.5 25t26.5 63q0 37 -27 61.5t-65 24.5q-41 0 -68 -24t-27 -62zM903 965h189v-965h-189
v143q-126 -170 -354 -170q-206 0 -337.5 147t-131.5 365q0 214 131.5 360t337.5 146q110 0 201.5 -43t152.5 -127v144zM893 483q0 145 -84.5 239.5t-224.5 94.5q-144 0 -228 -96q-82 -94 -82 -238q0 -145 85 -239t225 -94q144 0 226.5 92t82.5 241z" />
    <glyph glyph-name="AEacute" unicode="&#x1fc;" horiz-adv-x="2066" 
d="M-49 0l1042 1434h969v-185h-696v-444h637v-160h-637v-461h696v-184h-895v311h-661l-224 -311h-231zM524 473h543v752zM1378 1589l115 299h266l-233 -299h-148z" />
    <glyph glyph-name="aeacute" unicode="&#x1fd;" horiz-adv-x="1759" 
d="M76 276q0 139 113.5 215t302.5 76h260v29q0 221 -220 221q-179 0 -233 -149l-162 73q41 117 146.5 183.5t248.5 66.5q124 0 212.5 -53t129.5 -150q50 96 147.5 149.5t215.5 53.5q202 0 324 -139.5t122 -359.5q0 -49 -6 -70h-727q14 -126 88 -201.5t193 -75.5
q183 0 260 160l158 -74q-52 -123 -159.5 -190.5t-258.5 -67.5q-126 0 -229 65.5t-154 172.5q-48 -107 -156.5 -172.5t-247.5 -65.5q-165 0 -266.5 79.5t-101.5 223.5zM952 575h543q-14 118 -82 183t-184 65q-114 0 -186 -65.5t-91 -182.5zM752 418h-260q-220 0 -220 -139
q0 -68 50 -104t137 -36q133 0 213 78t80 201zM797 1108l114 297h256l-225 -297h-145z" />
    <glyph glyph-name="Oslashacute" unicode="&#x1fe;" horiz-adv-x="1685" 
d="M1591 717q2 -148 -52.5 -284.5t-151 -239.5t-238.5 -163t-305 -57q-221 0 -395 103l-80 -105h-193l150 195q-111 105 -171.5 248.5t-60.5 302.5q-2 148 53 284.5t152 238.5t239.5 162t305.5 58q222 0 391 -100l76 98h194l-145 -190q110 -103 170.5 -246.5t60.5 -304.5z
M446 326l670 878q-123 66 -272 66q-123 0 -227.5 -45t-173.5 -121.5t-107.5 -176.5t-38.5 -210q0 -114 38 -215.5t111 -175.5zM1389 717q0 234 -150 393l-672 -879q122 -67 277 -67q124 0 228 45t172.5 121t106.5 176t38 211zM774 1583l115 299h266l-233 -299h-148z" />
    <glyph glyph-name="oslashacute" unicode="&#x1ff;" horiz-adv-x="1187" 
d="M1108 483q0 -221 -146 -365.5t-368 -144.5q-135 0 -256 62l-57 -82h-127l100 139q-82 70 -128 171.5t-46 219.5q0 219 147 363.5t367 144.5q140 0 256 -61l59 84h125l-100 -140q174 -142 174 -391zM356 238l394 553q-65 36 -156 36q-144 0 -238 -98.5t-94 -245.5
q0 -145 94 -245zM926 483q0 145 -95 246l-393 -553q67 -37 156 -37q145 0 238.5 98.5t93.5 245.5zM514 1133l115 297h256l-226 -297h-145z" />
    <glyph glyph-name="uni0218" unicode="&#x218;" horiz-adv-x="1177" 
d="M66 311l172 82q31 -112 119.5 -176.5t213.5 -64.5q145 0 237.5 71t92.5 191q0 102 -65 163t-193 95l-154 43q-342 94 -342 372q0 164 121.5 268.5t298.5 104.5q144 0 259 -68.5t159 -183.5l-172 -86q-30 77 -95 118.5t-151 41.5q-96 0 -159.5 -51t-63.5 -135
q0 -79 49.5 -125.5t151.5 -73.5l149 -41q404 -115 404 -436q0 -130 -71 -233t-191 -158.5t-265 -55.5q-177 0 -323 93q-141 89 -182 245zM383 -473l106 313h246l-227 -313h-125z" />
    <glyph glyph-name="uni0219" unicode="&#x219;" horiz-adv-x="888" 
d="M61 203l162 76q26 -67 84.5 -103.5t138.5 -36.5q77 0 128 34t51 93q0 100 -146 144l-117 32q-253 76 -253 277q0 120 99 195t234 75q114 0 199 -46t123 -132l-162 -74q-41 86 -160 86q-60 0 -98.5 -26t-38.5 -74q0 -42 31.5 -68t93.5 -45l107 -30q134 -36 208 -114
t74 -192q0 -135 -109 -218t-264 -83q-143 0 -248 62.5t-137 167.5zM231 -473l107 313h246l-228 -313h-125z" />
    <glyph glyph-name="uni021A" unicode="&#x21a;" horiz-adv-x="1198" 
d="M500 1253h-463v181h1122v-181h-461v-1253h-198v1253zM375 -473l106 313h246l-227 -313h-125z" />
    <glyph glyph-name="uni021B" unicode="&#x21b;" horiz-adv-x="753" 
d="M416 1294v-329h321v-172h-321v-793h-189v793h-196l303 501h82zM96 -473l107 313h246l-228 -313h-125z" />
    <glyph glyph-name="uni021C" unicode="&#x21c;" horiz-adv-x="1077" 
d="M483 14l-331 -129l-70 166l334 131q185 74 283 153.5t98 188.5q0 121 -95.5 187.5t-259.5 66.5h-123l275 471h-524v185h831l-307 -523q196 -33 301.5 -132.5t105.5 -262.5q0 -177 -147 -297q-141 -118 -371 -205z" />
    <glyph glyph-name="uni021D" unicode="&#x21d;" horiz-adv-x="985" 
d="M475 -260l-334 -117l-65 178l330 113q317 108 317 281q0 94 -80 134t-229 40h-150l279 419h-504v177h819l-293 -428q162 -19 257.5 -110.5t95.5 -236.5q0 -300 -443 -450z" />
    <glyph glyph-name="uni0232" unicode="&#x232;" horiz-adv-x="1353" 
d="M578 467l-545 967h231l414 -744l409 744h234l-545 -967v-467h-198v467zM377 1733h602v-170h-602v170z" />
    <glyph glyph-name="uni0233" unicode="&#x233;" horiz-adv-x="1097" 
d="M862 965h207l-567 -1375h-195l158 392l-438 983h206l328 -748zM246 1323h588v-162h-588v162z" />
    <glyph glyph-name="uni0237" unicode="&#x237;" horiz-adv-x="479" 
d="M145 -410v1375h189v-1375h-189z" />
    <glyph glyph-name="uni0259" unicode="&#x259;" horiz-adv-x="1124" 
d="M1042 481q0 -220 -135.5 -364t-353.5 -144q-217 0 -347 143t-130 363q0 35 6 72h766q-19 123 -97 195.5t-198 72.5q-94 0 -168 -42t-117 -120l-164 74q60 124 177.5 192t271.5 68q218 0 353.5 -145t135.5 -365zM844 397h-572q19 -119 91.5 -186.5t189.5 -67.5
q115 0 192.5 69.5t98.5 184.5z" />
    <glyph glyph-name="uni02BB" unicode="&#x2bb;" horiz-adv-x="505" 
d="M158 1190v323h248l-140 -323h-108z" />
    <glyph glyph-name="uni02BC" unicode="&#x2bc;" horiz-adv-x="505" 
d="M354 1501v-323h-248l142 323h106z" />
    <glyph glyph-name="circumflex" unicode="&#x2c6;" 
d="M614 1530l340 -324h-211l-129 131l-129 -131h-211z" />
    <glyph glyph-name="caron" unicode="&#x2c7;" 
d="M614 1159l-340 324h211l129 -131l129 131h211z" />
    <glyph glyph-name="breve" unicode="&#x2d8;" 
d="M612 1176q-149 0 -247 88q-97 91 -97 229h189q0 -70 43 -115t114 -45t114.5 45t43.5 115h189q0 -138 -100.5 -227.5t-248.5 -89.5z" />
    <glyph glyph-name="dotaccent" unicode="&#x2d9;" 
d="M473 1399q0 56 39.5 92.5t95.5 36.5t94.5 -36.5t38.5 -92.5t-38.5 -92.5t-94.5 -36.5t-95.5 36.5t-39.5 92.5z" />
    <glyph glyph-name="ring" unicode="&#x2da;" 
d="M379 1370q0 98 71 165t175 67t172.5 -66.5t68.5 -165.5t-68.5 -165t-172.5 -66t-175 66.5t-71 164.5zM733 1370q0 44 -30.5 73.5t-77.5 29.5t-79 -29.5t-32 -73.5t32 -74t79 -30t77.5 29.5t30.5 74.5z" />
    <glyph glyph-name="ogonek" unicode="&#x2db;" 
d="M745 -227l29 -111q-68 -45 -151 -45q-81 0 -135 49t-54 127q0 60 37 111t109 104l65 49l98 -57l-77 -55q-47 -32 -70 -60t-23 -61q0 -35 24.5 -57.5t61.5 -22.5q43 0 86 29z" />
    <glyph glyph-name="tilde" unicode="&#x2dc;" 
d="M606 1206q-65 43 -96 43q-96 0 -96 -106h-150q-6 117 49.5 184.5t155.5 67.5q40 0 74.5 -15t83.5 -49q65 -43 96 -43q94 0 94 107h150q6 -117 -49 -184.5t-158 -67.5q-39 0 -73.5 15t-80.5 48z" />
    <glyph glyph-name="hungarumlaut" unicode="&#x2dd;" 
d="M266 1141l115 311h235l-215 -311h-135zM657 1141l115 311h236l-215 -311h-136z" />
    <glyph glyph-name="gravecomb" unicode="&#x300;" horiz-adv-x="0" 
d="M-512 1163h-145l-224 299h254z" />
    <glyph glyph-name="acutecomb" unicode="&#x301;" horiz-adv-x="0" 
d="M-770 1133l115 297h256l-226 -297h-145z" />
    <glyph glyph-name="uni0302" unicode="&#x302;" horiz-adv-x="0" 
d="M-963 1137l349 303l348 -303h-234l-114 108l-115 -108h-234z" />
    <glyph glyph-name="tildecomb" unicode="&#x303;" horiz-adv-x="0" 
d="M-629 1198q-70 41 -106 41q-71 0 -68 -90h-141q-2 10 -2 45q0 90 47.5 138t142.5 48q34 0 65 -11.5t89 -41.5q71 -41 104 -41q73 0 70 90h141q2 -10 2 -41q0 -190 -192 -190q-22 0 -47.5 7.5t-40 14t-64.5 31.5z" />
    <glyph glyph-name="uni0304" unicode="&#x304;" horiz-adv-x="0" 
d="M-907 1335h588v-161h-588v161z" />
    <glyph glyph-name="uni0306" unicode="&#x306;" horiz-adv-x="0" 
d="M-616 1124q-140 0 -229 83.5t-89 217.5h184q0 -67 37 -108t99 -41q61 0 98 41.5t37 107.5h182q0 -134 -89.5 -217.5t-229.5 -83.5z" />
    <glyph glyph-name="uni0307" unicode="&#x307;" horiz-adv-x="0" 
d="M-752 1262q0 55 38.5 89.5t95.5 34.5q55 0 90.5 -34.5t35.5 -89.5t-37 -91t-89 -36q-56 0 -95 36t-39 91z" />
    <glyph glyph-name="uni0308" unicode="&#x308;" horiz-adv-x="0" 
d="M-938 1260q0 54 37 88t92 34t90 -33.5t35 -88.5q0 -53 -36.5 -88t-88.5 -35q-55 0 -92 35t-37 88zM-547 1260q0 55 37.5 88.5t93.5 33.5q55 0 90 -33.5t35 -88.5q0 -53 -36.5 -88t-88.5 -35q-56 0 -93.5 34.5t-37.5 88.5z" />
    <glyph glyph-name="uni030A" unicode="&#x30a;" horiz-adv-x="0" 
d="M-813 1321q0 84 60.5 139.5t148.5 55.5t146.5 -55.5t58.5 -139.5q0 -85 -58.5 -142t-146.5 -57t-148.5 57.5t-60.5 141.5zM-518 1321q0 35 -24.5 58.5t-61.5 23.5q-38 0 -64 -23.5t-26 -58.5q0 -37 25.5 -60.5t64.5 -23.5q37 0 61.5 23.5t24.5 60.5z" />
    <glyph glyph-name="uni030B" unicode="&#x30b;" horiz-adv-x="0" 
d="M-823 1178l114 311h236l-215 -311h-135zM-487 1178l112 311h238l-217 -311h-133z" />
    <glyph glyph-name="uni030C" unicode="&#x30c;" horiz-adv-x="0" 
d="M-614 1112l-340 301h231l109 -108l108 108h232z" />
    <glyph glyph-name="uni0312" unicode="&#x312;" horiz-adv-x="0" 
d="M-152 1536v-324h-247l141 324h106z" />
    <glyph glyph-name="uni0326" unicode="&#x326;" horiz-adv-x="0" 
d="M-838 -473l107 313h246l-228 -313h-125z" />
    <glyph glyph-name="uni0327" unicode="&#x327;" horiz-adv-x="0" 
d="M-815 -348l43 84q42 -25 76 -25q36 0 57 16t21 46q0 59 -87 80l-73 14l102 176l105 -43l-50 -76q61 -14 98.5 -56t37.5 -99q0 -70 -53.5 -112t-133.5 -42q-76 0 -143 37z" />
    <glyph glyph-name="uni0328" unicode="&#x328;" horiz-adv-x="0" 
d="M-483 -227l28 -109q-68 -45 -151 -45q-81 0 -134 48.5t-53 125.5q0 60 36 111t108 104l67 49l97 -57l-78 -55q-90 -57 -90 -121q0 -32 24.5 -55t59.5 -23q45 0 86 27z" />
    <glyph glyph-name="uni0335" unicode="&#x335;" horiz-adv-x="0" 
d="M-897 727h643v-154h-643v154z" />
    <glyph glyph-name="uni0336" unicode="&#x336;" horiz-adv-x="0" 
d="M-1536 1161h1448v-123h-1448v123z" />
    <glyph glyph-name="uni0337" unicode="&#x337;" horiz-adv-x="0" 
d="M-1036 16l753 1061h127l-755 -1061h-125z" />
    <glyph glyph-name="uni0338" unicode="&#x338;" horiz-adv-x="0" 
d="M-1255 -27l1134 1487h195l-1137 -1487h-192z" />
    <glyph glyph-name="uni1E6A" unicode="&#x1e6a;" horiz-adv-x="1198" 
d="M500 1253h-463v181h1122v-181h-461v-1253h-198v1253zM465 1718q0 55 38.5 91t94.5 36t93.5 -36t37.5 -91t-37.5 -91t-93.5 -36t-94.5 36t-38.5 91z" />
    <glyph glyph-name="uni1E6B" unicode="&#x1e6b;" horiz-adv-x="753" 
d="M416 1294v-329h321v-172h-321v-793h-189v793h-196l303 501h82zM219 1530q0 55 38.5 90t94.5 35q55 0 91 -35t36 -90q0 -54 -37.5 -90.5t-89.5 -36.5q-56 0 -94.5 36t-38.5 91z" />
    <glyph glyph-name="Wgrave" unicode="&#x1e80;" horiz-adv-x="2224" 
d="M1055 1448h114l412 -1081l404 1067h215l-558 -1448h-116l-414 1089l-414 -1089h-116l-557 1448h215l403 -1067zM1192 1577h-150l-231 299h266z" />
    <glyph glyph-name="wgrave" unicode="&#x1e81;" horiz-adv-x="1652" 
d="M457 -12l-418 977h213l250 -607l291 621h65l291 -621l252 607h215l-420 -977h-66l-303 637l-305 -637h-65zM903 1143h-145l-223 299h253z" />
    <glyph glyph-name="Wacute" unicode="&#x1e82;" horiz-adv-x="2224" 
d="M1055 1448h114l412 -1081l404 1067h215l-558 -1448h-116l-414 1089l-414 -1089h-116l-557 1448h215l403 -1067zM1042 1577l115 299h266l-233 -299h-148z" />
    <glyph glyph-name="wacute" unicode="&#x1e83;" horiz-adv-x="1652" 
d="M457 -12l-418 977h213l250 -607l291 621h65l291 -621l252 607h215l-420 -977h-66l-303 637l-305 -637h-65zM745 1133l115 297h256l-225 -297h-146z" />
    <glyph glyph-name="Wdieresis" unicode="&#x1e84;" horiz-adv-x="2224" 
d="M1055 1448h114l412 -1081l404 1067h215l-558 -1448h-116l-414 1089l-414 -1089h-116l-557 1448h215l403 -1067zM774 1714q0 56 37.5 92.5t93.5 36.5q55 0 92 -36.5t37 -92.5q0 -55 -37 -91t-92 -36t-93 36t-38 91zM1188 1714q0 56 38.5 92.5t94.5 36.5q55 0 92 -36.5
t37 -92.5q0 -55 -37 -91t-92 -36t-94 36t-39 91z" />
    <glyph glyph-name="wdieresis" unicode="&#x1e85;" horiz-adv-x="1652" 
d="M457 -12l-418 977h213l250 -607l291 621h65l291 -621l252 607h215l-420 -977h-66l-303 637l-305 -637h-65zM502 1260q0 54 37 88t92 34t90 -33.5t35 -88.5q0 -53 -36.5 -88t-88.5 -35q-55 0 -92 35t-37 88zM893 1260q0 55 37.5 88.5t93.5 33.5q55 0 90 -33.5t35 -88.5
q0 -53 -36.5 -88t-88.5 -35q-56 0 -93.5 34.5t-37.5 88.5z" />
    <glyph glyph-name="uni1E9E" unicode="&#x1e9e;" horiz-adv-x="1452" 
d="M522 78l72 166q43 -37 111 -59.5t141 -22.5q141 0 230 84t89 219q0 136 -88 220.5t-231 84.5l-103 -2q-25 -2 -100 -2l223 481h-483v-1249h-199v1436h969l-238 -494q200 -19 325.5 -145t125.5 -330q0 -220 -140.5 -355t-365.5 -135q-199 0 -338 103z" />
    <glyph glyph-name="uni1EBC" unicode="&#x1ebc;" horiz-adv-x="1220" 
d="M184 1434h932v-185h-733v-432h676v-182h-676v-451h733v-184h-932v1434zM629 1636q-70 41 -97 41q-78 0 -69 -98h-150q-8 112 44 178t153 66q57 0 162 -62q71 -41 98 -41q71 0 68 103h147q8 -114 -43 -180t-154 -66q-33 0 -66 13t-93 46z" />
    <glyph glyph-name="uni1EBD" unicode="&#x1ebd;" horiz-adv-x="1124" 
d="M1042 414h-766q19 -123 97 -196t198 -73q94 0 168 42t117 120l164 -74q-60 -124 -177.5 -192t-271.5 -68q-218 0 -353.5 145t-135.5 365t135.5 364t353.5 144q217 0 347.5 -143t130.5 -363q0 -27 -7 -71zM281 567h571q-19 119 -91.5 186.5t-189.5 67.5q-115 0 -192 -69.5
t-98 -184.5zM559 1171q-70 41 -106 41q-71 0 -68 -90h-141q-2 10 -2 45q0 90 47.5 138.5t142.5 48.5q34 0 64 -11.5t90 -42.5q70 -40 104 -40q73 0 70 90h141q2 -10 2 -41q0 -191 -192 -191q-22 0 -47.5 7.5t-40 14t-64.5 31.5z" />
    <glyph glyph-name="Ygrave" unicode="&#x1ef2;" horiz-adv-x="1353" 
d="M578 467l-545 967h231l414 -744l409 744h234l-545 -967v-467h-198v467zM758 1538h-150l-231 299h266z" />
    <glyph glyph-name="ygrave" unicode="&#x1ef3;" horiz-adv-x="1097" 
d="M862 965h207l-567 -1375h-195l158 392l-438 983h206l328 -748zM616 1143h-145l-223 299h254z" />
    <glyph glyph-name="uni1EF8" unicode="&#x1ef8;" horiz-adv-x="1353" 
d="M578 467l-545 967h231l414 -744l409 744h234l-545 -967v-467h-198v467zM659 1597q-70 41 -96 41q-78 0 -69 -98h-150q-8 112 44 178t153 66q56 0 161 -62q71 -41 99 -41q70 0 67 103h148q8 -114 -43 -180t-154 -66q-33 0 -66.5 13t-93.5 46z" />
    <glyph glyph-name="uni1EF9" unicode="&#x1ef9;" horiz-adv-x="1097" 
d="M862 965h207l-567 -1375h-195l158 392l-438 983h206l328 -748zM526 1171q-70 41 -106 41q-71 0 -68 -90h-141q-2 10 -2 45q0 90 47.5 138.5t142.5 48.5q34 0 64 -11.5t90 -42.5q70 -40 104 -40q73 0 70 90h141q2 -10 2 -41q0 -191 -192 -191q-22 0 -47.5 7.5t-40 14
t-64.5 31.5z" />
    <glyph glyph-name="endash" unicode="&#x2013;" horiz-adv-x="1134" 
d="M127 659h881v-167h-881v167z" />
    <glyph glyph-name="emdash" unicode="&#x2014;" horiz-adv-x="1622" 
d="M127 492v167h1368v-167h-1368z" />
    <glyph glyph-name="quoteleft" unicode="&#x2018;" horiz-adv-x="479" 
d="M240 1434h108v-588h-262z" />
    <glyph glyph-name="quoteright" unicode="&#x2019;" horiz-adv-x="456" 
d="M240 846h-107v588h262z" />
    <glyph glyph-name="quotesinglbase" unicode="&#x201a;" horiz-adv-x="512" 
d="M244 -252h-107v588h262z" />
    <glyph glyph-name="quotedblleft" unicode="&#x201c;" horiz-adv-x="843" 
d="M240 1434h108v-588h-262zM604 1434h107v-588h-262z" />
    <glyph glyph-name="quotedblright" unicode="&#x201d;" horiz-adv-x="821" 
d="M240 844h-107v588h262zM604 844h-108v588h262z" />
    <glyph glyph-name="quotedblbase" unicode="&#x201e;" horiz-adv-x="876" 
d="M244 -252h-107v588h262zM608 -252h-108v588h262z" />
    <glyph glyph-name="dagger" unicode="&#x2020;" horiz-adv-x="798" 
d="M80 1061v131h250v242h141v-242h248v-131h-248v-547h-141v547h-250z" />
    <glyph glyph-name="daggerdbl" unicode="&#x2021;" horiz-adv-x="860" 
d="M360 514v231h-249v132h249v202h-249v129h249v226h142v-226h248v-129h-248v-202h248v-132h-248v-231h-142z" />
    <glyph glyph-name="bullet" unicode="&#x2022;" horiz-adv-x="833" 
d="M152 662q0 112 78.5 184t187.5 72t187.5 -72t78.5 -184q0 -111 -79 -185t-187 -74t-187 74t-79 185z" />
    <glyph glyph-name="ellipsis" unicode="&#x2026;" horiz-adv-x="1421" 
d="M106 121q0 62 45 104.5t109 42.5q62 0 107 -42.5t45 -104.5t-45 -105t-107 -43q-64 0 -109 43t-45 105zM559 121q0 62 45 104.5t109 42.5q62 0 106.5 -42.5t44.5 -104.5t-44.5 -105t-106.5 -43q-64 0 -109 43t-45 105zM1010 121q0 62 44.5 104.5t108.5 42.5
q62 0 107 -42.5t45 -104.5t-45 -105t-107 -43q-63 0 -108 42.5t-45 105.5z" />
    <glyph glyph-name="perthousand" unicode="&#x2030;" horiz-adv-x="2459" 
d="M66 1108q0 146 103 249t251 103q149 0 252.5 -102.5t103.5 -249.5q0 -143 -104 -246.5t-252 -103.5q-147 0 -250.5 104t-103.5 246zM1376 1434l-884 -1434h-191l887 1434h188zM621 1108q0 83 -58 142t-143 59q-84 0 -140.5 -59t-56.5 -142t56.5 -141t140.5 -58
q85 0 143 58t58 141zM903 324q0 146 103 249t251 103q149 0 253 -103t104 -249q0 -143 -104.5 -247t-252.5 -104q-146 0 -250 104.5t-104 246.5zM1688 324q0 147 103.5 249.5t252.5 102.5q148 0 251 -103t103 -249q0 -143 -103.5 -247t-250.5 -104t-251.5 104t-104.5 247z
M1460 324q0 82 -59 141t-144 59q-84 0 -140 -58.5t-56 -141.5t56 -141t140 -58q86 0 144.5 58.5t58.5 140.5zM2245 324q0 82 -58.5 141t-144.5 59q-84 0 -140.5 -58.5t-56.5 -141.5t56.5 -141t140.5 -58q86 0 144.5 58.5t58.5 140.5z" />
    <glyph glyph-name="minute" unicode="&#x2032;" horiz-adv-x="493" 
d="M246 1524h188l-164 -715h-188z" />
    <glyph glyph-name="second" unicode="&#x2033;" horiz-adv-x="843" 
d="M246 1524h188l-164 -715h-188zM596 1524h188l-163 -715h-189z" />
    <glyph glyph-name="guilsinglleft" unicode="&#x2039;" horiz-adv-x="743" 
d="M453 137l-381 438l381 437h215l-377 -437l377 -438h-215z" />
    <glyph glyph-name="guilsinglright" unicode="&#x203a;" horiz-adv-x="743" 
d="M293 1012l379 -437l-379 -438h-217l381 438l-381 437h217z" />
    <glyph glyph-name="fraction" unicode="&#x2044;" horiz-adv-x="307" 
d="M-416 0l991 1434h140l-991 -1434h-140z" />
    <glyph glyph-name="uni2070" unicode="&#x2070;" horiz-adv-x="776" 
d="M66 1194q0 187 88 299.5t235 112.5q146 0 234 -113t88 -299q0 -189 -88 -301.5t-234 -112.5q-148 0 -235.5 112.5t-87.5 301.5zM584 1194q-2 135 -55 217t-140 82q-88 0 -141.5 -83t-52.5 -216q0 -135 53 -218t141 -83q88 2 141.5 84t53.5 217z" />
    <glyph glyph-name="uni2074" unicode="&#x2074;" horiz-adv-x="681" 
d="M543 1606v-580h100v-108h-100v-123h-113v123h-420l457 688h76zM203 1024h227v338z" />
    <glyph glyph-name="uni2075" unicode="&#x2075;" horiz-adv-x="679" 
d="M39 950l90 70q26 -57 75 -91t118 -34q85 0 134.5 46.5t49.5 121.5q0 76 -50.5 122t-136.5 46q-95 0 -210 -41l69 405h375v-108h-281l-28 -168q43 14 110 14q122 0 197.5 -74.5t75.5 -191.5q0 -125 -84.5 -205t-218.5 -80q-100 0 -174 46t-111 122z" />
    <glyph glyph-name="uni2076" unicode="&#x2076;" horiz-adv-x="706" 
d="M59 1075q0 68 28 134t83 151l154 233h141l-180 -258q43 29 98 29q120 0 201 -84q80 -83 80 -205q0 -121 -87.5 -207t-216.5 -86q-134 0 -217.5 83t-83.5 210zM543 1073q0 75 -52.5 127.5t-130.5 52.5q-80 0 -130 -52.5t-50 -127.5q0 -76 50 -127t130 -51q79 0 131 52
t52 126z" />
    <glyph glyph-name="uni2077" unicode="&#x2077;" horiz-adv-x="593" 
d="M111 803l299 686h-375v110h545l-342 -796h-127z" />
    <glyph glyph-name="uni2078" unicode="&#x2078;" horiz-adv-x="702" 
d="M211 1282q-33 21 -53.5 59t-20.5 82q0 80 60.5 133.5t152.5 53.5t152.5 -53.5t60.5 -133.5q0 -44 -20.5 -82t-53.5 -59q70 -31 112 -92.5t42 -138.5q0 -115 -84 -193q-82 -76 -209 -76q-129 0 -211 76t-82 193q0 74 42 137t112 94zM350 1319q47 0 76 27.5t29 70.5
q0 41 -29 67.5t-76 26.5q-44 0 -73 -26.5t-29 -67.5q0 -43 29 -70.5t73 -27.5zM350 895q78 0 127 44.5t49 113.5t-49 113t-127 44t-127 -44t-49 -113t49 -113.5t127 -44.5z" />
    <glyph glyph-name="uni2079" unicode="&#x2079;" horiz-adv-x="684" 
d="M627 1337q0 -74 -28 -141t-85 -149l-174 -244h-141l219 303q-44 -33 -105 -33q-116 0 -192 76.5t-76 187.5q0 117 83.5 197t207.5 80q128 0 209.5 -78.5t81.5 -198.5zM172 1337q0 -67 46.5 -112t117.5 -45q76 0 120 44t44 113t-44 113.5t-120 44.5q-71 0 -117.5 -45.5
t-46.5 -112.5z" />
    <glyph glyph-name="uni207F" unicode="&#x207f;" horiz-adv-x="800" 
d="M135 1401h117v-76q52 86 178 86q110 0 177 -68.5t67 -177.5v-348h-111v330q0 76 -42 122t-115 46t-117.5 -45t-44.5 -119v-334h-109v584z" />
    <glyph glyph-name="uni2080" unicode="&#x2080;" horiz-adv-x="776" 
d="M66 109q0 186 88 298.5t235 112.5q146 0 234 -112.5t88 -298.5q0 -189 -88 -301.5t-234 -112.5q-148 0 -235.5 112.5t-87.5 301.5zM584 109q-2 135 -55 217t-140 82q-88 0 -141.5 -83t-52.5 -216q0 -135 53 -218.5t141 -83.5q88 2 141.5 84.5t53.5 217.5z" />
    <glyph glyph-name="uni2081" unicode="&#x2081;" horiz-adv-x="403" 
d="M170 -281v576h-145l178 227h90v-803h-123z" />
    <glyph glyph-name="uni2082" unicode="&#x2082;" horiz-adv-x="630" 
d="M27 -279l333 447q54 69 54 133q0 56 -29.5 87.5t-83.5 31.5t-84.5 -32.5t-30.5 -86.5h-114q-1 103 62.5 167t166.5 64q105 0 170.5 -62t65.5 -161q0 -84 -78 -194l-217 -285h340v-109h-555z" />
    <glyph glyph-name="uni2083" unicode="&#x2083;" horiz-adv-x="671" 
d="M35 -131l92 68q25 -54 74.5 -88.5t115.5 -34.5q82 0 132.5 45.5t50.5 117.5q0 69 -53.5 116.5t-137.5 47.5h-76l150 262h-274v109h452l-162 -285q96 -14 157.5 -81.5t61.5 -168.5q0 -121 -83.5 -198.5t-212.5 -77.5q-102 0 -176 46t-111 122z" />
    <glyph glyph-name="uni2084" unicode="&#x2084;" horiz-adv-x="681" 
d="M543 526v-579h100v-109h-100v-123h-113v123h-420l457 688h76zM203 -55h227v338z" />
    <glyph glyph-name="uni2085" unicode="&#x2085;" horiz-adv-x="679" 
d="M39 -133l90 70q26 -57 75 -91t118 -34q85 0 134.5 46.5t49.5 121.5t-50.5 121t-136.5 46q-95 0 -210 -41l69 406h375v-109h-281l-28 -167q43 14 110 14q122 0 197.5 -74.5t75.5 -191.5q0 -125 -84.5 -205t-218.5 -80q-100 0 -174 46t-111 122z" />
    <glyph glyph-name="uni2086" unicode="&#x2086;" horiz-adv-x="706" 
d="M59 -6q0 68 28 134t83 151l154 233h141l-180 -258q43 29 98 29q120 0 201 -84q80 -83 80 -205q0 -121 -87.5 -207t-216.5 -86q-134 0 -217.5 83.5t-83.5 209.5zM543 -8q0 75 -52.5 127.5t-130.5 52.5q-80 0 -130 -52.5t-50 -127.5q0 -76 50 -127t130 -51q79 0 131 52
t52 126z" />
    <glyph glyph-name="uni2087" unicode="&#x2087;" horiz-adv-x="593" 
d="M111 -283l299 686h-375v111h545l-342 -797h-127z" />
    <glyph glyph-name="uni2088" unicode="&#x2088;" horiz-adv-x="702" 
d="M211 197q-33 21 -53.5 59t-20.5 82q0 80 60.5 133t152.5 53t152.5 -53t60.5 -133q0 -44 -20.5 -82t-53.5 -59q70 -31 112 -93t42 -139q0 -112 -84 -190t-209 -78q-127 0 -211 78q-82 76 -82 190q0 75 42.5 138t111.5 94zM350 233q47 0 76 28t29 71q0 42 -29 68t-76 26
q-44 0 -73 -26.5t-29 -67.5q0 -43 29 -71t73 -28zM350 -190q78 0 127 44t49 113t-49 113.5t-127 44.5t-127 -44.5t-49 -113.5t49 -113t127 -44z" />
    <glyph glyph-name="uni2089" unicode="&#x2089;" horiz-adv-x="684" 
d="M627 252q0 -74 -28.5 -142t-84.5 -149l-174 -244h-141l219 303q-43 -32 -105 -32q-116 0 -192 76.5t-76 187.5q0 117 83.5 196.5t207.5 79.5q128 0 209.5 -78.5t81.5 -197.5zM172 252q0 -67 46.5 -112.5t117.5 -45.5q76 0 120 44.5t44 113.5t-44 113.5t-120 44.5
q-71 0 -117.5 -45.5t-46.5 -112.5z" />
    <glyph glyph-name="Euro" unicode="&#x20ac;" horiz-adv-x="1550" 
d="M1321 362l152 -124q-95 -126 -239 -195.5t-319 -69.5q-248 0 -432 140q-179 136 -247 366h-162v168h131q-2 14 -2 70q0 55 2 69h-131v168h162q68 231 247 367q183 139 432 139q177 0 321 -69.5t239 -198.5l-152 -123q-69 96 -173.5 149.5t-234.5 53.5q-163 0 -285 -85.5
t-184 -232.5h648v-168h-688l-3 -36t-2 -33t2 -34t3 -36h688v-168h-648q58 -146 181.5 -231.5t287.5 -85.5q128 0 232 52t174 148z" />
    <glyph glyph-name="uni20B9" unicode="&#x20b9;" horiz-adv-x="1234" 
d="M1106 1266h-287q43 -66 58 -146h229v-168h-227q-20 -127 -104.5 -213t-221.5 -118l-74 2l424 -623h-231l-529 788h318q102 0 164.5 67.5t62.5 172.5q0 101 -64 168.5t-163 67.5h-326v170h971v-168z" />
    <glyph glyph-name="uni2113" unicode="&#x2113;" horiz-adv-x="966" 
d="M190 483h-120v168h112v404q0 231 86 363t264 132q186 0 265 -137q82 -134 82 -358q0 -113 -33.5 -215.5t-95.5 -181.5t-158.5 -126t-214.5 -47q0 -327 241 -327q130 0 238 57l53 -160q-143 -67 -291 -67q-215 0 -321.5 129t-106.5 366zM688 1055q0 159 -34.5 242
t-121.5 83t-121 -83t-34 -242v-404q147 0 229 117q82 116 82 287z" />
    <glyph glyph-name="uni2116" unicode="&#x2116;" horiz-adv-x="2342" 
d="M1559 1116q0 139 100 241.5t254 102.5q151 0 252.5 -103t101.5 -241t-101.5 -242t-252.5 -104q-153 0 -253.5 103.5t-100.5 242.5zM186 0v1446h156l881 -1102v1090h198v-1446h-155l-881 1102v-1090h-199zM2122 1116q0 86 -59.5 145.5t-149.5 59.5q-91 0 -149 -59.5
t-58 -145.5q0 -88 58 -147.5t149 -59.5q90 0 149.5 60.5t59.5 146.5zM1612 506v139h604v-139h-604z" />
    <glyph glyph-name="uni2117" unicode="&#x2117;" horiz-adv-x="1859" 
d="M932 1602q171 3 328 -64t269.5 -180.5t178 -270t61.5 -325.5q4 -170 -61.5 -327.5t-178 -271.5t-269.5 -181t-328 -64q-172 -3 -330 64t-270.5 181t-178.5 271t-63 328q-3 169 63 325.5t178.5 270t270.5 180.5t330 64zM932 59q142 -2 271.5 53.5t221.5 150.5t145.5 225.5
t51.5 273.5q3 191 -87.5 352.5t-250.5 255t-352 90.5q-192 3 -353 -90.5t-252.5 -255t-88.5 -352.5q-2 -143 51.5 -273.5t146 -225.5t222.5 -150.5t274 -53.5zM635 350v819h373q131 0 217 -75.5t86 -198.5q0 -121 -86 -196.5t-217 -75.5h-228v-273h-145zM780 752h203
q85 0 132.5 38t47.5 107q0 67 -47.5 104t-132.5 37h-203v-286z" />
    <glyph glyph-name="trademark" unicode="&#x2122;" horiz-adv-x="1574" 
d="M68 1315v119h561v-119h-217v-498h-129v498h-215zM1419 1434v-617h-127v404l-217 -217l-217 219v-406h-131v617h86l262 -271l260 271h84z" />
    <glyph glyph-name="uni2126" unicode="&#x2126;" horiz-adv-x="1726" 
d="M1335 186h277v-186h-557v186q166 87 260 231.5t94 319.5q0 108 -38.5 204.5t-107.5 169.5t-172.5 116t-226.5 43t-227.5 -43t-173.5 -116t-107.5 -169.5t-38.5 -204.5q0 -175 94.5 -319.5t260.5 -231.5v-186h-557v186h276q-129 107 -202.5 256.5t-73.5 311.5
q-3 194 93.5 357t270 257.5t385.5 91.5q157 2 298 -53.5t240 -150.5t156 -226.5t54 -275.5q0 -162 -74 -311.5t-203 -256.5z" />
    <glyph glyph-name="estimated" unicode="&#x212e;" horiz-adv-x="1658" 
d="M98 739q-3 163 56 308t160.5 246t239.5 158t288 54q150 3 287.5 -54t238.5 -158t160 -245.5t57 -308.5v-34h-1182v-502q187 -164 478 -164q178 0 327 77.5t240 217.5l57 -41q-100 -152 -264.5 -237t-359.5 -85q-220 -3 -400 94t-283 274.5t-100 399.5zM403 1278v-510h887
v502q-190 168 -448 168q-245 0 -439 -160z" />
    <glyph glyph-name="uni2153" unicode="&#x2153;" horiz-adv-x="1488" 
d="M250 639v575h-146l179 228h90v-803h-123zM100 0l992 1434h139l-991 -1434h-140zM834 150l92 67q25 -54 74.5 -88.5t115.5 -34.5q81 0 131.5 46t50.5 118q0 69 -53 116.5t-137 47.5h-76l150 262h-275v109h453l-162 -285q96 -14 157.5 -81.5t61.5 -168.5q0 -121 -84 -198.5
t-213 -77.5q-101 0 -175 46t-111 122z" />
    <glyph glyph-name="uni2154" unicode="&#x2154;" horiz-adv-x="1611" 
d="M27 643l333 447q54 69 54 133q0 56 -29.5 87t-83.5 31t-84.5 -32t-30.5 -86h-114q-1 103 62.5 167t166.5 64q105 0 170.5 -62t65.5 -161q0 -85 -78 -195l-217 -284h340v-109h-555zM223 0l991 1434h140l-992 -1434h-139zM956 150l93 67q25 -54 74.5 -88.5t115.5 -34.5
q81 0 131.5 46t50.5 118q0 69 -53 116.5t-137 47.5h-76l150 262h-275v109h453l-162 -285q96 -14 157.5 -81.5t61.5 -168.5q0 -121 -84 -198.5t-213 -77.5q-102 0 -176 46t-111 122z" />
    <glyph glyph-name="oneeighth" unicode="&#x215b;" horiz-adv-x="1470" 
d="M250 639v575h-146l179 228h90v-803h-123zM100 0l992 1434h139l-991 -1434h-140zM958 479q-33 20 -53 59t-20 83q0 80 60.5 133t152.5 53t152.5 -53t60.5 -133q0 -44 -20.5 -82.5t-53.5 -59.5q70 -31 112 -92.5t42 -138.5q0 -115 -84 -193q-81 -75 -209 -75
q-130 0 -211 75q-82 76 -82 193q0 75 42 137.5t111 93.5zM1098 516q47 0 75.5 27.5t28.5 70.5q0 42 -28.5 68.5t-75.5 26.5q-44 0 -73.5 -27t-29.5 -68q0 -43 29.5 -70.5t73.5 -27.5zM1098 92q78 0 127 44.5t49 113.5t-49 113.5t-127 44.5t-127 -44.5t-49 -113.5t49 -113.5
t127 -44.5z" />
    <glyph glyph-name="threeeighths" unicode="&#x215c;" horiz-adv-x="1642" 
d="M61 788l93 68q25 -54 74.5 -88.5t115.5 -34.5q81 0 131.5 46t50.5 118q0 69 -53 116.5t-137 47.5h-76l150 262h-275v109h453l-162 -285q96 -14 157.5 -81.5t61.5 -168.5q0 -121 -84 -198.5t-213 -77.5q-102 0 -176 45.5t-111 121.5zM272 0l992 1434h139l-991 -1434h-140z
M1130 479q-33 20 -53 59t-20 83q0 80 60.5 133t152.5 53t152.5 -53t60.5 -133q0 -44 -20.5 -82.5t-53.5 -59.5q70 -31 112 -92.5t42 -138.5q0 -115 -84 -193q-81 -75 -209 -75q-130 0 -211 75q-82 76 -82 193q0 75 42 137.5t111 93.5zM1270 516q47 0 75.5 27.5t28.5 70.5
q0 42 -28.5 68.5t-75.5 26.5q-44 0 -73.5 -27t-29.5 -68q0 -43 29.5 -70.5t73.5 -27.5zM1270 92q78 0 127 44.5t49 113.5t-49 113.5t-127 44.5t-127 -44.5t-49 -113.5t49 -113.5t127 -44.5z" />
    <glyph glyph-name="fiveeighths" unicode="&#x215d;" horiz-adv-x="1640" 
d="M61 788l91 70q26 -57 74.5 -91t117.5 -34q85 0 134.5 46.5t49.5 121.5q0 76 -50.5 122t-135.5 46q-96 0 -211 -41l70 406h374v-109h-280l-29 -168q43 14 111 14q122 0 197 -74.5t75 -191.5q0 -125 -84.5 -204.5t-218.5 -79.5q-100 0 -174 46t-111 121zM270 0l992 1434
h139l-991 -1434h-140zM1128 479q-33 20 -53 59t-20 83q0 80 60.5 133t152.5 53t152.5 -53t60.5 -133q0 -44 -20.5 -82.5t-53.5 -59.5q70 -31 112 -92.5t42 -138.5q0 -115 -84 -193q-81 -75 -209 -75q-130 0 -211 75q-82 76 -82 193q0 75 42 137.5t111 93.5zM1268 516
q47 0 75.5 27.5t28.5 70.5q0 42 -28.5 68.5t-75.5 26.5q-44 0 -73.5 -27t-29.5 -68q0 -43 29.5 -70.5t73.5 -27.5zM1268 92q78 0 127 44.5t49 113.5t-49 113.5t-127 44.5t-127 -44.5t-49 -113.5t49 -113.5t127 -44.5z" />
    <glyph glyph-name="seveneighths" unicode="&#x215e;" horiz-adv-x="1474" 
d="M152 639l299 686h-375v111h545l-342 -797h-127zM104 0l992 1434h139l-991 -1434h-140zM963 479q-33 21 -53.5 59.5t-20.5 82.5q0 80 60.5 133t152.5 53t152.5 -53t60.5 -133q0 -44 -20.5 -82.5t-53.5 -59.5q70 -31 112 -92.5t42 -138.5q0 -115 -84 -193q-81 -75 -209 -75
q-130 0 -211 75q-82 76 -82 193q0 74 42 137t112 94zM1102 516q47 0 75.5 27.5t28.5 70.5q0 42 -28.5 68.5t-75.5 26.5q-44 0 -73.5 -27t-29.5 -68q0 -43 29.5 -70.5t73.5 -27.5zM1102 92q78 0 127 44.5t49 113.5t-49 113.5t-127 44.5t-127 -44.5t-49 -113.5t49 -113.5
t127 -44.5z" />
    <glyph glyph-name="arrowleft" unicode="&#x2190;" horiz-adv-x="1374" 
d="M55 573l588 590l117 -119l-387 -387h925v-168l-923 3l385 -388l-117 -118z" />
    <glyph glyph-name="arrowup" unicode="&#x2191;" horiz-adv-x="1280" 
d="M723 -10h-168v928l-385 -390l-119 117l590 588l588 -586l-119 -119l-387 387v-925z" />
    <glyph glyph-name="arrowright" unicode="&#x2192;" horiz-adv-x="1374" 
d="M1317 573l-586 -587l-117 118l385 388l-925 -3v168h925l-385 387l117 119z" />
    <glyph glyph-name="arrowdown" unicode="&#x2193;" horiz-adv-x="1282" 
d="M641 -10l-588 585l119 117l385 -387v928h168v-928l385 387l119 -117z" />
    <glyph glyph-name="uni2196" unicode="&#x2196;" horiz-adv-x="1173" 
d="M168 997h831v-166h-546l653 -651l-117 -121l-653 656v-547h-168v829z" />
    <glyph glyph-name="uni2197" unicode="&#x2197;" horiz-adv-x="1175" 
d="M1006 997v-831h-168v549l-652 -656l-118 119l653 653h-547v166h832z" />
    <glyph glyph-name="uni2198" unicode="&#x2198;" horiz-adv-x="1177" 
d="M1004 59h-832v166h547l-653 654l118 118l652 -655v549h168v-832z" />
    <glyph glyph-name="uni2199" unicode="&#x2199;" horiz-adv-x="1177" 
d="M174 59v832h168v-549l653 655l117 -118l-653 -654h547v-166h-832z" />
    <glyph glyph-name="partialdiff" unicode="&#x2202;" horiz-adv-x="1298" 
d="M76 500q0 143 67.5 260.5t188 185.5t268.5 68q78 0 149.5 -23.5t122 -61t85 -79t49.5 -82.5q-6 232 -121 383q-116 152 -316 152q-148 0 -278 -101l-94 141q159 130 381 130q194 0 334.5 -97.5t212 -270t71.5 -400.5q0 -216 -69.5 -380t-200 -254.5t-305.5 -90.5
q-152 -3 -279 68.5t-198 192t-68 259.5zM965 510q0 132 -100.5 230t-241.5 98q-145 0 -244.5 -100t-99.5 -240q0 -143 98.5 -241.5t245.5 -98.5q102 0 182.5 54.5t120 133.5t39.5 164z" />
    <glyph glyph-name="uni2206" unicode="&#x2206;" horiz-adv-x="1431" 
d="M797 1434l585 -1434h-1333l592 1434h156zM324 184h784l-393 959z" />
    <glyph glyph-name="productmicro" unicode="&#x220f;" horiz-adv-x="1464" 
d="M1278 1434v-1844h-199v1659h-694v-1659h-199v1844h1092z" />
    <glyph glyph-name="summation" unicode="&#x2211;" horiz-adv-x="1220" 
d="M61 1434h1080v-185h-774l366 -737l-366 -737h778v-185h-1084l463 922z" />
    <glyph glyph-name="minus" unicode="&#x2212;" 
d="M117 492v165h995v-165h-995z" />
    <glyph glyph-name="uni2215" unicode="&#x2215;" horiz-adv-x="1046" 
d="M-45 0l991 1434h139l-991 -1434h-139z" />
    <glyph glyph-name="uni2219" unicode="&#x2219;" horiz-adv-x="716" 
d="M207 557q0 63 45 105.5t108 42.5q62 0 107 -43t45 -105t-45 -104.5t-107 -42.5q-64 0 -108.5 42.5t-44.5 104.5z" />
    <glyph glyph-name="radical" unicode="&#x221a;" horiz-adv-x="1187" 
d="M401 -12l-393 880h199l270 -622l537 1278h198l-655 -1536h-156z" />
    <glyph glyph-name="infinity" unicode="&#x221e;" horiz-adv-x="1560" 
d="M109 575q0 140 92.5 235t228.5 95q101 0 181.5 -51t168.5 -166q88 115 168.5 166t181.5 51q136 0 229 -95t93 -235q0 -139 -93 -235t-229 -96q-101 0 -181.5 51t-168.5 166q-88 -115 -168.5 -166t-181.5 -51q-136 0 -228.5 96t-92.5 235zM678 575q-65 91 -118 132
t-118 41q-75 0 -123.5 -49t-48.5 -124q0 -77 48 -125.5t124 -48.5q66 0 119.5 41t116.5 133zM1290 575q0 75 -47.5 124t-122.5 49q-66 0 -119 -40.5t-118 -132.5q63 -92 116.5 -133t120.5 -41q75 0 122.5 48t47.5 126z" />
    <glyph glyph-name="integral" unicode="&#x222b;" horiz-adv-x="921" 
d="M-31 -373l13 166q49 -14 127 -14q74 0 110 52t57 183l173 1104q16 106 36 174t54.5 118.5t87 72.5t129.5 22q46 0 108 -6q64 -6 88 -12l-14 -166q-49 14 -123 14q-81 0 -115.5 -52t-54.5 -183l-172 -1106q-35 -217 -99 -301t-208 -84q-48 0 -113 6q-64 6 -84 12z" />
    <glyph glyph-name="approxequal" unicode="&#x2248;" 
d="M600 743q-81 26 -125 35.5t-92 9.5q-128 0 -258 -81v170q112 75 254 75q106 0 254 -49q143 -43 215 -43q130 0 258 82v-172q-119 -76 -254 -76q-104 0 -252 49zM600 244q-81 26 -125 35.5t-92 9.5q-133 0 -258 -82v170q122 78 254 78q106 0 254 -49q83 -26 126 -36
t89 -10q130 0 258 82v-170q-121 -77 -254 -77q-104 0 -252 49z" />
    <glyph glyph-name="notequal" unicode="&#x2260;" 
d="M1112 739h-352l-156 -331h508v-166h-586l-127 -271h-178l127 271h-231v166h309l156 331h-465v164h542l127 273h179l-127 -273h274v-164z" />
    <glyph glyph-name="lessequal" unicode="&#x2264;" 
d="M1098 334l-998 403v127l998 402v-179l-711 -286l711 -287v-180zM102 90v166h996v-166h-996z" />
    <glyph glyph-name="greaterequal" unicode="&#x2265;" 
d="M1128 737l-997 -403v180l711 287l-711 286v179l997 -402v-127zM131 256h995v-166h-995v166z" />
    <glyph glyph-name="filledbox" unicode="&#x25a0;" 
d="M217 299v795h795v-795h-795z" />
    <glyph glyph-name="uni25A1" unicode="&#x25a1;" 
d="M217 299v795h795v-795h-795zM309 391h611v610h-611v-610z" />
    <glyph glyph-name="uni25B4" unicode="&#x25b4;" 
d="M975 264h-723l362 623z" />
    <glyph glyph-name="uni25B8" unicode="&#x25b8;" 
d="M328 207v723l622 -363z" />
    <glyph glyph-name="uni25BE" unicode="&#x25be;" 
d="M254 887h723l-363 -623z" />
    <glyph glyph-name="uni25C2" unicode="&#x25c2;" 
d="M901 936v-723l-622 362z" />
    <glyph glyph-name="lozenge" unicode="&#x25ca;" 
d="M614 1509l533 -831l-533 -832l-532 832zM614 160l322 516l-322 520l-321 -518z" />
    <glyph glyph-name="circle" unicode="&#x25cb;" 
d="M614 1139q186 0 314.5 -128.5t128.5 -314.5t-128.5 -314t-314.5 -128t-314 128t-128 314t128 314.5t314 128.5zM614 346q143 0 245 101.5t102 248.5t-102 249t-245 102q-145 0 -245.5 -101.5t-100.5 -249.5q0 -147 100.5 -248.5t245.5 -101.5z" />
    <glyph glyph-name="uni25CF" unicode="&#x25cf;" 
d="M614 1137q184 0 312.5 -128.5t128.5 -312.5t-128 -312t-313 -128q-184 0 -312 128t-128 312q0 185 128 313t312 128z" />
    <glyph glyph-name="uni2610" unicode="&#x2610;" horiz-adv-x="1675" 
d="M186 1368h1305v-1305h-1305v1305zM279 1276v-1120h1120v1120h-1120z" />
    <glyph glyph-name="uni2611" unicode="&#x2611;" horiz-adv-x="1675" 
d="M186 1368h1305v-1305h-1305v1305zM279 1276v-1120h1120v1120h-1120zM1206 1098l76 -56l-543 -694l-319 301l67 68l244 -232z" />
    <glyph glyph-name="uni2612" unicode="&#x2612;" horiz-adv-x="1675" 
d="M186 1368h1305v-1305h-1305v1305zM1399 156v1120h-1120v-1120h1120zM575 389l-65 68l264 264l-264 264l65 68l265 -265l264 265l67 -68l-264 -264l264 -262l-67 -68l-262 264z" />
    <glyph glyph-name="uni2713" unicode="&#x2713;" horiz-adv-x="1644" 
d="M612 -37l-553 572l125 141l408 -428l856 1210l151 -110z" />
    <glyph glyph-name="uniEA00" unicode="&#xea00;" horiz-adv-x="1536" 
d="M969 1169q0 -70 -27.5 -135.5t-71.5 -111.5q-49 -46 -49 -103q0 -56 58 -90q26 -16 59 -16q55 0 102 47q46 46 37 112q-2 12 -2 52q0 236 209 250q-39 -68 -39 -136q0 -41 15 -75t57 -105q55 -82 79.5 -145.5t24.5 -149.5q0 -247 -151 -401q-153 -153 -369 -205
q64 31 91.5 79.5t29.5 119.5q0 80 -48.5 125t-156.5 57q-103 9 -180 63q-78 57 -78 174q0 43 8 74q-85 -77 -129.5 -172.5t-44.5 -195.5q0 -114 54.5 -209t150.5 -144q-253 59 -369 199q-114 144 -114 319q0 86 26.5 170.5t71.5 147.5q43 62 92.5 107.5t155.5 129.5
q78 59 137 115q115 110 115 260q0 96 -47 223q153 -91 228 -202t75 -228z" />
    <glyph glyph-name="NULL" horiz-adv-x="0" 
 />
    <glyph glyph-name="Iacute_J.loclNLD" horiz-adv-x="1818" 
d="M186 1434h199v-1434h-199v1434zM217 1577l115 299h266l-233 -299h-148zM616 506h199q0 -156 86 -249t232 -93q151 0 234 93t83 255v922h199v-928q0 -244 -139 -388.5t-377 -144.5q-237 0 -377 145.5t-140 387.5zM1481 1577l114 299h267l-234 -299h-147z" />
    <glyph glyph-name="Q.ss07" horiz-adv-x="1685" 
d="M1405 211l164 -211h-246l-68 86q-174 -113 -411 -113q-163 -3 -305.5 57t-239.5 163t-152 239.5t-53 284.5q-2 148 53 284.5t152 238.5t239.5 162t305.5 58q163 2 305 -58t238.5 -162t151 -238.5t52.5 -284.5q0 -146 -47.5 -276t-138.5 -230zM1135 240l-232 299l156 120
l221 -286q109 145 109 344q0 110 -38 210t-106.5 176.5t-172.5 121.5t-228 45q-123 0 -227.5 -45t-173.5 -121.5t-107.5 -176.5t-38.5 -210q0 -111 38.5 -211t107.5 -176t173.5 -121t227.5 -45q163 0 291 76z" />
    <glyph glyph-name="i.loclTRK" horiz-adv-x="479" 
d="M98 1268q0 61 40.5 99t101.5 38t101 -38t40 -99q0 -59 -41.5 -97t-99.5 -38q-61 0 -101.5 38t-40.5 97zM145 965h189v-965h-189v965z" />
    <glyph glyph-name="f.alt01" horiz-adv-x="739" 
d="M211 0v807h-164v158h164v243q0 146 80 230t219 84q102 0 172 -43l-47 -154q-66 29 -117 29q-60 0 -91.5 -39t-31.5 -107v-243h424v-158h-424v-807h-184z" />
    <glyph glyph-name="f.alt02" horiz-adv-x="786" 
d="M211 0v791h-164v174h164v200q0 159 100 256q101 101 264 101q159 0 263 -102t104 -255h-170q0 82 -51 132.5t-135 50.5q-86 0 -136.5 -49t-50.5 -134v-200h420v-174h-420v-791h-188z" />
    <glyph glyph-name="iacute_j.loclNLD" horiz-adv-x="958" 
d="M145 965h189v-965h-189v965zM160 1133l114 297h256l-225 -297h-145zM625 -410v1375h188v-1375h-188zM639 1133l115 297h256l-226 -297h-145z" />
    <glyph glyph-name="a.ss02" horiz-adv-x="1038" 
d="M76 274q0 144 109 219.5t288 75.5h244v49q0 93 -56 146t-153 53q-82 0 -139.5 -39t-83.5 -112l-152 73q36 117 138 184.5t237 67.5q180 0 288.5 -100t108.5 -270v-621h-188v147q-49 -74 -135 -117.5t-181 -43.5q-144 0 -234.5 77t-90.5 211zM717 422h-244
q-94 0 -147.5 -36.5t-53.5 -109.5q0 -65 47 -100t123 -35q121 0 198 80.5t77 200.5z" />
    <glyph glyph-name="aacute.ss02" horiz-adv-x="1038" 
d="M76 274q0 144 109 219.5t288 75.5h244v49q0 93 -56 146t-153 53q-82 0 -139.5 -39t-83.5 -112l-152 73q36 117 138 184.5t237 67.5q180 0 288.5 -100t108.5 -270v-621h-188v147q-49 -74 -135 -117.5t-181 -43.5q-144 0 -234.5 77t-90.5 211zM717 422h-244
q-94 0 -147.5 -36.5t-53.5 -109.5q0 -65 47 -100t123 -35q121 0 198 80.5t77 200.5zM440 1133l115 297h256l-225 -297h-146z" />
    <glyph glyph-name="abreve.ss02" horiz-adv-x="1038" 
d="M76 274q0 144 109 219.5t288 75.5h244v49q0 93 -56 146t-153 53q-82 0 -139.5 -39t-83.5 -112l-152 73q36 117 138 184.5t237 67.5q180 0 288.5 -100t108.5 -270v-621h-188v147q-49 -74 -135 -117.5t-181 -43.5q-144 0 -234.5 77t-90.5 211zM717 422h-244
q-94 0 -147.5 -36.5t-53.5 -109.5q0 -65 47 -100t123 -35q121 0 198 80.5t77 200.5zM518 1112q-140 0 -228.5 83.5t-88.5 217.5h184q0 -67 36.5 -108t98.5 -41q61 0 98 41.5t37 107.5h183q0 -134 -90 -217.5t-230 -83.5z" />
    <glyph glyph-name="acircumflex.ss02" horiz-adv-x="1038" 
d="M76 274q0 144 109 219.5t288 75.5h244v49q0 93 -56 146t-153 53q-82 0 -139.5 -39t-83.5 -112l-152 73q36 117 138 184.5t237 67.5q180 0 288.5 -100t108.5 -270v-621h-188v147q-49 -74 -135 -117.5t-181 -43.5q-144 0 -234.5 77t-90.5 211zM717 422h-244
q-94 0 -147.5 -36.5t-53.5 -109.5q0 -65 47 -100t123 -35q121 0 198 80.5t77 200.5zM172 1124l348 303l348 -303h-233l-115 109l-114 -109h-234z" />
    <glyph glyph-name="adieresis.ss02" horiz-adv-x="1038" 
d="M76 274q0 144 109 219.5t288 75.5h244v49q0 93 -56 146t-153 53q-82 0 -139.5 -39t-83.5 -112l-152 73q36 117 138 184.5t237 67.5q180 0 288.5 -100t108.5 -270v-621h-188v147q-49 -74 -135 -117.5t-181 -43.5q-144 0 -234.5 77t-90.5 211zM717 422h-244
q-94 0 -147.5 -36.5t-53.5 -109.5q0 -65 47 -100t123 -35q121 0 198 80.5t77 200.5zM197 1260q0 54 37 88t92 34t90 -33.5t35 -88.5q0 -53 -36.5 -88t-88.5 -35q-55 0 -92 35t-37 88zM588 1260q0 55 37.5 88.5t93.5 33.5q55 0 90 -33.5t35 -88.5q0 -53 -36.5 -88t-88.5 -35
q-56 0 -93.5 34.5t-37.5 88.5z" />
    <glyph glyph-name="agrave.ss02" horiz-adv-x="1038" 
d="M76 274q0 144 109 219.5t288 75.5h244v49q0 93 -56 146t-153 53q-82 0 -139.5 -39t-83.5 -112l-152 73q36 117 138 184.5t237 67.5q180 0 288.5 -100t108.5 -270v-621h-188v147q-49 -74 -135 -117.5t-181 -43.5q-144 0 -234.5 77t-90.5 211zM717 422h-244
q-94 0 -147.5 -36.5t-53.5 -109.5q0 -65 47 -100t123 -35q121 0 198 80.5t77 200.5zM598 1143h-145l-224 299h254z" />
    <glyph glyph-name="amacron.ss02" horiz-adv-x="1038" 
d="M76 274q0 144 109 219.5t288 75.5h244v49q0 93 -56 146t-153 53q-82 0 -139.5 -39t-83.5 -112l-152 73q36 117 138 184.5t237 67.5q180 0 288.5 -100t108.5 -270v-621h-188v147q-49 -74 -135 -117.5t-181 -43.5q-144 0 -234.5 77t-90.5 211zM717 422h-244
q-94 0 -147.5 -36.5t-53.5 -109.5q0 -65 47 -100t123 -35q121 0 198 80.5t77 200.5zM227 1323h588v-162h-588v162z" />
    <glyph glyph-name="aogonek.ss02" horiz-adv-x="1038" 
d="M905 -227l29 -109q-68 -45 -152 -45q-80 0 -133 48.5t-53 125.5q0 58 33.5 107t99.5 100h-12v147q-49 -74 -135 -117.5t-181 -43.5q-144 0 -234.5 77t-90.5 211q0 144 109 219.5t288 75.5h244v49q0 93 -56 146t-153 53q-82 0 -139.5 -39t-83.5 -112l-152 73
q36 117 138 184.5t237 67.5q180 0 288.5 -100t108.5 -270v-621h-2l-78 -55q-90 -57 -90 -121q0 -32 24.5 -55t59.5 -23q45 0 86 27zM717 422h-244q-94 0 -147.5 -36.5t-53.5 -109.5q0 -65 47 -100t123 -35q121 0 198 80.5t77 200.5z" />
    <glyph glyph-name="aring.ss02" horiz-adv-x="1038" 
d="M76 274q0 144 109 219.5t288 75.5h244v49q0 93 -56 146t-153 53q-82 0 -139.5 -39t-83.5 -112l-152 73q36 117 138 184.5t237 67.5q180 0 288.5 -100t108.5 -270v-621h-188v147q-49 -74 -135 -117.5t-181 -43.5q-144 0 -234.5 77t-90.5 211zM717 422h-244
q-94 0 -147.5 -36.5t-53.5 -109.5q0 -65 47 -100t123 -35q121 0 198 80.5t77 200.5zM313 1309q0 84 60 139t149 55q88 0 146.5 -55t58.5 -139q0 -85 -58.5 -142t-146.5 -57t-148.5 57.5t-60.5 141.5zM608 1309q0 35 -24.5 58.5t-61.5 23.5q-38 0 -64 -23.5t-26 -58.5
q0 -37 25.5 -60.5t64.5 -23.5q37 0 61.5 23.5t24.5 60.5z" />
    <glyph glyph-name="aringacute.ss02" horiz-adv-x="1038" 
d="M319 1309q0 67 45.5 118.5t114.5 65.5l66 164h172l-133 -168q61 -19 98 -68t37 -112q0 -82 -56 -136.5t-141 -54.5t-144 55t-59 136zM428 1309q0 -38 26.5 -63t67.5 -25q39 0 65.5 25t26.5 63q0 37 -27 61.5t-65 24.5q-41 0 -67.5 -24t-26.5 -62zM905 621v-621h-188v147
q-49 -74 -135 -117.5t-181 -43.5q-144 0 -234.5 77t-90.5 211q0 144 109 219.5t288 75.5h244v49q0 93 -56 146t-153 53q-82 0 -139.5 -39t-83.5 -112l-152 73q36 117 138 184.5t237 67.5q180 0 288.5 -100t108.5 -270zM717 422h-244q-94 0 -147.5 -36.5t-53.5 -109.5
q0 -65 47 -100t123 -35q121 0 198 80.5t77 200.5z" />
    <glyph glyph-name="atilde.ss02" horiz-adv-x="1038" 
d="M76 274q0 144 109 219.5t288 75.5h244v49q0 93 -56 146t-153 53q-82 0 -139.5 -39t-83.5 -112l-152 73q36 117 138 184.5t237 67.5q180 0 288.5 -100t108.5 -270v-621h-188v147q-49 -74 -135 -117.5t-181 -43.5q-144 0 -234.5 77t-90.5 211zM717 422h-244
q-94 0 -147.5 -36.5t-53.5 -109.5q0 -65 47 -100t123 -35q121 0 198 80.5t77 200.5zM508 1171q-70 41 -107 41t-53 -22t-14 -68h-141q-3 15 -3 45q0 90 48 138.5t143 48.5q34 0 64 -11.5t90 -42.5q70 -40 104 -40q73 0 70 90h141q2 -10 2 -41q0 -92 -48 -141.5t-145 -49.5
q-7 0 -14 0.5t-12.5 1.5t-13.5 3t-12.5 3.5t-13.5 5t-14 5.5t-16 7t-16 7.5t-18.5 9.5t-20.5 10z" />
    <glyph glyph-name="f.ss03" horiz-adv-x="677" 
d="M209 0v791h-162v174h162v256q0 139 86.5 220t230.5 81q70 0 125 -19v-155q-71 12 -112 12q-68 0 -105 -41t-37 -111v-243h254v-174h-254v-791h-188z" />
    <glyph glyph-name="r.ss04" horiz-adv-x="661" 
d="M145 0v965h172v-148q76 166 308 166v-199q-131 6 -211 -59t-80 -186v-539h-189z" />
    <glyph glyph-name="racute.ss04" horiz-adv-x="661" 
d="M145 0v965h172v-148q76 166 308 166v-199q-131 6 -211 -59t-80 -186v-539h-189zM289 1133l114 297h256l-225 -297h-145z" />
    <glyph glyph-name="rcaron.ss04" horiz-adv-x="661" 
d="M145 0v965h172v-148q76 166 308 166v-199q-131 6 -211 -59t-80 -186v-539h-189zM369 1100l-340 301h231l109 -109l108 109h232z" />
    <glyph glyph-name="uni0157.ss04" horiz-adv-x="661" 
d="M145 0v965h172v-148q76 166 308 166v-199q-131 6 -211 -59t-80 -186v-539h-189zM16 -473l107 313h246l-228 -313h-125z" />
    <glyph glyph-name="t.ss05" horiz-adv-x="694" 
d="M408 1303v-338h266v-174h-266v-791h-189v791h-174v174h174v338h189z" />
    <glyph glyph-name="tbar.ss05" horiz-adv-x="694" 
d="M678 543v-154h-270v-389h-189v389h-184v154h184v248h-174v174h174v338h189v-338h266v-174h-266v-248h270z" />
    <glyph glyph-name="tcaron.ss05" horiz-adv-x="694" 
d="M694 1102h-106v393h262zM408 1303v-338h266v-174h-266v-791h-189v791h-174v174h174v338h189z" />
    <glyph glyph-name="uni0163.ss05" horiz-adv-x="694" 
d="M408 0h-37l-47 -74q58 -12 94.5 -53t36.5 -96q0 -67 -52 -107.5t-129 -40.5q-76 0 -141 35l43 80q36 -25 74 -25q33 0 53.5 16.5t20.5 45.5q0 30 -22 50t-60 26l-72 14l76 129h-27v791h-174v174h174v338h189v-338h266v-174h-266v-791z" />
    <glyph glyph-name="uni021B.ss05" horiz-adv-x="694" 
d="M408 1303v-338h266v-174h-266v-791h-189v791h-174v174h174v338h189zM90 -473l107 313h245l-227 -313h-125z" />
    <glyph glyph-name="uni1E6B.ss05" horiz-adv-x="694" 
d="M408 1303v-338h266v-174h-266v-791h-189v791h-174v174h174v338h189zM182 1567q0 55 38.5 90t94.5 35q55 0 91 -35t36 -90q0 -54 -37.5 -90.5t-89.5 -36.5q-56 0 -94.5 36t-38.5 91z" />
    <glyph glyph-name="germandbls.ss06" horiz-adv-x="1259" 
d="M1182 451q0 -213 -141 -342t-363 -129q-106 0 -209 40l51 168q84 -34 158 -34q137 0 223 81.5t86 215.5q0 140 -82 221.5t-227 81.5h-127v166q96 0 157.5 60.5t61.5 154.5t-61 153.5t-158 59.5q-96 0 -155.5 -59.5t-59.5 -153.5v-1135h-189v1139q0 174 113 278.5
t291 104.5q175 0 292.5 -104t117.5 -271q0 -150 -109 -250q150 -43 240 -163t90 -283z" />
    <glyph glyph-name="f_b" horiz-adv-x="1873" 
d="M1794 485q0 -220 -130.5 -366t-338.5 -146q-231 0 -354 170v-143h-189v807h-385v-807h-186v807h-164v158h164v243q0 146 80 230t219 84q105 0 172 -43l-47 -154q-66 29 -117 29q-60 0 -90.5 -39t-30.5 -107v-243h385v530h189v-666q59 78 152.5 120t201.5 42
q137 0 245 -67.5t166 -182.5t58 -256zM1599 483q0 145 -84.5 239.5t-224.5 94.5t-224.5 -94.5t-84.5 -239.5q0 -149 82.5 -241t226.5 -92q141 0 225 92.5t84 240.5z" />
    <glyph glyph-name="f_f_b" horiz-adv-x="2447" 
d="M2367 485q0 -220 -130.5 -366t-338.5 -146q-231 0 -354 170v-143h-188v807h-385v-807h-185v807h-389v-807h-186v807h-164v158h164v243q0 146 80 230t219 84q105 0 172 -43l-47 -154q-66 29 -117 29q-60 0 -90.5 -39t-30.5 -107v-243h389v243q0 148 79 231t220 83
q102 0 172 -43l-49 -154q-66 29 -116 29q-59 0 -90 -39t-31 -107v-243h385v530h188v-666q59 78 152.5 120t201.5 42q137 0 245 -67.5t166 -182.5t58 -256zM2173 483q0 145 -84.5 239.5t-224.5 94.5t-225 -94.5t-85 -239.5q0 -148 84.5 -240.5t225.5 -92.5t225 92.5t84 240.5
z" />
    <glyph glyph-name="f_f_f" horiz-adv-x="1841" 
d="M1532 1192v-227h280v-174h-280v-791h-189v791h-376v-791h-189v791h-379v-791h-188v791h-164v174h164v200q0 157 102 256q101 101 265 101q174 0 282 -121q105 121 285 121q170 0 272 -111q88 111 248 111q143 0 229.5 -84.5t85.5 -223.5h-182q0 60 -36 97t-97 37
q-63 0 -98 -40.5t-35 -115.5zM778 965v200h-6q0 85 -49.5 134t-134.5 49q-86 0 -137.5 -49t-51.5 -134v-200h379zM1343 965v200h-4q0 85 -49.5 134t-134.5 49q-86 0 -137 -49t-51 -134v-200h376z" />
    <glyph glyph-name="f_f_h" horiz-adv-x="2381" 
d="M2236 567v-567h-188v549q0 119 -68 191.5t-184 72.5q-115 0 -183.5 -72.5t-68.5 -191.5v-549h-188v807h-385v-807h-185v807h-389v-807h-186v807h-164v158h164v243q0 146 80 230t219 84q105 0 172 -43l-47 -154q-66 29 -117 29q-60 0 -90.5 -39t-30.5 -107v-243h389v243
q0 148 79 231t220 83q102 0 172 -43l-49 -154q-66 29 -116 29q-59 0 -90 -39t-31 -107v-243h385v530h182v-653q101 149 309 149q179 0 284 -119t105 -305z" />
    <glyph glyph-name="f_f_j" horiz-adv-x="1669" 
d="M956 965h566v-1375h-189v1201h-377v-791h-188v791h-375v-791h-188v791h-164v174h164v200q0 159 100 256q101 101 264 101q173 0 279 -119q103 119 282 119q157 0 258 -94.5t101 -237.5h-189q0 72 -47 115t-125 43q-79 0 -125.5 -44.5t-46.5 -123.5v-215zM768 965v200h-2
q0 82 -51 132.5t-135 50.5q-86 0 -136.5 -49t-50.5 -134v-200h375z" />
    <glyph glyph-name="f_f_k" horiz-adv-x="2279" 
d="M1860 559l391 -559h-223l-291 424h-191v-424h-188v807h-387v-807h-185v807h-389v-807h-186v807h-164v158h164v243q0 146 80 230t219 84q105 0 172 -43l-47 -154q-66 29 -117 29q-60 0 -90.5 -39t-30.5 -107v-243h389v243q0 148 79 231t220 83q102 0 172 -43l-49 -154
q-66 29 -116 29q-59 0 -90 -39t-31 -107v-243h387v530h188v-1057l416 527h225z" />
    <glyph glyph-name="f_h" horiz-adv-x="1808" 
d="M1661 567v-567h-188v549q0 120 -67 192t-183 72q-115 0 -183.5 -72.5t-68.5 -191.5v-549h-189v807h-385v-807h-186v807h-164v158h164v243q0 146 80 230t219 84q105 0 172 -43l-47 -154q-66 29 -117 29q-60 0 -90.5 -39t-30.5 -107v-243h385v530h183v-653q101 149 307 149
q179 0 284 -119t105 -305z" />
    <glyph glyph-name="f_j" horiz-adv-x="1107" 
d="M47 791v174h162v215q0 151 102.5 246.5t259.5 95.5t258 -93.5t101 -238.5h-189q0 72 -47 115t-125 43q-79 0 -125.5 -44.5t-46.5 -123.5v-215h566v-1375h-189v1201h-377v-791h-188v791h-162z" />
    <glyph glyph-name="f_k" horiz-adv-x="1697" 
d="M1280 559l389 -559h-221l-293 424h-188v-424h-189v807h-389v-807h-184v807h-164v158h164v243q0 146 80 230t219 84q102 0 172 -43l-49 -154q-63 29 -115 29q-60 0 -91.5 -39t-31.5 -107v-243h389v530h189v-1057l413 527h228z" />
    <glyph glyph-name="t_t" horiz-adv-x="1267" 
d="M983 965h266v-172h-266v-793h-188v793h-379v-793h-189v793h-196l303 501h82v-329h379v338h188v-338z" />
    <glyph glyph-name="zero.tf" 
d="M88 717q0 219 61 386t181.5 262t285.5 95q166 0 286.5 -95t181.5 -262t61 -386t-61 -386t-181.5 -262.5t-286.5 -95.5q-165 0 -285.5 95.5t-181.5 262.5t-61 386zM948 719q0 155 -38.5 279t-114.5 198t-179 74t-179 -74t-114 -198t-38 -279q0 -157 38 -281.5t114 -199
t179 -74.5t179 74.5t114.5 199t38.5 281.5z" />
    <glyph glyph-name="one.tf" 
d="M719 184h334v-184h-877v184h344v854h-239l280 408h158v-1262z" />
    <glyph glyph-name="two.tf" 
d="M117 0l602 807q104 132 104 237q0 103 -59.5 164.5t-157.5 61.5q-103 0 -163 -61.5t-58 -164.5h-192q-6 185 109.5 300.5t303.5 115.5q187 0 304.5 -110.5t117.5 -288.5q0 -82 -36 -164.5t-107 -181.5l-406 -531h635v-184h-997z" />
    <glyph glyph-name="three.tf" 
d="M84 272l152 121q45 -103 138 -167t218 -64q150 0 244 87.5t94 219.5q0 129 -98.5 217t-253.5 88h-129l268 475h-502v185h815l-293 -514q169 -26 282.5 -148.5t113.5 -302.5q0 -141 -70 -255t-192.5 -177.5t-274.5 -63.5q-180 0 -313.5 83.5t-198.5 215.5z" />
    <glyph glyph-name="four.tf" 
d="M969 1460v-1059h211v-182h-211v-219h-191v219h-753l809 1241h135zM344 395h434v660z" />
    <glyph glyph-name="five.tf" 
d="M66 272l151 121q45 -103 137.5 -167t216.5 -64q157 0 252 88t95 229q0 137 -96 224.5t-253 87.5q-172 0 -376 -82l120 727h676v-185h-516l-55 -321q100 35 211 35q220 0 355.5 -136t135.5 -346q0 -225 -151 -367.5t-394 -142.5q-186 0 -319 86q-130 84 -190 213z" />
    <glyph glyph-name="six.tf" 
d="M88 500q0 131 49 250.5t148 269.5l266 414h237l-323 -473q72 57 188 57q210 0 351 -150.5t141 -367.5q0 -143 -68 -264t-190 -192t-271 -71q-159 0 -280.5 70.5t-184.5 189.5t-63 267zM944 496q0 140 -92.5 239t-235.5 99q-147 0 -236 -99t-89 -239q0 -141 88.5 -237.5
t236.5 -96.5q143 0 235.5 98t92.5 236z" />
    <glyph glyph-name="seven.tf" 
d="M315 0l531 1251h-744v185h1028l-598 -1436h-217z" />
    <glyph glyph-name="eight.tf" 
d="M367 868q-61 39 -97.5 107t-36.5 147q0 145 108 241.5t273 96.5t273 -96.5t108 -241.5q0 -79 -36 -147t-97 -107q128 -56 202.5 -166t74.5 -249q0 -135 -68 -245t-188.5 -172.5t-268.5 -62.5q-225 0 -374.5 137t-149.5 343q0 139 74.5 249t202.5 166zM614 938
q85 0 137 49t52 127q0 76 -52.5 124t-136.5 48t-136 -48t-52 -124q0 -78 52 -127t136 -49zM614 162q145 0 236 82q92 83 92 213q0 128 -92 211q-93 84 -236 84q-142 0 -235 -84q-92 -83 -92 -211q0 -130 92 -213q91 -82 235 -82z" />
    <glyph glyph-name="nine.tf" 
d="M1135 965q0 -112 -37 -213q-34 -101 -84 -181q-38 -60 -142 -211l-251 -360h-230l395 555q-89 -63 -217 -63q-135 0 -245.5 64t-172 172t-61.5 237q0 138 68.5 251.5t189 178.5t266.5 65q228 0 374.5 -141t146.5 -354zM295 965q0 -128 90 -218t227 -90q145 0 231.5 87
t86.5 221q0 132 -86.5 218.5t-231.5 86.5q-137 0 -227 -89.5t-90 -215.5z" />
    <glyph glyph-name="zero.dnom" horiz-adv-x="776" 
d="M66 399q0 187 88 299.5t235 112.5q146 0 234 -113t88 -299q0 -189 -87.5 -301t-234.5 -112q-148 0 -235.5 112t-87.5 301zM584 399q-2 135 -55 217t-140 82q-88 0 -141.5 -83t-52.5 -216q0 -135 53 -218t141 -83q88 2 141.5 84t53.5 217z" />
    <glyph glyph-name="one.dnom" horiz-adv-x="403" 
d="M170 0v575h-145l178 228h90v-803h-123z" />
    <glyph glyph-name="two.dnom" horiz-adv-x="630" 
d="M27 2l333 447q54 69 54 133q0 56 -29.5 87t-83.5 31t-84.5 -32t-30.5 -86h-114q-1 103 62.5 167t166.5 64q105 0 170.5 -62t65.5 -161q0 -85 -78 -195l-217 -284h340v-109h-555z" />
    <glyph glyph-name="three.dnom" horiz-adv-x="671" 
d="M35 150l92 67q25 -54 74.5 -88.5t115.5 -34.5q81 0 132 46t51 118q0 69 -53.5 116.5t-137.5 47.5h-76l150 262h-274v109h452l-162 -285q96 -14 157.5 -81.5t61.5 -168.5q0 -121 -83.5 -198.5t-212.5 -77.5q-102 0 -176 46t-111 122z" />
    <glyph glyph-name="four.dnom" horiz-adv-x="681" 
d="M543 805v-580h100v-108h-100v-123h-113v123h-420l457 688h76zM203 223h227v338z" />
    <glyph glyph-name="five.dnom" horiz-adv-x="679" 
d="M39 147l90 70q26 -57 75 -91t118 -34q85 0 134.5 46.5t49.5 121.5q0 76 -50.5 122t-136.5 46q-95 0 -210 -41l69 406h375v-109h-281l-28 -168q43 14 110 14q122 0 197.5 -74.5t75.5 -191.5q0 -125 -84.5 -204.5t-218.5 -79.5q-100 0 -174 46t-111 121z" />
    <glyph glyph-name="six.dnom" horiz-adv-x="706" 
d="M59 272q0 68 28 134t83 151l154 234h141l-180 -259q43 29 98 29q120 0 201 -84q80 -83 80 -205q0 -121 -87.5 -206.5t-216.5 -85.5q-135 0 -218 83t-83 209zM543 270q0 75 -52.5 128t-130.5 53q-80 0 -130 -52.5t-50 -128.5t50 -127t130 -51q79 0 131 52t52 126z" />
    <glyph glyph-name="seven.dnom" horiz-adv-x="593" 
d="M111 0l299 686h-375v111h545l-342 -797h-127z" />
    <glyph glyph-name="eight.dnom" horiz-adv-x="702" 
d="M211 479q-33 21 -53.5 59.5t-20.5 82.5q0 80 60.5 133t152.5 53t152.5 -53t60.5 -133q0 -44 -20.5 -82.5t-53.5 -59.5q70 -31 112 -92.5t42 -138.5q0 -115 -84 -193q-81 -75 -209 -75q-130 0 -211 75q-82 76 -82 193q0 74 42 137t112 94zM350 516q47 0 76 27.5t29 70.5
q0 42 -29 68.5t-76 26.5q-44 0 -73 -27t-29 -68q0 -43 29 -70.5t73 -27.5zM350 92q78 0 127 44.5t49 113.5t-49 113.5t-127 44.5t-127 -44.5t-49 -113.5t49 -113.5t127 -44.5z" />
    <glyph glyph-name="nine.dnom" horiz-adv-x="684" 
d="M627 537q0 -74 -28.5 -142t-84.5 -149l-174 -244h-141l219 303q-44 -33 -105 -33q-116 0 -192 76.5t-76 188.5q0 117 83.5 196.5t207.5 79.5q128 0 209.5 -78.5t81.5 -197.5zM172 537q0 -67 46.5 -112.5t117.5 -45.5q76 0 120 44.5t44 113.5t-44 113t-120 44
q-71 0 -117.5 -45t-46.5 -112z" />
    <glyph glyph-name="zero.numr" horiz-adv-x="776" 
d="M66 1030q0 187 88 299.5t235 112.5q146 0 234 -113t88 -299q0 -189 -88 -301.5t-234 -112.5q-148 0 -235.5 112.5t-87.5 301.5zM584 1030q-2 135 -55 217t-140 82q-88 0 -141.5 -83t-52.5 -216q0 -135 53 -218t141 -83q88 2 141.5 84t53.5 217z" />
    <glyph glyph-name="one.numr" horiz-adv-x="403" 
d="M170 639v575h-145l178 228h90v-803h-123z" />
    <glyph glyph-name="two.numr" horiz-adv-x="630" 
d="M27 643l333 447q54 69 54 133q0 56 -29.5 87t-83.5 31t-84.5 -32t-30.5 -86h-114q-1 103 62.5 167t166.5 64q105 0 170.5 -62t65.5 -161q0 -85 -78 -195l-217 -284h340v-109h-555z" />
    <glyph glyph-name="three.numr" horiz-adv-x="671" 
d="M35 788l92 68q25 -54 74.5 -88.5t115.5 -34.5q81 0 132 46t51 118q0 69 -53.5 116.5t-137.5 47.5h-76l150 262h-274v109h452l-162 -285q96 -14 157.5 -81.5t61.5 -168.5q0 -121 -83.5 -198.5t-212.5 -77.5q-102 0 -176 45.5t-111 121.5z" />
    <glyph glyph-name="four.numr" horiz-adv-x="681" 
d="M543 1442v-580h100v-108h-100v-123h-113v123h-420l457 688h76zM203 860h227v338z" />
    <glyph glyph-name="five.numr" horiz-adv-x="679" 
d="M39 788l90 70q26 -57 75 -91t118 -34q85 0 134.5 46.5t49.5 121.5q0 76 -50.5 122t-136.5 46q-95 0 -210 -41l69 406h375v-109h-281l-28 -168q43 14 110 14q122 0 197.5 -74.5t75.5 -191.5q0 -125 -84.5 -204.5t-218.5 -79.5q-100 0 -174 46t-111 121z" />
    <glyph glyph-name="six.numr" horiz-adv-x="706" 
d="M59 915q0 68 28 134t83 151l154 234h141l-180 -258q42 28 98 28q120 0 201 -84q80 -83 80 -205q0 -121 -87.5 -206.5t-216.5 -85.5q-135 0 -218 83t-83 209zM543 913q0 75 -52.5 128t-130.5 53q-80 0 -130 -52.5t-50 -128.5t50 -127t130 -51q79 0 131 52t52 126z" />
    <glyph glyph-name="seven.numr" horiz-adv-x="593" 
d="M111 639l299 686h-375v111h545l-342 -797h-127z" />
    <glyph glyph-name="eight.numr" horiz-adv-x="702" 
d="M211 1118q-33 21 -53.5 59.5t-20.5 82.5q0 80 60.5 133t152.5 53t152.5 -53t60.5 -133q0 -44 -20.5 -82.5t-53.5 -59.5q70 -31 112 -92.5t42 -138.5q0 -115 -84 -193q-82 -76 -209 -76q-129 0 -211 76t-82 193q0 74 42 137t112 94zM350 1155q47 0 76 27.5t29 70.5
q0 42 -29 68.5t-76 26.5q-44 0 -73 -27t-29 -68q0 -43 29 -70.5t73 -27.5zM350 731q78 0 127 44.5t49 113.5t-49 113.5t-127 44.5t-127 -44.5t-49 -113.5t49 -113.5t127 -44.5z" />
    <glyph glyph-name="nine.numr" horiz-adv-x="684" 
d="M627 1174q0 -74 -28.5 -142t-84.5 -149l-174 -244h-141l219 303q-44 -33 -105 -33q-116 0 -192 76.5t-76 188.5q0 117 83.5 196.5t207.5 79.5q128 0 209.5 -78.5t81.5 -197.5zM172 1174q0 -67 46.5 -112.5t117.5 -45.5q76 0 120 44.5t44 113.5t-44 113t-120 44
q-71 0 -117.5 -45t-46.5 -112z" />
    <glyph glyph-name="colon.case" horiz-adv-x="579" 
d="M133 279q0 62 45 104.5t109 42.5q62 0 106.5 -42.5t44.5 -104.5t-44.5 -105t-106.5 -43q-64 0 -109 43t-45 105zM133 1001q0 62 45 105t109 43q62 0 106.5 -43t44.5 -105t-44.5 -104.5t-106.5 -42.5q-64 0 -109 42.5t-45 104.5z" />
    <glyph glyph-name="exclamdown.case" horiz-adv-x="579" 
d="M442 1317q0 -65 -44.5 -106.5t-108.5 -41.5q-63 0 -106.5 41.5t-43.5 106.5q0 62 44 104.5t106 42.5q64 0 108.5 -42.5t44.5 -104.5zM375 991l26 -989h-223l27 989h170z" />
    <glyph glyph-name="questiondown.case" horiz-adv-x="1091" 
d="M754 1313q0 -65 -45 -106.5t-109 -41.5q-63 0 -107 41.5t-44 106.5q0 62 44.5 104.5t106.5 42.5q64 0 109 -42.5t45 -104.5zM598 1024l119 -139l-203 -166q-126 -107 -176 -172q-53 -65 -53 -150q0 -105 77.5 -173t204.5 -68q120 0 200.5 66t94.5 167l170 -41
q-22 -161 -149.5 -268t-315.5 -107q-202 0 -338.5 122.5t-136.5 297.5q0 95 35 170q34 72 96 137q52 52 187 164z" />
    <glyph glyph-name="bullet.case" horiz-adv-x="823" 
d="M145 842q0 112 79 184t188 72t187.5 -72t78.5 -184q0 -111 -78.5 -184.5t-187.5 -73.5t-188 73.5t-79 184.5z" />
    <glyph glyph-name="numbersign.case" horiz-adv-x="1540" 
d="M1473 897h-314l-86 -352h260v-160h-299l-94 -385h-180l94 385h-334l-94 -385h-180l94 385h-272v160h311l86 352h-258v160h297l92 377h182l-92 -377h332l92 377h180l-92 -377h275v-160zM893 545l86 352h-332l-88 -352h334z" />
    <glyph glyph-name="slash.case" horiz-adv-x="1071" 
d="M47 -113l766 1637h207l-764 -1637h-209z" />
    <glyph glyph-name="backslash.case" horiz-adv-x="1071" 
d="M815 -113l-764 1637h209l764 -1637h-209z" />
    <glyph glyph-name="parenleft.case" horiz-adv-x="641" 
d="M582 -180l-168 -78q-126 161 -224.5 450.5t-95.5 557.5q-3 268 96 558t224 447l168 -78q-110 -155 -197.5 -420t-87.5 -507q-3 -238 86 -506t199 -424z" />
    <glyph glyph-name="parenright.case" horiz-adv-x="641" 
d="M57 1677l168 78q125 -158 224 -448t96 -557q3 -267 -96 -556.5t-224 -451.5l-168 78q110 156 199 424t86 506q0 242 -87.5 507t-197.5 420z" />
    <glyph glyph-name="braceleft.case" horiz-adv-x="675" 
d="M211 977v412q0 181 63 260.5t209 79.5q75 0 125 -15v-151q-52 10 -88 10q-76 0 -102.5 -47.5t-26.5 -173.5v-416q0 -78 -38.5 -130.5t-100.5 -66.5q62 -14 100.5 -66t38.5 -130v-416q0 -126 26.5 -173.5t102.5 -47.5q36 0 88 10v-152q-46 -14 -125 -14
q-147 0 -209.5 76.5t-62.5 255.5v420q0 69 -37 109t-100 40v176q63 0 100 40.5t37 109.5z" />
    <glyph glyph-name="braceright.case" horiz-adv-x="675" 
d="M602 827v-176q-65 0 -101 -39.5t-36 -109.5v-420q0 -179 -62.5 -255.5t-209.5 -76.5q-79 0 -125 14v152q52 -10 88 -10q76 0 102.5 47.5t26.5 173.5v416q0 78 38.5 130t100.5 66q-62 14 -100.5 66.5t-38.5 130.5v416q0 126 -26.5 173.5t-102.5 47.5q-36 0 -88 -10v151
q49 15 125 15q146 0 209 -79.5t63 -260.5v-412q0 -70 36 -110t101 -40z" />
    <glyph glyph-name="bracketleft.case" horiz-adv-x="645" 
d="M573 1708v-152h-204v-1634h204v-151h-385v1937h385z" />
    <glyph glyph-name="bracketright.case" horiz-adv-x="645" 
d="M457 1708v-1937h-385v151h204v1634h-204v152h385z" />
    <glyph glyph-name="hyphen.case" horiz-adv-x="845" 
d="M135 803h576v-168h-576v168z" />
    <glyph glyph-name="uni00AD.case" horiz-adv-x="845" 
d="M135 803h576v-168h-576v168z" />
    <glyph glyph-name="endash.case" horiz-adv-x="1163" 
d="M141 801h881v-168h-881v168z" />
    <glyph glyph-name="emdash.case" horiz-adv-x="1650" 
d="M141 633v168h1368v-168h-1368z" />
    <glyph glyph-name="guillemotleft.case" horiz-adv-x="1243" 
d="M649 279h-215l-342 438l342 436h215l-340 -436zM1120 279h-215l-344 438l344 436h215l-340 -436z" />
    <glyph glyph-name="guillemotright.case" horiz-adv-x="1243" 
d="M123 279l340 438l-340 436h215l342 -436l-342 -438h-215zM594 279l340 438l-340 436h215l342 -436l-342 -438h-215z" />
    <glyph glyph-name="guilsinglleft.case" horiz-adv-x="806" 
d="M471 279l-381 438l381 436h215l-377 -436l377 -438h-215z" />
    <glyph glyph-name="guilsinglright.case" horiz-adv-x="806" 
d="M340 1153l379 -436l-379 -438h-217l381 438l-381 436h217z" />
    <glyph glyph-name="Euro.tf" 
d="M1006 403l184 -73q-63 -171 -188 -264t-297 -93q-207 0 -344 135.5t-185 372.5h-153v166h133q-2 14 -2 70q0 55 2 69h-133v168h153q48 236 185 371t344 135q172 0 297 -92.5t188 -263.5l-184 -74q-90 242 -299 242q-127 0 -208.5 -83t-117.5 -235h473v-168h-496
q-2 -14 -2 -69q0 -56 2 -70h496v-166h-473q33 -151 115.5 -235t210.5 -84q104 0 180.5 63t118.5 178z" />
    <glyph glyph-name="minus.case" horiz-adv-x="1265" 
d="M135 633v168h995v-168h-995z" />
    <glyph glyph-name="arrowup.case" horiz-adv-x="1282" 
d="M725 133h-168v928l-385 -389l-119 116l590 588l588 -585l-119 -119l-387 387v-926z" />
    <glyph glyph-name="uni2197.case" horiz-adv-x="1224" 
d="M1034 1155v-831h-168v548l-651 -655l-119 119l654 653h-547v166h831z" />
    <glyph glyph-name="arrowright.case" horiz-adv-x="1374" 
d="M1317 731l-586 -588l-117 119l385 387l-925 -2v168h925l-385 387l117 119z" />
    <glyph glyph-name="uni2198.case" horiz-adv-x="1224" 
d="M1036 217h-831v166h547l-654 653l119 119l651 -655v549h168v-832z" />
    <glyph glyph-name="arrowdown.case" horiz-adv-x="1280" 
d="M639 147l-588 586l119 117l385 -387v928h168v-928l385 387l119 -117z" />
    <glyph glyph-name="uni2199.case" horiz-adv-x="1224" 
d="M188 217v832h168v-549l654 655l116 -119l-653 -653h547v-166h-832z" />
    <glyph glyph-name="arrowleft.case" horiz-adv-x="1374" 
d="M55 731l588 590l117 -119l-387 -387h925v-168l-923 2l385 -387l-117 -119z" />
    <glyph glyph-name="uni2196.case" horiz-adv-x="1222" 
d="M188 1155h832v-166h-547l653 -651l-116 -121l-654 655v-546h-168v829z" />
    <glyph glyph-name="arrowup.ss09.case" 
d="M1016 840h-316v-686h-172v686h-313l399 491z" />
    <glyph glyph-name="arrowright.ss09.case" 
d="M1210 735l-491 -401v315h-686v172h686v314z" />
    <glyph glyph-name="arrowdown.ss09.case" 
d="M700 629h314l-400 -490l-401 490h315v688h172v-688z" />
    <glyph glyph-name="arrowleft.ss09.case" 
d="M1196 819v-170h-686v-315l-492 399l492 404v-318h686z" />
    <glyph glyph-name="arrowup.ss09" 
d="M1016 680h-316v-686h-172v686h-313l399 491z" />
    <glyph glyph-name="arrowright.ss09" 
d="M1210 575l-491 -401v315h-686v173h686v313z" />
    <glyph glyph-name="arrowdown.ss09" 
d="M700 469h314l-400 -489l-401 489h315v688h172v-688z" />
    <glyph glyph-name="arrowleft.ss09" 
d="M1196 659v-170h-686v-315l-492 399l492 404v-318h686z" />
    <glyph glyph-name="uni25B4.case" 
d="M977 406h-723l362 622z" />
    <glyph glyph-name="uni25B8.case" 
d="M330 356v723l622 -362z" />
    <glyph glyph-name="uni25BE.case" 
d="M254 1030h723l-363 -622z" />
    <glyph glyph-name="uni25C2.case" 
d="M899 1077v-723l-623 363z" />
    <glyph glyph-name="bar.case" horiz-adv-x="571" 
d="M385 1604v-1844h-199v1844h199z" />
    <glyph glyph-name="brokenbar.case" horiz-adv-x="571" 
d="M385 1604v-777h-199v777h199zM385 569v-782h-199v782h199z" />
    <glyph glyph-name="ampersand.ss08" horiz-adv-x="1290" 
d="M82 346q0 95 49 180q55 93 119 154q68 65 182 164q-85 109 -123.5 184.5t-38.5 155.5q0 120 92.5 198t221.5 78t219 -78q92 -77 92 -198q0 -100 -51 -181t-164 -182l287 -375l161 152l113 -147l-164 -154l223 -299h-231l-139 182q-226 -207 -447 -207
q-180 0 -290.5 101.5t-110.5 271.5zM702 1174q0 49 -34 79.5t-86 30.5t-86.5 -30.5t-34.5 -79.5q0 -46 26 -89t91 -122q124 108 124 211zM825 326l-288 376q-67 -57 -107.5 -95t-77.5 -83t-53 -88t-16 -90q0 -87 58.5 -139.5t150.5 -52.5q83 0 162.5 43.5t170.5 128.5z" />
    <glyph glyph-name="uni0327..case" horiz-adv-x="0" 
d="M-817 -348l43 84q42 -25 76 -25q36 0 56.5 16t20.5 46q0 59 -86 80l-73 14l102 176l105 -43l-50 -76q61 -14 98.5 -56t37.5 -99q0 -70 -53.5 -112t-133.5 -42q-76 0 -143 37z" />
    <glyph glyph-name="uni0308.case" horiz-adv-x="0" 
d="M-952 1714q0 56 37.5 92.5t93.5 36.5q55 0 92 -36.5t37 -92.5q0 -55 -37 -91t-92 -36t-93 36t-38 91zM-539 1714q0 56 38.5 92.5t94.5 36.5q55 0 92.5 -36.5t37.5 -92.5q0 -55 -37.5 -91t-92.5 -36t-94 36t-39 91z" />
    <glyph glyph-name="uni0307.case" horiz-adv-x="0" 
d="M-754 1718q0 55 38.5 91t94.5 36t94 -36t38 -91t-38 -91t-94 -36t-94.5 36t-38.5 91z" />
    <glyph glyph-name="gravecomb.case" horiz-adv-x="0" 
d="M-510 1577h-149l-232 299h266z" />
    <glyph glyph-name="acutecomb.case" horiz-adv-x="0" 
d="M-686 1577l115 299h266l-234 -299h-147z" />
    <glyph glyph-name="uni030B.case" horiz-adv-x="0" 
d="M-850 1577l117 319h237l-217 -319h-137zM-469 1577l117 319h237l-217 -319h-137z" />
    <glyph glyph-name="uni0302.case" horiz-adv-x="0" 
d="M-973 1573l359 303l358 -303h-236l-122 110l-123 -110h-236z" />
    <glyph glyph-name="uni030C.case" horiz-adv-x="0" 
d="M-614 1552l-365 299h234l131 -110l131 110h233z" />
    <glyph glyph-name="uni0306.case" horiz-adv-x="0" 
d="M-934 1858h180q0 -62 40.5 -102t103.5 -40t102 40t39 102h180q0 -128 -92 -211q-95 -80 -231 -80q-141 0 -230 80q-92 80 -92 211z" />
    <glyph glyph-name="uni030A.case" horiz-adv-x="0" 
d="M-836 1700q0 92 67 154.5t165 62.5t162.5 -62t64.5 -155q0 -94 -64.5 -156.5t-162.5 -62.5t-165 63.5t-67 155.5zM-510 1700q0 38 -27.5 64t-68.5 26t-68.5 -26t-27.5 -64q0 -41 27 -66.5t69 -25.5t69 25.5t27 66.5z" />
    <glyph glyph-name="tildecomb.case" horiz-adv-x="0" 
d="M-633 1636q-70 41 -96 41q-79 0 -70 -98h-149q-8 112 43.5 178t152.5 66q57 0 162 -62q71 -41 98 -41q71 0 68 103h148q8 -114 -43 -180t-154 -66q-33 0 -66.5 13t-93.5 46z" />
    <glyph glyph-name="uni0304.case" horiz-adv-x="0" 
d="M-915 1772h602v-170h-602v170z" />
    <glyph glyph-name="uni0312.case" horiz-adv-x="0" 
d="M-152 1501v-323h-247l141 323h106z" />
    <glyph glyph-name="uni0328.case" horiz-adv-x="0" 
d="M-485 -236l30 -112q-71 -47 -157 -47q-83 0 -139 50.5t-56 129.5q0 63 37 114t113 111l69 49l101 -59l-80 -55q-51 -37 -74 -64.5t-23 -62.5t27 -58.5t64 -23.5q46 0 88 28z" />
    <glyph glyph-name="cedilla.case" 
d="M412 -348l43 84q42 -25 75 -25q36 0 57 16t21 46q0 59 -86 80l-73 14l102 176l104 -43l-49 -76q60 -14 97.5 -56t37.5 -99q0 -70 -53 -112t-133 -42q-76 0 -143 37z" />
    <glyph glyph-name="ogonek.i.case" 
d="M745 -227l29 -111q-68 -45 -151 -45q-81 0 -135 49t-54 127q0 60 37 111t109 104l65 49l98 -57l-77 -55q-47 -32 -70 -60t-23 -61q0 -35 24.5 -57.5t61.5 -22.5q43 0 86 29z" />
    <glyph glyph-name="ogonek.case" 
d="M745 -227l29 -111q-68 -45 -151 -45q-81 0 -135 49t-54 127q0 60 37 111t109 104l65 49l98 -57l-77 -55q-47 -32 -70 -60t-23 -61q0 -35 24.5 -57.5t61.5 -22.5q43 0 86 29z" />
    <glyph glyph-name="ogonek.i" 
d="M745 -227l29 -111q-68 -45 -151 -45q-81 0 -135 49t-54 127q0 60 37 111t109 104l65 49l98 -57l-77 -55q-47 -32 -70 -60t-23 -61q0 -35 24.5 -57.5t61.5 -22.5q43 0 86 29z" />
    <glyph glyph-name="dotaccent.l" 
d="M481 698q0 56 39.5 92.5t95.5 36.5t95 -36.5t39 -92.5q0 -55 -39 -92t-95 -37t-95.5 37t-39.5 92z" />
    <glyph glyph-name="caron.slovak" horiz-adv-x="542" 
d="M154 1204v312h262l-156 -312h-106z" />
    <glyph glyph-name="litdash" horiz-adv-x="6326" 
d="M127 492v167h6072v-167h-6072z" />
    <glyph glyph-name="crossmark" horiz-adv-x="1312" 
d="M1217 139l-123 -123l-437 437l-436 -437l-125 123l439 436l-437 437l123 123l436 -437l437 437l120 -123l-434 -437z" />
    <glyph glyph-name="caronaltcomb" 
d="M670 938h-107v496h262z" />
    <glyph glyph-name="litdash.case" horiz-adv-x="6326" 
d="M127 651v168h6072v-168h-6072z" />
    </font>
</defs>
</svg>
