<svg width="325" height="345" viewBox="0 0 325 345" xmlns="http://www.w3.org/2000/svg"><title>Circle-B-Logo</title><path d="M168.315 175.982c-3.9.102-4.857 1.848-5.22 2.51-1.182 2.163-1.017 5.382.392 7.655 1.211 1.952 3.05 2.81 5.847 2.698 2.206-.096 8.124-1.98 15.075-5.69-7.28-4.733-13.969-6.963-16.094-7.173m-5.845 168.143C74.402 344.125 0 269.49 0 181.145c0-50.652 20.58-81.18 37.844-97.87 21.404-20.69 50.958-32.614 81.172-32.77 3.796-.377 21.604-1.756 42.551 3.002 31.491 7.153 55.14 24.737 68.387 50.85 14.832 29.235 8.267 51.866.148 65.702-3.338 5.687-7.49 10.825-12.074 15.382 11.22 16.269 14.244 35.78 8.731 56.698-5.066 19.226-20.927 43.077-67.717 47.518-25.819 2.45-49.387-2.267-50.377-2.468l-8.802-1.795v-173.89c0-6.074 4.925-11 11-11s11 4.926 11 11v155.469c21.227 2.634 74.174 5.414 83.623-30.441 3.726-14.143 2.11-26.732-4.805-37.453-11.95 7.444-23.784 11.482-30.469 11.749-10.709.425-19.998-4.341-25.42-13.086-5.585-9.004-5.977-20.703-.998-29.805 4.764-8.712 13.64-13.798 24.35-13.956l.233-.001c7.653 0 21.92 5.379 34.591 15.49 3.086-3.15 5.905-6.687 8.202-10.62 7.838-13.412 7.565-27.981-.835-44.54-10.247-20.196-28.082-33.386-53.012-39.205-19.529-4.558-36.25-2.695-36.417-2.676l-.632.073-.66.003c-24.769 0-48.999 9.69-66.479 26.588C32.766 118.783 22 147.157 22 181.146c0 35.88 14.985 71.757 41.113 98.433 26.873 27.437 62.16 42.546 99.357 42.546 37.574 0 72.78-14.66 99.133-41.28 26.315-26.581 40.807-62.01 40.807-99.761 0-38.334-15.62-78.164-42.856-109.277C231.846 40.154 195.301 22 159.292 22c-6.076 0-11-4.925-11-11 0-6.076 4.924-11 11-11 22.04 0 43.74 5.374 64.5 15.973 19.35 9.88 36.951 23.79 52.316 41.342 30.696 35.067 48.302 80.178 48.302 123.768 0 43.586-16.753 84.512-47.172 115.239-30.518 30.826-71.276 47.802-114.768 47.802" fill="#FFF" fill-rule="evenodd"/></svg>